<?xml version="1.0" encoding="utf-8"?>
<!-- Generator: Adobe Illustrator 25.0.0, SVG Export Plug-In . SVG Version: 6.00 Build 0)  -->
<svg version="1.1" id="Layer_1" xmlns="http://www.w3.org/2000/svg" xmlns:xlink="http://www.w3.org/1999/xlink" x="0px" y="0px"
	 viewBox="0 0 193.4 99.1" style="enable-background:new 0 0 193.4 99.1;" xml:space="preserve">
<style type="text/css">
	.st0{fill:#E4E7EB;}
	.st1{fill:#EB8D70;}
	.st2{fill:#B63583;}
	.st3{fill:#81255C;}
	.st4{fill:#F4A688;}
	.st5{fill:#1C1C1C;}
	.st6{fill:#FFFFFF;}
	.st7{fill:#152C48;}
</style>
<g>
	<path class="st0" d="M136.2,81H49.5c0,0-10.8-22.9,4.3-30.8c15.1-7.9,19.2-5.8,18.8-18.3c-0.3-12.5,10.6-13.6,16.8-9.7
		c6.2,3.9,8,7.3,17.6,1.3c9.6-6,23.3-5.1,23,14.1c-0.3,19.2,4.6,18.5,8.6,21.5C142.6,62.3,147.5,72.7,136.2,81z"/>
	<path class="st1" d="M85.2,46.4C76.5,46,75,48.1,75,48.1l18.1,9.8l2.9-9L85.2,46.4z"/>
	<g>
		<path class="st2" d="M83.7,34.2h2.8c1.1,0,2-1,2-2.1v-9.7c0-1.1-0.9-2.1-2-2.1H61.9c-1.1,0-2.2,1-2.2,2.1v9.7
			c0,1.1,1.1,2.1,2.2,2.1h16.5c1.8,2.6,5.1,3.6,7.7,3.6C86.1,37.8,83.4,36.2,83.7,34.2z"/>
	</g>
	<path class="st2" d="M97.7,59.9l1.7-9.5c0,0-4.7-2.4-10.2-3.1c-0.4-0.1-0.9-0.1-1.4-0.2l-2.5,9.6L97.7,59.9z"/>
	<path class="st2" d="M90.3,76.9h30.1c0,0-1.7-17.7-9.5-25.5c-9-9.2-18.1-0.3-18.1-0.3S98.2,63.1,90.3,76.9z"/>
	<path class="st3" d="M101.4,50.2c0,0-3.3,10.9-6.9,8.4l-0.8-5.9"/>
	<path class="st1" d="M94,53.2l3.5,0c0,0,4.8-1.2,3.5-4.1c-1.3-2.9-6.6-2-6.6-2"/>
	<path class="st4" d="M98.9,52.5c0.1-0.2-2-6-2.4-7.1c-0.4-1.1-3.6-1.3-3.6-1.3l-16.7-2c-1.8,0-3.3,1.5-3.3,3.3
		c0,1.8,1.5,3.3,3.3,3.3l16.3-1.2c1.4-0.3,2.2,2.4,2.5,3.3c0.3,0.8,1.5,0.5,1.5,0.5s0.1,0.1,0.6,1.2C97.6,53.7,98.8,52.7,98.9,52.5z
		"/>
	<g>
		<path class="st5" d="M99.3,47.5c-0.4,4-4.8,3.2-7.7,2.9c-2.9-0.3-5.6-0.3-5.2-4.3c0.4-4,4.9-7.1,7.9-6.8
			C97.2,39.6,99.7,43.5,99.3,47.5z"/>
		<path class="st4" d="M88.8,51.5c0,0,4.9,5,6.8,4.9c1.8-0.1,3.6-3.3,3.1-6.6c0,0,1.4-0.5,0.9-2.3c-0.8-3.1-2.7-0.5-2.7-0.5
			l-2.1-1.7C94.7,45.3,84.8,48.1,88.8,51.5z"/>
	</g>
	<path class="st5" d="M92.7,48.2c0,0-6.4,6.8-12.3-2.9c0,0,4-0.5,5.7-4.1c2.1-4.5,12.3-4.9,11.7,1.9"/>
	<path class="st6" d="M93.6,53.9c0,0,2.5-1.2,3.3-0.2l-2.5,1.2"/>
	<path class="st1" d="M120.1,64.1l-7.5,1.9l3.6,7.4l-8.9,0.3l-7.6-0.1c0,0-5.4,2.3-5.8,2.6c-0.3,0.3-0.6,2-0.6,2s-0.4,0.1,0.7,0.1
		c1.1,0.1,4.8,0.3,4.8,0.3s4.2-0.6,4.9-0.7c0.5,0,20.9,0.5,22.1-0.5C126.6,76.8,122.8,69.9,120.1,64.1z"/>
	<g>
		<g>
			<path class="st7" d="M71.4,76.9c0,0.7,0.6,1.3,1.3,1.3h26.5c0.8,0,1.5-0.5,1.5-1.3v-0.1c0-0.7-0.7-1.3-1.5-1.3H72.7
				C71.9,75.5,71.4,76.1,71.4,76.9L71.4,76.9z"/>
			<path class="st7" d="M68.7,73c0.4,1.8,2.1,3.3,3.9,3.3h16c1.8,0,2.9-1.5,2.5-3.3l-2.5-11.9c-0.4-1.8-2.1-3.1-3.9-3.1h-16
				c-1.8,0-2.9,1.4-2.5,3.1L68.7,73z"/>
		</g>
	</g>
	<path class="st2" d="M108.1,51.1c-5.3,1.5,3.8,15.8,3.8,15.8l8.2-2.8C118.6,61,113.4,49.7,108.1,51.1z"/>
	<path class="st4" d="M86.4,39.8c0.1-0.2,1.1-2,1.6-1.8c0.5,0.2,1.1,1.6,0.1,2.5"/>
	<path class="st4" d="M82.4,44.3c0,0,2.2,0.4,3.2,1.4c1,1,3-1.7,3.4-2.1c0.4-0.4,1-1.5,0.3-2.6c-0.8-1-3.7-1.7-4.1-1.4
		c-0.4,0.3-4,3.5-2.9,4.5"/>
	<g>
		<path class="st6" d="M67.1,28v0.9H64v-3.9H67v0.9h-2v0.7h1.7v0.8h-1.7V28H67.1z"/>
		<path class="st6" d="M69.4,27.8h-0.6v1h-1.1v-3.9h1.8c1.1,0,1.7,0.6,1.7,1.4c0,0.6-0.3,1-0.8,1.2l0.8,1.2h-1.2L69.4,27.8z
			 M69.4,25.8h-0.6V27h0.6c0.5,0,0.7-0.2,0.7-0.6C70.1,26,69.9,25.8,69.4,25.8z"/>
		<path class="st6" d="M73.5,27.8h-0.6v1h-1.1v-3.9h1.8c1.1,0,1.7,0.6,1.7,1.4c0,0.6-0.3,1-0.8,1.2l0.8,1.2h-1.2L73.5,27.8z
			 M73.5,25.8h-0.6V27h0.6c0.5,0,0.7-0.2,0.7-0.6C74.2,26,74,25.8,73.5,25.8z"/>
		<path class="st6" d="M75.7,26.9c0-1.2,0.9-2,2.2-2s2.2,0.9,2.2,2s-0.9,2-2.2,2S75.7,28.1,75.7,26.9z M79,26.9
			c0-0.7-0.5-1.1-1.1-1.1s-1.1,0.4-1.1,1.1s0.5,1.1,1.1,1.1S79,27.6,79,26.9z"/>
		<path class="st6" d="M82.4,27.8h-0.6v1h-1.1v-3.9h1.8c1.1,0,1.7,0.6,1.7,1.4c0,0.6-0.3,1-0.8,1.2l0.8,1.2h-1.2L82.4,27.8z
			 M82.4,25.8h-0.6V27h0.6c0.5,0,0.7-0.2,0.7-0.6C83,26,82.8,25.8,82.4,25.8z"/>
	</g>
	<g>
		<path class="st2" d="M49.5,19.1c0.4,0,0.7,0.1,1,0.4c0.3,0.3,0.4,0.6,0.4,1v33.7v1h1h7.6c0.4,0,0.7,0.1,1,0.4
			c0.3,0.3,0.4,0.6,0.4,1v9.3c0,0.4-0.1,0.7-0.4,1c-0.3,0.3-0.6,0.4-1,0.4h-7.6h-1v1v9c0,0.4-0.1,0.7-0.4,1c-0.3,0.3-0.6,0.4-1,0.4
			H38c-0.4,0-0.7-0.1-1-0.4c-0.3-0.3-0.4-0.6-0.4-1v-9v-1h-1H8c-0.4,0-0.7-0.1-1-0.4c-0.3-0.3-0.4-0.6-0.4-1v-9.3
			c0-1.3,0.3-2.3,0.9-3.2l26.2-33.1c0.6-0.7,0.9-0.9,1.1-1c0.2-0.1,0.6-0.2,1.4-0.2H49.5 M21.2,55.2h2.1h12.8h1v-1V38v-2.9l-1.8,2.2
			L22.5,53.5L21.2,55.2 M49.5,18.1H36.3c-0.8,0-1.4,0.1-1.8,0.3C34,18.6,33.6,19,33,19.7L6.8,52.8c-0.8,1-1.1,2.3-1.1,3.8v9.3
			c0,0.6,0.2,1.2,0.7,1.7c0.5,0.5,1,0.7,1.7,0.7h27.7v9c0,0.6,0.2,1.2,0.7,1.7c0.5,0.5,1,0.7,1.7,0.7h11.5c0.6,0,1.2-0.2,1.7-0.7
			c0.5-0.5,0.7-1,0.7-1.7v-9h7.6c0.6,0,1.2-0.2,1.7-0.7c0.5-0.5,0.7-1,0.7-1.7v-9.3c0-0.6-0.2-1.2-0.7-1.7c-0.5-0.5-1-0.7-1.7-0.7
			h-7.6V20.4c0-0.6-0.2-1.2-0.7-1.7C50.7,18.3,50.2,18.1,49.5,18.1L49.5,18.1z M23.3,54.2L36.1,38v16.2H23.3L23.3,54.2z"/>
	</g>
	<path class="st7" d="M33.2,79.5c-0.6,0-1.2-0.2-1.7-0.7c-0.5-0.5-0.7-1-0.7-1.7v-9H3.1c-0.6,0-1.2-0.2-1.7-0.7
		c-0.5-0.5-0.7-1-0.7-1.7v-9.3c0-1.5,0.4-2.8,1.1-3.8l26.3-33.1c0.5-0.6,1-1.1,1.4-1.3c0.4-0.2,1-0.3,1.8-0.3h13.3
		c0.6,0,1.2,0.2,1.7,0.7c0.5,0.5,0.7,1,0.7,1.7v33.7h7.6c0.6,0,1.2,0.2,1.7,0.7c0.5,0.5,0.7,1,0.7,1.7v9.3c0,0.6-0.2,1.2-0.7,1.7
		c-0.5,0.5-1,0.7-1.7,0.7H47v9c0,0.6-0.2,1.2-0.7,1.7c-0.5,0.5-1,0.7-1.7,0.7H33.2z M31.2,54.2V38L18.4,54.2H31.2z"/>
	<g>
		<g>
			<path class="st2" d="M180.3,19.1c0.4,0,0.7,0.1,1,0.4c0.3,0.3,0.4,0.6,0.4,1v33.7v1h1h7.6c0.4,0,0.7,0.1,1,0.4
				c0.3,0.3,0.4,0.6,0.4,1v9.3c0,0.4-0.1,0.7-0.4,1c-0.3,0.3-0.6,0.4-1,0.4h-7.6h-1v1v9c0,0.4-0.1,0.7-0.4,1c-0.3,0.3-0.6,0.4-1,0.4
				h-11.5c-0.4,0-0.7-0.1-1-0.4c-0.3-0.3-0.4-0.6-0.4-1v-9v-1h-1h-27.7c-0.4,0-0.7-0.1-1-0.4c-0.3-0.3-0.4-0.6-0.4-1v-9.3
				c0-1.3,0.3-2.3,0.9-3.2l26.2-33.1c0.6-0.7,0.9-0.9,1.1-1c0.2-0.1,0.6-0.2,1.4-0.2H180.3 M152,55.2h2.1h12.8h1v-1V38v-2.9
				l-1.8,2.2l-12.8,16.2L152,55.2 M180.3,18.1h-13.3c-0.8,0-1.4,0.1-1.8,0.3c-0.4,0.2-0.9,0.6-1.4,1.3l-26.3,33.1
				c-0.8,1-1.1,2.3-1.1,3.8v9.3c0,0.6,0.2,1.2,0.7,1.7c0.5,0.5,1,0.7,1.7,0.7h27.7v9c0,0.6,0.2,1.2,0.7,1.7c0.5,0.5,1,0.7,1.7,0.7
				h11.5c0.6,0,1.2-0.2,1.7-0.7c0.5-0.5,0.7-1,0.7-1.7v-9h7.6c0.6,0,1.2-0.2,1.7-0.7c0.5-0.5,0.7-1,0.7-1.7v-9.3
				c0-0.6-0.2-1.2-0.7-1.7c-0.5-0.5-1-0.7-1.7-0.7h-7.6V20.4c0-0.6-0.2-1.2-0.7-1.7C181.5,18.3,181,18.1,180.3,18.1L180.3,18.1z
				 M154.1,54.2L166.9,38v16.2H154.1L154.1,54.2z"/>
		</g>
		<path class="st7" d="M164.2,79.5c-0.6,0-1.2-0.2-1.7-0.7c-0.5-0.5-0.7-1-0.7-1.7v-9h-27.7c-0.6,0-1.2-0.2-1.7-0.7
			c-0.5-0.5-0.7-1-0.7-1.7v-9.3c0-1.5,0.4-2.8,1.1-3.8l26.3-33.1c0.5-0.6,1-1.1,1.4-1.3c0.4-0.2,1-0.3,1.8-0.3h13.3
			c0.6,0,1.2,0.2,1.7,0.7c0.5,0.5,0.7,1,0.7,1.7v33.7h7.6c0.6,0,1.2,0.2,1.7,0.7c0.5,0.5,0.7,1,0.7,1.7v9.3c0,0.6-0.2,1.2-0.7,1.7
			c-0.5,0.5-1,0.7-1.7,0.7h-7.6v9c0,0.6-0.2,1.2-0.7,1.7c-0.5,0.5-1,0.7-1.7,0.7H164.2z M162.3,54.2V38l-12.8,16.2H162.3z"/>
	</g>
	<path class="st5" d="M137.2,79.5c0,0.8-0.7,1.5-1.5,1.5H68.2c-0.8,0-1.5-0.7-1.5-1.5l0,0c0-0.8,0.7-1.5,1.5-1.5h67.5
		C136.5,78,137.2,78.6,137.2,79.5L137.2,79.5z"/>
</g>
</svg>
