<?xml version="1.0" encoding="utf-8"?>
<!-- Generator: Adobe Illustrator 25.0.1, SVG Export Plug-In . SVG Version: 6.00 Build 0)  -->
<svg version="1.1" id="Layer_1" focusable="false" xmlns="http://www.w3.org/2000/svg" xmlns:xlink="http://www.w3.org/1999/xlink"
	 x="0px" y="0px" viewBox="0 0 512 512" style="enable-background:new 0 0 512 512;" xml:space="preserve">
<style type="text/css">
	.st0{fill:#B53683;}
</style>
<path class="st0" d="M328.2,280l108.3-108.3c13.3-13.3,13.3-34.8,0-48.1l-24.1-24.1c-13.3-13.3-34.8-13.3-48.1,0L256,207.8
	L147.7,99.5c-13.3-13.3-34.8-13.3-48.1,0l-24.1,24c-13.3,13.3-13.3,34.8,0,48.1L183.8,280L75.5,388.3c-13.3,13.3-13.3,34.8,0,48.1
	l24.1,24.1c13.3,13.3,34.9,13.3,48.1,0L256,352.2l108.3,108.3c13.3,13.3,34.9,13.3,48.1,0l24.1-24.1c13.3-13.3,13.3-34.8,0-48.1
	L328.2,280z"/>
</svg>
