<?xml version="1.0" encoding="utf-8"?>
<!-- Generator: Adobe Illustrator 25.0.0, SVG Export Plug-In . SVG Version: 6.00 Build 0)  -->
<svg version="1.1" id="Layer_1" xmlns="http://www.w3.org/2000/svg" xmlns:xlink="http://www.w3.org/1999/xlink" x="0px" y="0px"
	 viewBox="0 0 360 93.7" style="enable-background:new 0 0 360 93.7;" xml:space="preserve">
<style type="text/css">
	.st0{fill:url(#SVGID_1_);}
	.st1{fill:url(#SVGID_2_);}
</style>
<linearGradient id="SVGID_1_" gradientUnits="userSpaceOnUse" x1="36.7342" y1="-62.2786" x2="312.7144" y2="102.065">
	<stop  offset="0" style="stop-color:#203651"/>
	<stop  offset="1" style="stop-color:#466281"/>
</linearGradient>
<path class="st0" d="M27.7,35.9C18,30.3,8.8,24.1,0,17.6v28c5.3,3.5,10.7,6.9,16.2,10.1c114.3,66,255.5,43.2,343.8-47V0
	C271.3,80.8,137.2,99.1,27.7,35.9z"/>
<linearGradient id="SVGID_2_" gradientUnits="userSpaceOnUse" x1="366.1016" y1="72.9561" x2="6.6686" y2="-19.2813">
	<stop  offset="0" style="stop-color:#203651"/>
	<stop  offset="1" style="stop-color:#466281"/>
</linearGradient>
<path class="st1" d="M27.7,35.9C18,30.3,8.8,24.1,0,17.6v18.5c114.8,70.8,260.3,57.2,360-27.4c0,0,0,0,0,0V0
	C271.3,80.8,137.2,99.1,27.7,35.9z"/>
</svg>
