<?xml version="1.0" encoding="utf-8"?>
<!-- Generator: Adobe Illustrator 25.0.1, SVG Export Plug-In . SVG Version: 6.00 Build 0)  -->
<svg version="1.1" id="Layer_1" xmlns="http://www.w3.org/2000/svg" xmlns:xlink="http://www.w3.org/1999/xlink" x="0px" y="0px"
	 viewBox="0 0 400 400" style="enable-background:new 0 0 400 400;" xml:space="preserve">
<style type="text/css">
	.st0{fill:#E4E7EB;}
	.st1{clip-path:url(#SVGID_2_);}
	.st2{fill:#FFFFFF;}
	.st3{fill:#152C48;}
	.st4{fill:#B63583;}
</style>
<circle class="st0" cx="203.9" cy="221" r="129.3"/>
<g>
	<defs>
		<path id="SVGID_1_" d="M333.1,221c0,71.4-57.9,129.3-129.3,129.3S74.6,292.4,74.6,221c0-37.2,0-184.8,0-184.8h258.5
			C333.1,36.2,333.1,149.6,333.1,221z"/>
	</defs>
	<clipPath id="SVGID_2_">
		<use xlink:href="#SVGID_1_"  style="overflow:visible;"/>
	</clipPath>
	<g class="st1">
		
			<image style="overflow:visible;opacity:0.35;" width="942" height="1370" xlink:href="9CCACF50.png"  transform="matrix(0.24 0 0 0.24 90.8892 38.5692)">
		</image>
		<g>
			<path class="st2" d="M287.2,351.5H120.6c-9.4,0-17.1-7.7-17.1-17.1V65c0-9.4,7.7-17.1,17.1-17.1h166.5c9.4,0,17.1,7.7,17.1,17.1
				v269.4C304.3,343.8,296.6,351.5,287.2,351.5z"/>
		</g>
	</g>
	<g class="st1">
		<path class="st0" d="M304.3,101.4H103.5V55.1c0-4,3.2-7.2,7.2-7.2h186.4c4,0,7.2,3.2,7.2,7.2V101.4z"/>
	</g>
</g>
<g>
	<path class="st3" d="M129,69.9v9.7h-1.8l-4.8-5.9v5.9h-2.2v-9.7h1.9l4.8,5.9v-5.9H129z"/>
	<path class="st3" d="M130.6,75.9c0-2.2,1.7-3.8,4.1-3.8s4.1,1.6,4.1,3.8c0,2.2-1.7,3.8-4.1,3.8S130.6,78.1,130.6,75.9z M136.6,75.9
		c0-1.3-0.8-2.1-1.9-2.1s-1.9,0.8-1.9,2.1c0,1.3,0.8,2.1,1.9,2.1S136.6,77.1,136.6,75.9z"/>
	<path class="st3" d="M145,79.2c-0.4,0.3-1.1,0.5-1.8,0.5c-1.8,0-2.8-0.9-2.8-2.7V74h-1.1v-1.7h1.1v-1.8h2.2v1.8h1.9V74h-1.9v3
		c0,0.6,0.3,1,0.9,1c0.3,0,0.6-0.1,0.9-0.3L145,79.2z"/>
	<path class="st3" d="M146,69.9c0-0.7,0.5-1.2,1.3-1.2s1.3,0.5,1.3,1.2c0,0.7-0.5,1.2-1.3,1.2S146,70.6,146,69.9z M146.3,72.1h2.2
		v7.5h-2.2V72.1z"/>
	<path class="st3" d="M152.8,72v0.3h1.9V74h-1.9v5.6h-2.2V74h-1.1v-1.7h1.1V72c0-1.7,1-2.8,2.9-2.8c0.6,0,1.2,0.1,1.6,0.4l-0.6,1.6
		c-0.2-0.2-0.5-0.3-0.9-0.3C153.1,70.9,152.8,71.2,152.8,72z M156.6,69.9c0-0.7,0.5-1.2,1.3-1.2s1.3,0.5,1.3,1.2
		c0,0.7-0.5,1.2-1.3,1.2S156.6,70.6,156.6,69.9z M156.9,72.1h2.2v7.5h-2.2V72.1z"/>
	<path class="st3" d="M160.5,75.9c0-2.2,1.7-3.8,4.2-3.8c1.6,0,2.8,0.7,3.3,1.9l-1.7,0.9c-0.4-0.7-1-1-1.7-1c-1.1,0-2,0.8-2,2.1
		c0,1.3,0.9,2.1,2,2.1c0.7,0,1.3-0.3,1.7-1l1.7,0.9c-0.5,1.2-1.8,1.9-3.3,1.9C162.3,79.7,160.5,78.1,160.5,75.9z"/>
	<path class="st3" d="M175.9,75.3v4.3h-2v-0.9c-0.4,0.7-1.2,1-2.3,1c-1.7,0-2.8-1-2.8-2.3c0-1.3,0.9-2.2,3.2-2.2h1.7
		c0-0.9-0.6-1.5-1.7-1.5c-0.8,0-1.6,0.3-2.1,0.7l-0.8-1.5c0.8-0.6,2-0.9,3.2-0.9C174.5,72,175.9,73.1,175.9,75.3z M173.7,77.2v-0.8
		h-1.5c-1,0-1.3,0.4-1.3,0.9c0,0.5,0.5,0.9,1.2,0.9C172.8,78.2,173.4,77.9,173.7,77.2z"/>
	<path class="st3" d="M182.6,79.2c-0.4,0.3-1.1,0.5-1.8,0.5c-1.8,0-2.8-0.9-2.8-2.7V74h-1.1v-1.7h1.1v-1.8h2.2v1.8h1.9V74h-1.9v3
		c0,0.6,0.3,1,0.9,1c0.3,0,0.6-0.1,0.9-0.3L182.6,79.2z"/>
	<path class="st3" d="M183.6,69.9c0-0.7,0.5-1.2,1.3-1.2s1.3,0.5,1.3,1.2c0,0.7-0.5,1.2-1.3,1.2S183.6,70.6,183.6,69.9z M183.8,72.1
		h2.2v7.5h-2.2V72.1z"/>
	<path class="st3" d="M187.5,75.9c0-2.2,1.7-3.8,4.1-3.8c2.4,0,4.1,1.6,4.1,3.8c0,2.2-1.7,3.8-4.1,3.8
		C189.2,79.7,187.5,78.1,187.5,75.9z M193.5,75.9c0-1.3-0.8-2.1-1.9-2.1c-1.1,0-1.9,0.8-1.9,2.1c0,1.3,0.8,2.1,1.9,2.1
		C192.6,77.9,193.5,77.1,193.5,75.9z"/>
	<path class="st3" d="M204.7,75.3v4.3h-2.2v-3.9c0-1.2-0.6-1.8-1.5-1.8c-1,0-1.8,0.6-1.8,2v3.7h-2.2v-7.5h2.1V73
		c0.6-0.6,1.5-1,2.5-1C203.4,72,204.7,73,204.7,75.3z"/>
	<path class="st3" d="M205.9,78.9l0.7-1.6c0.7,0.4,1.7,0.7,2.6,0.7c1,0,1.4-0.3,1.4-0.7c0-1.2-4.5,0-4.5-3c0-1.4,1.3-2.4,3.4-2.4
		c1,0,2.2,0.2,2.9,0.7l-0.7,1.5c-0.7-0.4-1.5-0.6-2.1-0.6c-1,0-1.4,0.3-1.4,0.7c0,1.3,4.5,0,4.5,3c0,1.4-1.3,2.4-3.5,2.4
		C207.9,79.7,206.6,79.3,205.9,78.9z"/>
</g>
<g>
	<path class="st3" d="M160.2,135.5l0-4.2l-2,3.4h-0.7l-2-3.3v4.1h-1.5v-6.9h1.3l2.6,4.3l2.6-4.3h1.3l0,6.9H160.2z"/>
	<path class="st3" d="M163.1,128.5c0-0.5,0.4-0.9,1-0.9c0.6,0,1,0.4,1,0.8c0,0.5-0.4,0.9-1,0.9C163.4,129.4,163.1,129,163.1,128.5z
		 M163.2,130.1h1.5v5.3h-1.5V130.1z"/>
	<path class="st3" d="M165.7,135l0.5-1.1c0.5,0.3,1.2,0.5,1.9,0.5c0.7,0,1-0.2,1-0.5c0-0.9-3.2,0-3.2-2.1c0-1,0.9-1.7,2.5-1.7
		c0.7,0,1.5,0.2,2.1,0.5l-0.5,1.1c-0.5-0.3-1.1-0.4-1.5-0.4c-0.7,0-1,0.2-1,0.5c0,0.9,3.2,0,3.2,2.1c0,1-0.9,1.7-2.5,1.7
		C167.1,135.5,166.2,135.3,165.7,135z"/>
	<path class="st3" d="M171,135l0.5-1.1c0.5,0.3,1.2,0.5,1.9,0.5c0.7,0,1-0.2,1-0.5c0-0.9-3.2,0-3.2-2.1c0-1,0.9-1.7,2.5-1.7
		c0.7,0,1.5,0.2,2.1,0.5l-0.5,1.1c-0.5-0.3-1.1-0.4-1.5-0.4c-0.7,0-1,0.2-1,0.5c0,0.9,3.2,0,3.2,2.1c0,1-0.9,1.7-2.5,1.7
		C172.4,135.5,171.5,135.3,171,135z"/>
	<path class="st3" d="M181.9,133.2h-4c0.1,0.7,0.7,1.1,1.5,1.1c0.6,0,1-0.2,1.3-0.5l0.8,0.9c-0.5,0.6-1.2,0.9-2.2,0.9
		c-1.8,0-3-1.2-3-2.7c0-1.6,1.2-2.7,2.8-2.7c1.6,0,2.8,1.1,2.8,2.8C182,132.9,182,133.1,181.9,133.2z M177.9,132.3h2.6
		c-0.1-0.7-0.6-1.1-1.3-1.1C178.5,131.2,178,131.6,177.9,132.3z"/>
	<path class="st3" d="M188.4,128.1v7.4H187v-0.6c-0.4,0.5-1,0.7-1.7,0.7c-1.5,0-2.7-1.1-2.7-2.7c0-1.7,1.2-2.7,2.7-2.7
		c0.7,0,1.2,0.2,1.6,0.6v-2.6H188.4z M186.9,132.8c0-0.9-0.6-1.5-1.4-1.5c-0.8,0-1.4,0.6-1.4,1.5c0,0.9,0.6,1.5,1.4,1.5
		C186.3,134.3,186.9,133.7,186.9,132.8z"/>
	<path class="st3" d="M192.3,132.8c0-1.6,1.2-2.7,3-2.7c1.1,0,2,0.5,2.4,1.4l-1.2,0.6c-0.3-0.5-0.7-0.7-1.2-0.7
		c-0.8,0-1.4,0.5-1.4,1.5c0,0.9,0.6,1.5,1.4,1.5c0.5,0,0.9-0.2,1.2-0.7l1.2,0.7c-0.4,0.9-1.3,1.3-2.4,1.3
		C193.5,135.5,192.3,134.4,192.3,132.8z"/>
	<path class="st3" d="M203.2,132.4v3h-1.4v-0.7c-0.3,0.5-0.8,0.7-1.6,0.7c-1.2,0-2-0.7-2-1.6c0-0.9,0.7-1.6,2.3-1.6h1.2
		c0-0.7-0.4-1-1.2-1c-0.6,0-1.1,0.2-1.5,0.5l-0.6-1.1c0.6-0.4,1.4-0.6,2.3-0.6C202.3,130.1,203.2,130.8,203.2,132.4z M201.7,133.8
		v-0.5h-1.1c-0.7,0-1,0.3-1,0.6c0,0.4,0.3,0.6,0.9,0.6C201.1,134.5,201.5,134.3,201.7,133.8z"/>
	<path class="st3" d="M204.6,128.1h1.5v7.4h-1.5V128.1z"/>
	<path class="st3" d="M207.6,128.1h1.5v7.4h-1.5V128.1z"/>
	<path class="st3" d="M160.2,183.8c0,1.2-1,1.9-2.8,1.9h-3.6v-6.9h3.4c1.7,0,2.6,0.7,2.6,1.8c0,0.7-0.4,1.2-0.9,1.5
		C159.8,182.3,160.2,182.9,160.2,183.8z M155.5,180v1.6h1.6c0.8,0,1.2-0.3,1.2-0.8s-0.4-0.8-1.2-0.8H155.5z M158.6,183.6
		c0-0.6-0.4-0.9-1.3-0.9h-1.9v1.7h1.9C158.2,184.5,158.6,184.2,158.6,183.6z"/>
	<path class="st3" d="M161.2,178.8c0-0.5,0.4-0.9,1-0.9c0.6,0,1,0.4,1,0.8c0,0.5-0.4,0.9-1,0.9C161.6,179.6,161.2,179.2,161.2,178.8
		z M161.4,180.4h1.5v5.3h-1.5V180.4z"/>
	<path class="st3" d="M164.3,178.3h1.5v7.4h-1.5V178.3z"/>
	<path class="st3" d="M167.3,178.3h1.5v7.4h-1.5V178.3z"/>
	<path class="st3" d="M172.7,183c0-1.6,1.2-2.7,2.9-2.7c1.7,0,2.9,1.1,2.9,2.7c0,1.6-1.2,2.7-2.9,2.7
		C174,185.8,172.7,184.6,172.7,183z M177,183c0-0.9-0.6-1.5-1.4-1.5c-0.8,0-1.4,0.6-1.4,1.5c0,0.9,0.6,1.5,1.4,1.5
		C176.4,184.5,177,183.9,177,183z"/>
	<path class="st3" d="M184.8,180.4l-2.2,5.3h-1.6l-2.2-5.3h1.6l1.5,3.6l1.5-3.6H184.8z"/>
	<path class="st3" d="M190.4,183.5h-4c0.1,0.7,0.7,1.1,1.5,1.1c0.6,0,1-0.2,1.3-0.5l0.8,0.9c-0.5,0.6-1.2,0.9-2.2,0.9
		c-1.8,0-3-1.2-3-2.7c0-1.6,1.2-2.7,2.8-2.7c1.6,0,2.8,1.1,2.8,2.8C190.5,183.2,190.4,183.3,190.4,183.5z M186.4,182.6h2.6
		c-0.1-0.7-0.6-1.1-1.3-1.1C187,181.4,186.5,181.9,186.4,182.6z"/>
	<path class="st3" d="M194.8,180.3v1.4c-0.1,0-0.2,0-0.3,0c-0.9,0-1.4,0.5-1.4,1.5v2.5h-1.5v-5.3h1.5v0.7
		C193.3,180.5,194,180.3,194.8,180.3z"/>
	<path class="st3" d="M201.1,178.3v7.4h-1.5v-0.6c-0.4,0.5-1,0.7-1.7,0.7c-1.5,0-2.7-1.1-2.7-2.7c0-1.7,1.2-2.7,2.7-2.7
		c0.7,0,1.2,0.2,1.6,0.6v-2.6H201.1z M199.6,183c0-0.9-0.6-1.5-1.4-1.5c-0.8,0-1.4,0.6-1.4,1.5c0,0.9,0.6,1.5,1.4,1.5
		C199,184.5,199.6,183.9,199.6,183z"/>
	<path class="st3" d="M207.9,180.4v5.3h-1.5v-0.6c-0.4,0.5-1,0.7-1.7,0.7c-1.3,0-2.3-0.8-2.3-2.4v-3h1.5v2.8c0,0.9,0.4,1.3,1.1,1.3
		c0.7,0,1.2-0.5,1.2-1.4v-2.6H207.9z"/>
	<path class="st3" d="M214.5,183.5h-4c0.1,0.7,0.7,1.1,1.5,1.1c0.6,0,1-0.2,1.3-0.5l0.8,0.9c-0.5,0.6-1.2,0.9-2.2,0.9
		c-1.8,0-3-1.2-3-2.7c0-1.6,1.2-2.7,2.8-2.7c1.6,0,2.8,1.1,2.8,2.8C214.6,183.2,214.5,183.3,214.5,183.5z M210.5,182.6h2.6
		c-0.1-0.7-0.6-1.1-1.3-1.1C211.1,181.4,210.6,181.9,210.5,182.6z"/>
	<path class="st3" d="M160.2,235.9l0-4.2l-2,3.4h-0.7l-2-3.3v4.1h-1.5V229h1.3l2.6,4.3l2.6-4.3h1.3l0,6.9H160.2z"/>
	<path class="st3" d="M163.1,229c0-0.5,0.4-0.9,1-0.9c0.6,0,1,0.4,1,0.8c0,0.5-0.4,0.9-1,0.9C163.4,229.8,163.1,229.5,163.1,229z
		 M163.2,230.6h1.5v5.3h-1.5V230.6z"/>
	<path class="st3" d="M165.7,235.4l0.5-1.1c0.5,0.3,1.2,0.5,1.9,0.5c0.7,0,1-0.2,1-0.5c0-0.9-3.2,0-3.2-2.1c0-1,0.9-1.7,2.5-1.7
		c0.7,0,1.5,0.2,2.1,0.5l-0.5,1.1c-0.5-0.3-1.1-0.4-1.5-0.4c-0.7,0-1,0.2-1,0.5c0,0.9,3.2,0,3.2,2.1c0,1-0.9,1.7-2.5,1.7
		C167.1,236,166.2,235.7,165.7,235.4z"/>
	<path class="st3" d="M171,235.4l0.5-1.1c0.5,0.3,1.2,0.5,1.9,0.5c0.7,0,1-0.2,1-0.5c0-0.9-3.2,0-3.2-2.1c0-1,0.9-1.7,2.5-1.7
		c0.7,0,1.5,0.2,2.1,0.5l-0.5,1.1c-0.5-0.3-1.1-0.4-1.5-0.4c-0.7,0-1,0.2-1,0.5c0,0.9,3.2,0,3.2,2.1c0,1-0.9,1.7-2.5,1.7
		C172.4,236,171.5,235.7,171,235.4z"/>
	<path class="st3" d="M181.9,233.7h-4c0.1,0.7,0.7,1.1,1.5,1.1c0.6,0,1-0.2,1.3-0.5l0.8,0.9c-0.5,0.6-1.2,0.9-2.2,0.9
		c-1.8,0-3-1.2-3-2.7c0-1.6,1.2-2.7,2.8-2.7c1.6,0,2.8,1.1,2.8,2.8C182,233.4,182,233.6,181.9,233.7z M177.9,232.8h2.6
		c-0.1-0.7-0.6-1.1-1.3-1.1C178.5,231.7,178,232.1,177.9,232.8z"/>
	<path class="st3" d="M188.4,228.6v7.4H187v-0.6c-0.4,0.5-1,0.7-1.7,0.7c-1.5,0-2.7-1.1-2.7-2.7c0-1.7,1.2-2.7,2.7-2.7
		c0.7,0,1.2,0.2,1.6,0.6v-2.6H188.4z M186.9,233.2c0-0.9-0.6-1.5-1.4-1.5c-0.8,0-1.4,0.6-1.4,1.5c0,0.9,0.6,1.5,1.4,1.5
		C186.3,234.7,186.9,234.2,186.9,233.2z"/>
	<path class="st3" d="M198.5,233.2c0,1.7-1.2,2.7-2.7,2.7c-0.7,0-1.2-0.2-1.6-0.6v2.5h-1.5v-7.3h1.5v0.6c0.4-0.5,1-0.7,1.7-0.7
		C197.3,230.5,198.5,231.6,198.5,233.2z M196.9,233.2c0-0.9-0.6-1.5-1.4-1.5s-1.4,0.6-1.4,1.5c0,0.9,0.6,1.5,1.4,1.5
		S196.9,234.2,196.9,233.2z"/>
	<path class="st3" d="M204.1,232.9v3h-1.4v-0.7c-0.3,0.5-0.8,0.7-1.6,0.7c-1.2,0-2-0.7-2-1.6c0-0.9,0.7-1.6,2.3-1.6h1.2
		c0-0.7-0.4-1.1-1.2-1.1c-0.6,0-1.1,0.2-1.5,0.5l-0.6-1.1c0.6-0.4,1.4-0.6,2.3-0.6C203.2,230.5,204.1,231.3,204.1,232.9z
		 M202.6,234.2v-0.5h-1.1c-0.7,0-1,0.3-1,0.6c0,0.4,0.3,0.6,0.9,0.6C202,234.9,202.4,234.7,202.6,234.2z"/>
	<path class="st3" d="M210.7,230.6l-2.4,5.7c-0.5,1.3-1.2,1.7-2.2,1.7c-0.5,0-1.1-0.2-1.5-0.5l0.6-1.1c0.2,0.2,0.6,0.3,0.9,0.3
		c0.4,0,0.7-0.2,0.9-0.7l0-0.1l-2.3-5.4h1.6l1.5,3.6l1.5-3.6H210.7z"/>
	<path class="st3" d="M220.4,232.9v3.1h-1.5v-2.8c0-0.9-0.4-1.3-1-1.3c-0.7,0-1.2,0.4-1.2,1.4v2.7h-1.5v-2.8c0-0.9-0.4-1.3-1-1.3
		c-0.7,0-1.2,0.4-1.2,1.4v2.7h-1.5v-5.3h1.5v0.6c0.4-0.5,1-0.7,1.7-0.7c0.7,0,1.4,0.3,1.8,0.9c0.4-0.5,1.1-0.9,1.9-0.9
		C219.5,230.5,220.4,231.2,220.4,232.9z"/>
	<path class="st3" d="M227,233.7h-4c0.1,0.7,0.7,1.1,1.5,1.1c0.6,0,1-0.2,1.3-0.5l0.8,0.9c-0.5,0.6-1.2,0.9-2.2,0.9
		c-1.8,0-3-1.2-3-2.7c0-1.6,1.2-2.7,2.8-2.7c1.6,0,2.8,1.1,2.8,2.8C227,233.4,227,233.6,227,233.7z M223,232.8h2.6
		c-0.1-0.7-0.6-1.1-1.3-1.1C223.6,231.7,223.1,232.1,223,232.8z"/>
	<path class="st3" d="M233.5,232.9v3.1H232v-2.8c0-0.9-0.4-1.3-1.1-1.3c-0.7,0-1.3,0.5-1.3,1.4v2.6h-1.5v-5.3h1.5v0.6
		c0.4-0.5,1-0.7,1.8-0.7C232.6,230.5,233.5,231.2,233.5,232.9z"/>
	<path class="st3" d="M238.4,235.7c-0.3,0.2-0.8,0.3-1.3,0.3c-1.3,0-2-0.6-2-1.9v-2.2h-0.8v-1.2h0.8v-1.3h1.5v1.3h1.3v1.2h-1.3v2.2
		c0,0.5,0.2,0.7,0.7,0.7c0.2,0,0.5-0.1,0.6-0.2L238.4,235.7z"/>
	<path class="st3" d="M160.2,284.2c0,1.2-1,1.9-2.8,1.9h-3.6v-6.9h3.4c1.7,0,2.6,0.7,2.6,1.8c0,0.7-0.4,1.2-0.9,1.5
		C159.8,282.8,160.2,283.4,160.2,284.2z M155.5,280.4v1.6h1.6c0.8,0,1.2-0.3,1.2-0.8c0-0.5-0.4-0.8-1.2-0.8H155.5z M158.6,284.1
		c0-0.6-0.4-0.9-1.3-0.9h-1.9v1.7h1.9C158.2,284.9,158.6,284.7,158.6,284.1z"/>
	<path class="st3" d="M161.2,279.2c0-0.5,0.4-0.9,1-0.9c0.6,0,1,0.4,1,0.8c0,0.5-0.4,0.9-1,0.9C161.6,280.1,161.2,279.7,161.2,279.2
		z M161.4,280.8h1.5v5.3h-1.5V280.8z"/>
	<path class="st3" d="M164.3,278.8h1.5v7.4h-1.5V278.8z"/>
	<path class="st3" d="M167.3,278.8h1.5v7.4h-1.5V278.8z"/>
	<path class="st3" d="M172.7,283.5c0-1.6,1.2-2.7,2.9-2.7c1.7,0,2.9,1.1,2.9,2.7c0,1.6-1.2,2.7-2.9,2.7
		C174,286.2,172.7,285.1,172.7,283.5z M177,283.5c0-0.9-0.6-1.5-1.4-1.5c-0.8,0-1.4,0.6-1.4,1.5c0,0.9,0.6,1.5,1.4,1.5
		C176.4,284.9,177,284.4,177,283.5z"/>
	<path class="st3" d="M184.8,280.8l-2.2,5.3h-1.6l-2.2-5.3h1.6l1.5,3.6l1.5-3.6H184.8z"/>
	<path class="st3" d="M190.4,283.9h-4c0.1,0.7,0.7,1.1,1.5,1.1c0.6,0,1-0.2,1.3-0.5l0.8,0.9c-0.5,0.6-1.2,0.9-2.2,0.9
		c-1.8,0-3-1.2-3-2.7c0-1.6,1.2-2.7,2.8-2.7c1.6,0,2.8,1.1,2.8,2.8C190.5,283.6,190.4,283.8,190.4,283.9z M186.4,283h2.6
		c-0.1-0.7-0.6-1.1-1.3-1.1C187,281.9,186.5,282.3,186.4,283z"/>
	<path class="st3" d="M194.8,280.7v1.4c-0.1,0-0.2,0-0.3,0c-0.9,0-1.4,0.5-1.4,1.5v2.5h-1.5v-5.3h1.5v0.7
		C193.3,281,194,280.7,194.8,280.7z"/>
	<path class="st3" d="M201.1,278.8v7.4h-1.5v-0.6c-0.4,0.5-1,0.7-1.7,0.7c-1.5,0-2.7-1.1-2.7-2.7c0-1.7,1.2-2.7,2.7-2.7
		c0.7,0,1.2,0.2,1.6,0.6v-2.6H201.1z M199.6,283.5c0-0.9-0.6-1.5-1.4-1.5c-0.8,0-1.4,0.6-1.4,1.5c0,0.9,0.6,1.5,1.4,1.5
		C199,284.9,199.6,284.4,199.6,283.5z"/>
	<path class="st3" d="M207.9,280.8v5.3h-1.5v-0.6c-0.4,0.5-1,0.7-1.7,0.7c-1.3,0-2.3-0.8-2.3-2.4v-3h1.5v2.8c0,0.9,0.4,1.3,1.1,1.3
		c0.7,0,1.2-0.5,1.2-1.4v-2.6H207.9z"/>
	<path class="st3" d="M214.5,283.9h-4c0.1,0.7,0.7,1.1,1.5,1.1c0.6,0,1-0.2,1.3-0.5l0.8,0.9c-0.5,0.6-1.2,0.9-2.2,0.9
		c-1.8,0-3-1.2-3-2.7c0-1.6,1.2-2.7,2.8-2.7c1.6,0,2.8,1.1,2.8,2.8C214.6,283.6,214.5,283.8,214.5,283.9z M210.5,283h2.6
		c-0.1-0.7-0.6-1.1-1.3-1.1C211.1,281.9,210.6,282.3,210.5,283z"/>
</g>
<g>
	<circle class="st4" cx="131.1" cy="130.5" r="12.1"/>
	<path class="st2" d="M135.7,132.6l-2.2-0.9c-0.2-0.1-0.4,0-0.5,0.1l-1,1.2c-1.5-0.7-2.7-1.9-3.4-3.4l1.2-1c0.2-0.1,0.2-0.4,0.1-0.5
		l-0.9-2.2c-0.1-0.2-0.3-0.3-0.5-0.3l-2,0.5c-0.2,0-0.4,0.2-0.4,0.5c0,5,4,9,9,9c0.2,0,0.4-0.1,0.5-0.4l0.5-2
		C136.1,132.9,135.9,132.7,135.7,132.6L135.7,132.6z"/>
</g>
<g>
	<circle class="st4" cx="131.1" cy="181.5" r="12.1"/>
	<path class="st2" d="M132.6,184.9c0,0.9-0.7,1.5-1.5,1.5s-1.5-0.7-1.5-1.5s0.7-1.5,1.5-1.5S132.6,184,132.6,184.9z M129.7,177
		l0.3,5.3c0,0.2,0.2,0.4,0.5,0.4h1.3c0.2,0,0.5-0.2,0.5-0.4l0.3-5.3c0-0.3-0.2-0.5-0.5-0.5h-1.8C129.9,176.5,129.7,176.8,129.7,177z
		"/>
</g>
<g>
	<circle class="st4" cx="131.1" cy="232.5" r="12.1"/>
	<path class="st2" d="M132.6,235.9c0,0.9-0.7,1.5-1.5,1.5s-1.5-0.7-1.5-1.5s0.7-1.5,1.5-1.5S132.6,235,132.6,235.9z M129.7,228
		l0.3,5.3c0,0.2,0.2,0.4,0.5,0.4h1.3c0.2,0,0.5-0.2,0.5-0.4l0.3-5.3c0-0.3-0.2-0.5-0.5-0.5h-1.8C129.9,227.5,129.7,227.7,129.7,228z
		"/>
</g>
<g>
	<circle class="st4" cx="131.1" cy="283.4" r="12.1"/>
	<path class="st2" d="M132.6,286.8c0,0.9-0.7,1.5-1.5,1.5s-1.5-0.7-1.5-1.5s0.7-1.5,1.5-1.5S132.6,286,132.6,286.8z M129.7,279
		l0.3,5.3c0,0.2,0.2,0.4,0.5,0.4h1.3c0.2,0,0.5-0.2,0.5-0.4l0.3-5.3c0-0.3-0.2-0.5-0.5-0.5h-1.8C129.9,278.5,129.7,278.7,129.7,279z
		"/>
</g>
<g>
	
		<image style="overflow:visible;opacity:0.35;" width="620" height="372" xlink:href="9CCACF53.png"  transform="matrix(0.24 0 0 0.24 207.9765 187.3365)">
	</image>
	<g>
		<path class="st3" d="M344.2,269.8H220.5c-4,0-7.2-3.2-7.2-7.2v-64c0-4,3.2-7.2,7.2-7.2h123.7c4,0,7.2,3.2,7.2,7.2v64
			C351.4,266.6,348.2,269.8,344.2,269.8z"/>
	</g>
</g>
<g>
	<path class="st0" d="M351.4,221.3H213.3v-25.4c0-2.5,2-4.5,4.5-4.5H347c2.5,0,4.5,2,4.5,4.5V221.3z"/>
</g>
<g>
	<g>
		<path class="st3" d="M256,203.1h3.2c2.3,0,3.8,1.4,3.8,3.5c0,2.1-1.6,3.5-3.8,3.5H256V203.1z M259.1,208.7c1.4,0,2.3-0.8,2.3-2.1
			s-0.9-2.1-2.3-2.1h-1.5v4.3H259.1z"/>
		<path class="st3" d="M269.3,207.8h-4c0.1,0.7,0.7,1.1,1.5,1.1c0.6,0,1-0.2,1.3-0.5l0.8,0.9c-0.5,0.6-1.2,0.9-2.2,0.9
			c-1.8,0-3-1.2-3-2.7c0-1.6,1.2-2.7,2.8-2.7c1.6,0,2.8,1.1,2.8,2.8C269.3,207.5,269.3,207.6,269.3,207.8z M265.2,206.9h2.6
			c-0.1-0.7-0.6-1.1-1.3-1.1C265.8,205.7,265.3,206.2,265.2,206.9z"/>
		<path class="st3" d="M276.1,207.3c0,1.7-1.2,2.7-2.7,2.7c-0.7,0-1.3-0.2-1.7-0.7v0.6h-1.5v-7.4h1.5v2.6c0.4-0.4,0.9-0.6,1.6-0.6
			C275,204.6,276.1,205.6,276.1,207.3z M274.6,207.3c0-0.9-0.6-1.5-1.4-1.5c-0.8,0-1.4,0.6-1.4,1.5c0,0.9,0.6,1.5,1.4,1.5
			C274,208.8,274.6,208.2,274.6,207.3z"/>
		<path class="st3" d="M280.6,209.7c-0.3,0.2-0.8,0.3-1.3,0.3c-1.3,0-2-0.6-2-1.9V206h-0.8v-1.2h0.8v-1.3h1.5v1.3h1.3v1.2h-1.3v2.2
			c0,0.5,0.2,0.7,0.7,0.7c0.2,0,0.5-0.1,0.6-0.2L280.6,209.7z"/>
		<path class="st3" d="M289.7,206.9v3.1h-1.5v-2.8c0-0.9-0.4-1.3-1.1-1.3c-0.7,0-1.3,0.5-1.3,1.4v2.6h-1.5v-7.4h1.5v2.6
			c0.4-0.4,1-0.6,1.7-0.6C288.8,204.6,289.7,205.3,289.7,206.9z"/>
		<path class="st3" d="M296.4,207.8h-4c0.1,0.7,0.7,1.1,1.5,1.1c0.6,0,1-0.2,1.3-0.5l0.8,0.9c-0.5,0.6-1.2,0.9-2.2,0.9
			c-1.8,0-3-1.2-3-2.7c0-1.6,1.2-2.7,2.8-2.7c1.6,0,2.8,1.1,2.8,2.8C296.4,207.5,296.4,207.6,296.4,207.8z M292.3,206.9h2.6
			c-0.1-0.7-0.6-1.1-1.3-1.1C292.9,205.7,292.4,206.2,292.3,206.9z"/>
		<path class="st3" d="M297.4,202.6h1.5v7.4h-1.5V202.6z"/>
		<path class="st3" d="M306.2,207.3c0,1.7-1.2,2.7-2.7,2.7c-0.7,0-1.2-0.2-1.6-0.6v2.5h-1.5v-7.3h1.5v0.6c0.4-0.5,1-0.7,1.7-0.7
			C305.1,204.6,306.2,205.6,306.2,207.3z M304.7,207.3c0-0.9-0.6-1.5-1.4-1.5c-0.8,0-1.4,0.6-1.4,1.5c0,0.9,0.6,1.5,1.4,1.5
			C304.1,208.8,304.7,208.2,304.7,207.3z"/>
	</g>
</g>
<g>
	<path class="st2" d="M230.1,237.6L229,236h-0.1h-1.2v1.6h-1.3v-5.8h2.5c1.5,0,2.5,0.8,2.5,2.1c0,0.9-0.4,1.5-1.2,1.8l1.3,1.9H230.1
		z M228.9,233h-1.1v2h1.1c0.8,0,1.2-0.4,1.2-1C230.1,233.3,229.7,233,228.9,233z"/>
	<path class="st2" d="M236.7,235.8h-3.4c0.1,0.6,0.6,0.9,1.3,0.9c0.5,0,0.8-0.1,1.1-0.4l0.7,0.7c-0.4,0.5-1,0.7-1.8,0.7
		c-1.5,0-2.5-1-2.5-2.3c0-1.3,1-2.3,2.4-2.3c1.3,0,2.3,0.9,2.3,2.3C236.8,235.5,236.7,235.7,236.7,235.8z M233.4,235h2.2
		c-0.1-0.6-0.5-0.9-1.1-0.9C233.9,234.1,233.5,234.5,233.4,235z"/>
	<path class="st2" d="M241.4,235.1v2.5h-1.2v-0.6c-0.2,0.4-0.7,0.6-1.4,0.6c-1,0-1.7-0.6-1.7-1.3c0-0.8,0.6-1.3,1.9-1.3h1
		c0-0.6-0.3-0.9-1-0.9c-0.5,0-1,0.2-1.3,0.4l-0.5-0.9c0.5-0.3,1.2-0.5,1.9-0.5C240.6,233.1,241.4,233.8,241.4,235.1z M240.1,236.2
		v-0.5h-0.9c-0.6,0-0.8,0.2-0.8,0.5c0,0.3,0.3,0.5,0.7,0.5C239.6,236.8,240,236.6,240.1,236.2z"/>
	<path class="st2" d="M247.2,231.5v6.1h-1.2v-0.5c-0.3,0.4-0.8,0.6-1.4,0.6c-1.3,0-2.2-0.9-2.2-2.3c0-1.4,1-2.3,2.2-2.3
		c0.5,0,1,0.2,1.3,0.5v-2.2H247.2z M245.9,235.4c0-0.8-0.5-1.2-1.1-1.2c-0.6,0-1.1,0.5-1.1,1.2c0,0.8,0.5,1.2,1.1,1.2
		C245.4,236.7,245.9,236.2,245.9,235.4z"/>
	<path class="st2" d="M252.8,233.2l-2,4.7c-0.4,1.1-1,1.4-1.8,1.4c-0.5,0-0.9-0.1-1.2-0.4l0.5-0.9c0.2,0.2,0.5,0.3,0.7,0.3
		c0.4,0,0.6-0.2,0.7-0.6l0,0l-1.9-4.5h1.3l1.2,3l1.3-3H252.8z"/>
	<path class="st2" d="M257.1,233.3h1.1v1h-1.1v3.4h-1.3v-3.4h-0.7v-1h0.7v-0.2c0-1,0.6-1.7,1.7-1.7c0.4,0,0.7,0.1,1,0.2l-0.3,0.9
		c-0.1-0.1-0.3-0.2-0.5-0.2c-0.4,0-0.6,0.2-0.6,0.6V233.3z"/>
	<path class="st2" d="M258.4,235.4c0-1.3,1-2.3,2.4-2.3s2.4,0.9,2.4,2.3c0,1.3-1,2.3-2.4,2.3S258.4,236.8,258.4,235.4z M262,235.4
		c0-0.8-0.5-1.2-1.1-1.2s-1.1,0.5-1.1,1.2c0,0.8,0.5,1.2,1.1,1.2S262,236.2,262,235.4z"/>
	<path class="st2" d="M266.9,233.1v1.2c-0.1,0-0.2,0-0.3,0c-0.7,0-1.2,0.4-1.2,1.2v2.1h-1.3v-4.4h1.2v0.6
		C265.7,233.4,266.3,233.1,266.9,233.1z"/>
	<path class="st2" d="M274,235.1v2.5h-1.2v-0.6c-0.2,0.4-0.7,0.6-1.4,0.6c-1,0-1.7-0.6-1.7-1.3c0-0.8,0.6-1.3,1.9-1.3h1
		c0-0.6-0.3-0.9-1-0.9c-0.5,0-1,0.2-1.3,0.4l-0.5-0.9c0.5-0.3,1.2-0.5,1.9-0.5C273.2,233.1,274,233.8,274,235.1z M272.7,236.2v-0.5
		h-0.9c-0.6,0-0.8,0.2-0.8,0.5c0,0.3,0.3,0.5,0.7,0.5C272.2,236.8,272.6,236.6,272.7,236.2z"/>
	<path class="st2" d="M282,231.5v6.1h-1.2v-0.5c-0.3,0.4-0.8,0.6-1.4,0.6c-1.3,0-2.2-0.9-2.2-2.3c0-1.4,1-2.3,2.2-2.3
		c0.5,0,1,0.2,1.3,0.5v-2.2H282z M280.8,235.4c0-0.8-0.5-1.2-1.1-1.2c-0.6,0-1.1,0.5-1.1,1.2c0,0.8,0.5,1.2,1.1,1.2
		C280.3,236.7,280.8,236.2,280.8,235.4z"/>
	<path class="st2" d="M287.6,235.8h-3.4c0.1,0.6,0.6,0.9,1.3,0.9c0.5,0,0.8-0.1,1.1-0.4l0.7,0.7c-0.4,0.5-1,0.7-1.8,0.7
		c-1.5,0-2.5-1-2.5-2.3c0-1.3,1-2.3,2.4-2.3c1.3,0,2.3,0.9,2.3,2.3C287.6,235.5,287.6,235.7,287.6,235.8z M284.2,235h2.2
		c-0.1-0.6-0.5-0.9-1.1-0.9C284.7,234.1,284.3,234.5,284.2,235z"/>
	<path class="st2" d="M293.3,235.4c0,1.4-1,2.3-2.2,2.3c-0.6,0-1.1-0.2-1.4-0.6v0.5h-1.2v-6.1h1.3v2.2c0.3-0.4,0.8-0.5,1.3-0.5
		C292.3,233.1,293.3,234,293.3,235.4z M292,235.4c0-0.8-0.5-1.2-1.1-1.2s-1.1,0.5-1.1,1.2c0,0.8,0.5,1.2,1.1,1.2
		S292,236.2,292,235.4z"/>
	<path class="st2" d="M297,237.4c-0.3,0.2-0.7,0.3-1,0.3c-1,0-1.7-0.5-1.7-1.6v-1.8h-0.7v-1h0.7v-1.1h1.3v1.1h1.1v1h-1.1v1.8
		c0,0.4,0.2,0.6,0.6,0.6c0.2,0,0.4-0.1,0.5-0.2L297,237.4z"/>
	<path class="st2" d="M299.6,237.2l0.4-0.9c0.4,0.3,1,0.4,1.5,0.4c0.6,0,0.8-0.2,0.8-0.4c0-0.7-2.7,0-2.7-1.8c0-0.8,0.8-1.4,2.1-1.4
		c0.6,0,1.3,0.1,1.7,0.4l-0.4,0.9c-0.4-0.2-0.9-0.3-1.3-0.3c-0.6,0-0.8,0.2-0.8,0.4c0,0.8,2.7,0,2.7,1.8c0,0.8-0.8,1.4-2.1,1.4
		C300.8,237.7,300.1,237.5,299.6,237.2z"/>
	<path class="st2" d="M304.1,235.4c0-1.3,1-2.3,2.4-2.3c1.4,0,2.4,0.9,2.4,2.3c0,1.3-1,2.3-2.4,2.3
		C305.2,237.7,304.1,236.8,304.1,235.4z M307.7,235.4c0-0.8-0.5-1.2-1.1-1.2c-0.6,0-1.1,0.5-1.1,1.2c0,0.8,0.5,1.2,1.1,1.2
		C307.2,236.7,307.7,236.2,307.7,235.4z"/>
	<path class="st2" d="M309.9,231.5h1.3v6.1h-1.3V231.5z"/>
	<path class="st2" d="M316.8,233.2v4.4h-1.2v-0.5c-0.3,0.4-0.8,0.6-1.4,0.6c-1.1,0-1.9-0.6-1.9-2v-2.5h1.3v2.3
		c0,0.7,0.3,1.1,0.9,1.1c0.6,0,1-0.4,1-1.2v-2.2H316.8z"/>
	<path class="st2" d="M320.9,237.4c-0.3,0.2-0.7,0.3-1,0.3c-1,0-1.7-0.5-1.7-1.6v-1.8h-0.7v-1h0.7v-1.1h1.3v1.1h1.1v1h-1.1v1.8
		c0,0.4,0.2,0.6,0.6,0.6c0.2,0,0.4-0.1,0.5-0.2L320.9,237.4z"/>
	<path class="st2" d="M321.5,231.9c0-0.4,0.3-0.7,0.8-0.7c0.5,0,0.8,0.3,0.8,0.7c0,0.4-0.3,0.7-0.8,0.7
		C321.8,232.6,321.5,232.3,321.5,231.9z M321.6,233.2h1.3v4.4h-1.3V233.2z"/>
	<path class="st2" d="M323.8,235.4c0-1.3,1-2.3,2.4-2.3s2.4,0.9,2.4,2.3c0,1.3-1,2.3-2.4,2.3S323.8,236.8,323.8,235.4z M327.4,235.4
		c0-0.8-0.5-1.2-1.1-1.2c-0.6,0-1.1,0.5-1.1,1.2c0,0.8,0.5,1.2,1.1,1.2C326.9,236.7,327.4,236.2,327.4,235.4z"/>
	<path class="st2" d="M334.1,235.1v2.5h-1.3v-2.3c0-0.7-0.3-1-0.9-1c-0.6,0-1.1,0.4-1.1,1.2v2.2h-1.3v-4.4h1.2v0.5
		c0.3-0.4,0.9-0.6,1.5-0.6C333.3,233.1,334.1,233.8,334.1,235.1z"/>
	<path class="st2" d="M337.4,233.5c0-0.4-0.4-0.7-0.9-0.7c-0.5,0-0.9,0.2-1.2,0.6l-1-0.6c0.4-0.7,1.2-1.1,2.3-1.1
		c1.2,0,2.1,0.6,2.1,1.5c0,1.3-1.4,1.5-1.4,2.3h-1.2C336.1,234.5,337.4,234.2,337.4,233.5z M335.9,237c0-0.4,0.3-0.7,0.8-0.7
		c0.5,0,0.8,0.3,0.8,0.7c0,0.4-0.3,0.8-0.8,0.8C336.2,237.7,335.9,237.4,335.9,237z"/>
</g>
</svg>
