<?xml version="1.0" encoding="utf-8"?>
<!-- Generator: Adobe Illustrator 24.3.0, SVG Export Plug-In . SVG Version: 6.00 Build 0)  -->
<svg version="1.1" id="Layer_1" xmlns="http://www.w3.org/2000/svg" xmlns:xlink="http://www.w3.org/1999/xlink" x="0px" y="0px"
	 viewBox="0 0 248.1 30" style="enable-background:new 0 0 248.1 30;" xml:space="preserve">
<style type="text/css">
	.st0{fill:#ffffff;}
</style>
<g>
	<g>
		<path class="st0" d="M76.5,15.6h-4.3c0.2-0.9,1-1.5,2.1-1.5C75.4,14.1,76.2,14.6,76.5,15.6 M79.3,17.5v-0.3c0-3.4-2-5.6-5-5.6
			c-1.3,0-2.5,0.5-3.4,1.4c-0.9,0.9-1.4,2.1-1.4,3.4c0,1.3,0.5,2.5,1.4,3.4c1,1,2.1,1.5,3.5,1.5c2.1,0,3.6-1,4.5-2.9h-3
			C75.4,18.8,75,19,74.4,19c-1.2,0-1.9-0.5-2.1-1.5L79.3,17.5L79.3,17.5z"/>
		<path class="st0" d="M86.8,15.6h-4.3c0.2-0.9,1-1.5,2.1-1.5C85.7,14.1,86.5,14.6,86.8,15.6 M89.6,17.5v-0.3c0-3.4-2-5.6-5-5.6
			c-1.3,0-2.5,0.5-3.4,1.4c-0.9,0.9-1.4,2.1-1.4,3.4c0,1.3,0.5,2.5,1.4,3.4c1,1,2.1,1.5,3.5,1.5c2.1,0,3.6-1,4.5-2.9h-3
			c-0.4,0.4-0.9,0.5-1.4,0.5c-1.2,0-1.9-0.5-2.1-1.5L89.6,17.5L89.6,17.5z"/>
		<path class="st0" d="M65.6,14v7.2h2.7V14h1.1v-2.1h-1.1v-0.2c0-0.8,0.2-1.1,1-1.1h0.1V8.7c-0.2,0-0.3,0-0.4,0
			c-2.3,0-3.3,0.9-3.3,2.9c0,0.1,0,0.2,0,0.3h-1V14L65.6,14L65.6,14z"/>
		<path class="st0" d="M90.6,14v7.2h2.7V14h1.1v-2.1h-1.1v-0.2c0-0.8,0.2-1.1,1-1.1h0.1V8.7c-0.2,0-0.3,0-0.4,0
			c-2.3,0-3.3,0.9-3.3,2.9c0,0.1,0,0.2,0,0.3h-1V14L90.6,14L90.6,14z"/>
		<path class="st0" d="M101.4,16.5c0,1.3-1,2.3-2.2,2.3c-1.2,0-2.2-1-2.2-2.3c0-1.3,1-2.3,2.2-2.3C100.5,14.2,101.4,15.3,101.4,16.5
			 M104.1,16.5c0-1.3-0.5-2.5-1.5-3.5c-0.9-0.9-2.1-1.4-3.4-1.4c-1.3,0-2.5,0.5-3.4,1.4c-0.9,0.9-1.4,2.1-1.4,3.4
			c0,1.3,0.5,2.5,1.4,3.4c1,1,2.1,1.5,3.5,1.5c1.4,0,2.6-0.5,3.5-1.5C103.7,19,104.1,17.9,104.1,16.5"/>
		<path class="st0" d="M108.3,15c-1.3-0.1-2.4-1.1-2.4-2.4h5.2h0.6v-0.1c0-2.2-1.4-3.8-3.4-3.8c-2.1,0-3.5,1.5-3.5,3.5
			c0,1.9,1.5,3.6,3.5,3.6c1.5,0,2.6-0.8,3.2-2.3h-0.6c-0.4,0.9-1.3,1.5-2.3,1.5C108.4,15,108.4,15,108.3,15"/>
		<path class="st0" d="M115.6,15c1.3-0.1,2.4-1.1,2.4-2.4h-5.2h-0.5v-0.1c0-2.2,1.4-3.8,3.4-3.8c2.1,0,3.5,1.5,3.5,3.5
			c0,1.9-1.5,3.6-3.5,3.6c-1.5,0-2.6-0.8-3.2-2.3h0.6c0.4,0.9,1.3,1.5,2.3,1.5C115.5,15,115.6,15,115.6,15"/>
	</g>
	<path class="st0" d="M130.2,12l-1.2,2.5l-2.8,0.4c-0.5,0.1-0.7,0.7-0.3,1l2,2l-0.5,2.8c-0.1,0.5,0.4,0.9,0.9,0.6l2.5-1.3l2.5,1.3
		c0.4,0.2,1-0.1,0.9-0.6l-0.5-2.8l2-2c0.4-0.4,0.2-1-0.3-1l-2.8-0.4l-1.2-2.5C131.1,11.5,130.4,11.5,130.2,12L130.2,12z"/>
	<path class="st0" d="M142.1,12l-1.2,2.5l-2.8,0.4c-0.5,0.1-0.7,0.7-0.3,1l2,2l-0.5,2.8c-0.1,0.5,0.4,0.9,0.9,0.6l2.5-1.3l2.5,1.3
		c0.4,0.2,1-0.1,0.9-0.6l-0.5-2.8l2-2c0.4-0.4,0.2-1-0.3-1l-2.8-0.4l-1.2-2.5C143,11.5,142.4,11.5,142.1,12L142.1,12z"/>
	<path class="st0" d="M154,12l-1.2,2.5l-2.8,0.4c-0.5,0.1-0.7,0.7-0.3,1l2,2l-0.5,2.8c-0.1,0.5,0.4,0.9,0.9,0.6l2.5-1.3l2.5,1.3
		c0.4,0.2,1-0.1,0.9-0.6l-0.5-2.8l2-2c0.4-0.4,0.2-1-0.3-1l-2.8-0.4l-1.2-2.5C154.9,11.5,154.3,11.5,154,12L154,12z"/>
	<path class="st0" d="M166,12l-1.2,2.5l-2.8,0.4c-0.5,0.1-0.7,0.7-0.3,1l2,2l-0.5,2.8c-0.1,0.5,0.4,0.9,0.9,0.6l2.5-1.3l2.5,1.3
		c0.4,0.2,1-0.1,0.9-0.6l-0.5-2.8l2-2c0.4-0.4,0.2-1-0.3-1l-2.8-0.4L167,12C166.8,11.5,166.2,11.5,166,12L166,12z"/>
	<path class="st0" d="M177.9,12l-1.2,2.5l-2.8,0.4c-0.5,0.1-0.7,0.7-0.3,1l2,2l-0.5,2.8c-0.1,0.5,0.4,0.9,0.9,0.6l2.5-1.3l2.5,1.3
		c0.4,0.2,1-0.1,0.9-0.6l-0.5-2.8l2-2c0.4-0.4,0.2-1-0.3-1l-2.8-0.4L179,12C178.7,11.5,178.1,11.5,177.9,12L177.9,12z"/>
</g>
</svg>
