<?xml version="1.0" encoding="utf-8"?>
<!-- Generator: Adobe Illustrator 25.0.0, SVG Export Plug-In . SVG Version: 6.00 Build 0)  -->
<svg version="1.1" id="Layer_1" xmlns="http://www.w3.org/2000/svg" xmlns:xlink="http://www.w3.org/1999/xlink" x="0px" y="0px"
	 viewBox="0 0 160 125.9" style="enable-background:new 0 0 160 125.9;" xml:space="preserve">
<style type="text/css">
	.st0{fill:#1C1C1C;}
	.st1{fill:#343434;}
	.st2{fill:#EB8D70;}
	.st3{fill:#152C48;}
	.st4{fill:#B63583;}
	.st5{fill:url(#SVGID_1_);}
	.st6{fill:url(#SVGID_2_);}
	.st7{fill:url(#SVGID_3_);}
	.st8{fill:#F4A688;}
</style>
<g>
	<g>
		<g>
			<rect x="52.3" y="78.2" class="st0" width="3" height="32.8"/>
			<path class="st0" d="M56.4,77.6v9.1c0,0.6-0.5,1-1.2,1h-2.6c-0.6,0-1-0.4-1-1v-9.1H56.4z"/>
		</g>
		<path class="st0" d="M40.6,111.6h26.6l0,0c0-1.1-0.9-2-2-2H42.6C41.5,109.6,40.6,110.5,40.6,111.6L40.6,111.6z"/>
		<g>
			
				<rect x="40.7" y="57.9" transform="matrix(0.9264 -0.3765 0.3765 0.9264 -21.2114 20.8705)" class="st0" width="4.2" height="13.6"/>
			<g>
				<path class="st1" d="M16.8,33.2c7.4-7.4,25.9-12,32.5-1c0,0,8.5,13.5,6.9,25.6c-0.9,3.4-3.2,7.7-9,7.7C38,65.5,33,60.2,33,60.2
					C28.8,55.9,9.4,40.6,16.8,33.2z"/>
				<path class="st1" d="M57.8,65.4c1.6,0.1,3.2,0.3,3.5,0.3c3.1,0.2,6.4,0.5,9.2,1.8c0.7,0.3,1.5,0.9,2.2,1.5
					c3.3,2.9,6,8.4,0.3,9.7c-5.7,1.3-12,0.7-17.9,0.6c-3.6-0.1-7.2-0.2-10.8-0.7c-2.5-0.3-6,0.5-8.1-0.9C18,66,57.8,65.4,57.8,65.4z
					"/>
			</g>
		</g>
		<path class="st2" d="M19.6,35.1c0,0,1.9-8.1,7.6-12c-4.1-4.1-3.8-2-3.8-2s-11.2,6-11.7,9.4C15.6,34.4,19.6,35.1,19.6,35.1z"/>
		<path class="st3" d="M32.2,34.6c0,0-7.9,5.5-12,0.6l-8.4-4.9c0,0-7.8,22.1,20.4,17.3C31.6,40.2,32.2,34.6,32.2,34.6z"/>
		<g>
			<path class="st2" d="M48.5,18.9c0,0-7.5-3.6-14.1-1.5c-9.7-0.4,0.8-4.2,0.8-4.2s11.7-5.1,14.7-3.3C50.5,15.3,48.5,18.9,48.5,18.9
				z"/>
			<path class="st3" d="M40.2,28.4c0,0,11.2-4.4,7.6-9.8l1.7-8.9c0,0,22.2,7.6,0.9,26.8C44.9,31.5,40.2,28.4,40.2,28.4z"/>
		</g>
		<path class="st4" d="M111.4,58.4c0,0,9.3-5.2,12.5-2.1c0,0-7.7,6.9-11.1,6.6c-3.4-0.3-4.1-2.1-4.1-2.1L111.4,58.4z"/>
		
			<linearGradient id="SVGID_1_" gradientUnits="userSpaceOnUse" x1="916.4774" y1="-2164.1501" x2="921.8143" y2="-2164.1501" gradientTransform="matrix(0.4192 -0.9079 -0.9079 -0.4192 -2240.7266 -15.0989)">
			<stop  offset="0" style="stop-color:#F9B776"/>
			<stop  offset="1" style="stop-color:#F47960"/>
		</linearGradient>
		<path class="st5" d="M106.1,57.4l3.1,3c0.5,0.5,1.2,0.6,1.7,0.2c0.3-0.2,0.6-0.5,0.9-0.9c0.5-0.6,0.5-1.4,0-2l-2.2-2.9L106.1,57.4
			z"/>
		<path class="st4" d="M66.8,54.4c0,0,10.3-14.9,19.9-18.8c9.6-4,23.9,18.8,23.9,18.8s-1,2.2-4.5,3.8c0,0-11.7-15-19.3-10.3
			C78.2,53.2,73,61.5,73,61.5l-5.7-6.6L66.8,54.4z"/>
		<path class="st4" d="M121.1,56.7c-1.6,1.4-7.3,4.7-7.8,5.4c-0.5,0.8-0.2,2.6-0.2,2.6s0.5,0.6,1.7,0.8c1.9-0.5,5.8-1.8,8.3-4.8
			c1.9-2.2,2-4.3,1.7-5.7C123.7,55.1,122.2,55.8,121.1,56.7z"/>
		
			<linearGradient id="SVGID_2_" gradientUnits="userSpaceOnUse" x1="914.2614" y1="-2175.9729" x2="928.6122" y2="-2175.9729" gradientTransform="matrix(0.4192 -0.9079 -0.9079 -0.4192 -2240.7266 -15.0989)">
			<stop  offset="0" style="stop-color:#53D8FF"/>
			<stop  offset="1" style="stop-color:#3840F7"/>
		</linearGradient>
		<path class="st6" d="M123.2,60.7c-2.6,3-6.4,4.3-8.3,4.8c0.9,0.1,2.1-0.1,3.8-0.8c4.2-1.8,7.9-7.2,8.3-8.6c0.3-1.1-0.7-1.4-2-1.2
			C125.2,56.4,125.1,58.5,123.2,60.7z"/>
		
			<linearGradient id="SVGID_3_" gradientUnits="userSpaceOnUse" x1="912.6183" y1="-2169.2119" x2="917.6271" y2="-2169.2119" gradientTransform="matrix(0.4192 -0.9079 -0.9079 -0.4192 -2240.7266 -15.0989)">
			<stop  offset="0" style="stop-color:#F9B776"/>
			<stop  offset="1" style="stop-color:#F47960"/>
		</linearGradient>
		<path class="st7" d="M110,65.1c0.5,0.2,2.6,0,3.8-0.2c0.6-0.1,1-0.4,1.3-0.9c0.2-0.3,0.3-0.7,0.4-1.1c0.1-0.6-0.3-1.1-0.9-1.2
			l-4.3-0.6L110,65.1z"/>
		<path class="st4" d="M54.8,67.8c0,0,7.9,8,12.5,5.8s11.8-9.3,18.5-8.5s19.5,2.7,25.5,0.2c0,0,1.1-3.2,0.4-4.9c0,0-18-5.3-23.1-5.7
			C84.3,54.4,77.9,54,73,56.6c-1.4,0.7-2.7-0.1-3.8-1.2l-2-2.1L54.8,67.8z"/>
		<path class="st3" d="M27.1,43.6c0,0,0.5-10.4,21.5-20.5c0,0,0.9,2.1,2.8,4.7c1.8,2.6,10,20.3,15.9,25.4c0,0-1.2,9.7-11.7,15.4
			C55.6,68.7,37.1,59.2,27.1,43.6z"/>
		<path class="st2" d="M29.7,26.1l4.2,9.4c0.3,0.7,1,1.1,1.7,1.1c1.5,0,3.9-0.6,5.1-3.9c0.4-1,0.2-2.1-0.5-2.9l-4.8-5.9L29.7,26.1z"
			/>
		<g>
			<path class="st8" d="M29.7,13c0.1,0.1,7,5.9,10.4,8.9c1.1,0.9,1.1,2.5,0.1,3.5l-0.8,0.7c-1.1,1-3.6,2.4-5,1.9l-9.3-4.7
				C25.1,23.4,26.7,11.9,29.7,13z"/>
			<path class="st8" d="M31.1,26.4c0,0-2.5-2.9-4-2.2c-1.4,0.7-2,2.7,0.5,3.6C30.8,28.9,31.1,26.4,31.1,26.4z"/>
		</g>
		<g>
			<ellipse class="st4" cx="66.1" cy="111.8" rx="1.9" ry="1.9"/>
			<path class="st0" d="M65.1,111.8c0,0.5,0.4,1,1,1s1-0.4,1-1c0-0.5-0.4-1-1-1S65.1,111.2,65.1,111.8z"/>
		</g>
		<g>
			<ellipse class="st4" cx="42.6" cy="111.8" rx="1.9" ry="1.9"/>
			<path class="st0" d="M41.6,111.8c0,0.5,0.4,1,1,1c0.5,0,1-0.4,1-1c0-0.5-0.4-1-1-1S41.6,111.2,41.6,111.8z"/>
		</g>
	</g>
	<g>
		<path class="st3" d="M93.7,62.1C93.8,62.1,93.8,62.1,93.7,62.1H122c0.7,0,1.3-0.6,1.3-1.3s-0.6-1.3-1.3-1.3H93.8
			c-0.7,0-1.3,0.6-1.3,1.3C92.5,61.6,93.1,62.1,93.7,62.1z"/>
		<path class="st3" d="M147.4,36.5h-23.5c-1.7,0-3.3,1-4,2.6l-10.9,23h29.2c1.1,0,2.1-0.7,2.5-1.7l8.4-21.3
			C149.6,37.9,148.7,36.5,147.4,36.5z"/>
	</g>
	<g>
		<g>
			<path class="st0" d="M140.5,116.9c0.1,0,0.3,0,0.4-0.1c0.5-0.2,0.8-0.8,0.6-1.4l-22.6-50.8c-0.2-0.5-0.9-0.8-1.4-0.5
				c-0.5,0.2-0.8,0.8-0.6,1.4l22.6,50.8C139.6,116.7,140,116.9,140.5,116.9z"/>
			<path class="st0" d="M115,116.9c0.4,0,0.8-0.2,1-0.6l22.6-50.8c0.2-0.5,0-1.1-0.6-1.4c-0.5-0.2-1.2,0-1.4,0.5L114,115.4
				c-0.2,0.5,0,1.1,0.6,1.4C114.8,116.9,114.9,116.9,115,116.9z"/>
			<path class="st0" d="M70.6,116.9c0.1,0,0.3,0,0.4-0.1c0.5-0.2,0.8-0.8,0.6-1.4L49,64.7c-0.2-0.5-0.9-0.8-1.4-0.5
				c-0.5,0.2-0.8,0.8-0.6,1.4l22.6,50.8C69.8,116.7,70.2,116.9,70.6,116.9z"/>
			<path class="st0" d="M45.2,116.9c0.4,0,0.8-0.2,1-0.6l22.6-50.8c0.2-0.5,0-1.1-0.6-1.4c-0.5-0.2-1.2,0-1.4,0.5l-22.6,50.8
				c-0.2,0.5,0,1.1,0.6,1.4C44.9,116.9,45.1,116.9,45.2,116.9z"/>
		</g>
		<path class="st0" d="M42.6,63.1c-0.1-0.3,0-0.7,0.2-0.9c0.2-0.3,0.5-0.4,0.8-0.4h102.6c0.4,0,0.8,0.2,1,0.6
			c0.2,0.4,0.2,0.8,0.1,1.3l-1.1,2.7c-0.3,0.6-0.8,1-1.4,1H44.3c-0.6,0-1.1-0.4-1.2-1.1L42.6,63.1z"/>
	</g>
</g>
<path class="st0" d="M27.3,19.4l4.9,4.1c0.1,0.1,0.1,0.1,0.2,0.1c0.5,0.2,2.1,0.8,2.6-0.9c0.5-1.5,0.9-2.9,1.7-3.6
	c0.4-0.3,0.9-0.3,1.2,0c0.8,0.8,2.6,2.6,4,4.5c0.3,0.4,0.2,0.9-0.1,1.2c-1.1,0.9-5.1,2.9-7.3,4c-0.3,0.1-0.6,0.1-0.9-0.1
	c-1.3-0.9-3.5-3.8-4.8-4.4c-1.2-0.6-2.7,0.3-3.3,0.8c-0.2,0.1-0.4,0.2-0.7,0.1c-0.8-0.2-2.6-0.8-2-3.1c0.1-0.5-0.2-1-0.7-1.1
	c-1-0.2-2.3-0.9-2-2.8c0.3-2,1.8-2.6,2.9-2.8c0.4-0.1,0.7-0.5,0.7-0.9c0-0.2,0.1-0.5,0.5-0.7c0.5-0.2,0.6-0.8,0.4-1.3
	c-0.5-0.8-0.8-2.1,0.4-3.4c2.2-2.4,5.3-0.8,6.6,1c1.3,1.8-1.2,4.2-3,5.1C27.2,16,27,17.9,27,18.7C26.9,19,27.1,19.3,27.3,19.4z"/>
</svg>
