<?xml version="1.0" encoding="utf-8"?>
<!-- Generator: Adobe Illustrator 24.1.1, SVG Export Plug-In . SVG Version: 6.00 Build 0)  -->
<svg version="1.1" id="Layer_1" xmlns="http://www.w3.org/2000/svg" xmlns:xlink="http://www.w3.org/1999/xlink" x="0px" y="0px"
	 width="119.5px" height="73.84px" viewBox="0 0 119.5 73.84" style="enable-background:new 0 0 119.5 73.84;" xml:space="preserve"
	>
<style type="text/css">
	.st0{fill:#363636;}
	.st1{fill:#032E3F;}
	.st2{fill:none;stroke:#FFFFFF;stroke-width:3;}
	.st3{fill:#FFFFFF;}
	.st4{fill:#931825;}
	.st5{fill:url(#SVGID_1_);}
	.st6{fill:url(#SVGID_2_);}
	.st7{fill:url(#SVGID_3_);}
	.st8{fill:url(#SVGID_4_);}
	.st9{fill:url(#SVGID_5_);}
	.st10{fill:#112F3F;}
	.st11{fill:url(#SVGID_6_);}
	.st12{fill:url(#SVGID_7_);}
	.st13{fill:url(#SVGID_8_);}
	.st14{fill:url(#SVGID_9_);}
	.st15{fill:url(#SVGID_10_);}
	.st16{fill:url(#SVGID_11_);}
	.st17{fill:#3E3A38;}
	.st18{fill:#006A90;}
	.st19{fill:#01A3CE;}
	.st20{fill:#141414;}
	.st21{enable-background:new    ;}
</style>
<g>
	<path class="st3" d="M5.24,55.68c0,2.78,2.12,3.1,3.17,3.1c0.34,0,0.56-0.03,0.56-0.03v-1.41c0,0-0.15,0.03-0.38,0.03
		c-0.61,0-1.76-0.21-1.76-1.87v-3.81h1.99v-1.28H6.83v-2.28H5.27v2.28H4.16v1.28h1.08V55.68z"/>
	<path class="st3" d="M10.26,48.85v9.87h1.59v-3.89c0-0.39,0.03-0.77,0.15-1.1c0.34-1.2,1.36-2.05,2.63-2.05
		c1.33,0,1.58,0.92,1.58,2.09v3.91c0,0.74,0.31,1.05,1.05,1.05h1.56v-1.36h-0.67c-0.23,0-0.36-0.12-0.36-0.36v-3.6
		c0-2.12-0.89-3.19-2.84-3.19c-1.66,0-2.73,1.05-3.09,1.86h-0.03c0,0,0.03-0.3,0.03-0.69v-3.24c0-0.71-0.31-1.02-1.05-1.02H9.23
		v1.36H9.9C10.13,48.49,10.26,48.6,10.26,48.85z"/>
	<path class="st3" d="M23.83,58.92c1.97,0,3.2-1.22,3.2-1.22l-0.69-1.13c0,0-1,0.97-2.43,0.97c-1.48,0-2.76-1-2.86-2.78h6.06
		c0,0,0.05-0.44,0.05-0.66c0-2.15-1.25-3.89-3.58-3.89c-2.37,0-4.17,1.71-4.17,4.35C19.41,57.03,21.2,58.92,23.83,58.92z
		 M23.57,51.48c1.03,0,1.91,0.74,1.95,2.12h-4.4C21.37,52.21,22.35,51.48,23.57,51.48z"/>
	<path class="st3" d="M41.85,52.47c0.13-0.29,0.27-0.66,0.38-1c0,0.3,0.01,0.64,0.03,0.95l0.39,5.19c0.06,0.75,0.3,1.25,1.24,1.25h2
		v-2.11h-0.65c-0.12,0-0.2-0.04-0.22-0.23l-0.77-9.61H41.8l-2.44,5.64c-0.17,0.41-0.35,0.9-0.46,1.22
		c-0.11-0.32-0.29-0.81-0.46-1.22l-2.44-5.64h-2.46l-0.77,9.61c-0.01,0.19-0.1,0.23-0.22,0.23h-0.65v2.11h2
		c0.82,0,1.19-0.36,1.26-1.25l0.38-5.19c0.03-0.3,0.03-0.65,0.04-0.96c0.11,0.34,0.25,0.72,0.38,1l1.98,4.39h1.93L41.85,52.47z"/>
	<path class="st3" d="M50.96,50c-2.69,0-4.73,1.95-4.73,4.53c0,2.58,2.03,4.53,4.73,4.53c2.7,0,4.74-1.95,4.74-4.53
		C55.71,51.95,53.67,50,50.96,50z M50.96,57c-1.33,0-2.34-1.06-2.34-2.47c0-1.41,1-2.47,2.34-2.47c1.34,0,2.35,1.06,2.35,2.47
		C53.32,55.94,52.31,57,50.96,57z"/>
	<path class="st3" d="M61.62,52.19c0.84,0,1.17,0.44,1.17,1.56v3.84c0,0.87,0.39,1.26,1.26,1.26h2.13v-2.04h-0.8
		c-0.15,0-0.22-0.07-0.22-0.22v-3.27c0-2.21-1.03-3.33-3.07-3.33c-1.52,0-2.39,0.81-2.81,1.38v-0.11c0-0.69-0.45-1.08-1.24-1.08
		h-2.07v2.06h0.8c0.16,0,0.22,0.06,0.22,0.22v6.38h2.36v-3.99c0-0.4,0.05-0.76,0.16-1.08C59.8,52.81,60.61,52.19,61.62,52.19z"/>
	<path class="st3" d="M71.03,59.06c2.12,0,3.41-1.25,3.47-1.31l0.08-0.08l-1.02-1.69l-0.13,0.12c-0.01,0.01-0.98,0.9-2.25,0.9
		c-1.24,0-2.15-0.76-2.35-1.96h5.75l0.01-0.13c0-0.02,0.05-0.54,0.05-0.79c0-2.46-1.55-4.12-3.86-4.12c-2.59,0-4.4,1.86-4.4,4.53
		C66.38,57.15,68.34,59.06,71.03,59.06z M68.91,53.3c0.26-0.89,0.93-1.4,1.87-1.4c0.76,0,1.34,0.58,1.42,1.4H68.91z"/>
	<path class="st3" d="M76.88,60.27c-0.62,0-1.09-0.52-1.09-0.53l-0.14-0.15l-0.95,1.75l0.07,0.08c0.03,0.04,0.86,0.9,2.22,0.9
		c1.44,0,2.59-0.83,3.16-2.28l3.01-7.57c0.07-0.17,0.13-0.2,0.34-0.2h0.39V50.2h-1.56c-0.66,0-1.04,0.27-1.25,0.89l-1.43,4.19
		c-0.06,0.17-0.11,0.38-0.16,0.57c-0.05-0.19-0.11-0.4-0.18-0.58l-1.64-4.19c-0.24-0.63-0.58-0.88-1.23-0.88h-1.52v2.06h0.39
		c0.18,0,0.24,0.02,0.31,0.21l2.77,6.23l-0.26,0.59C77.87,59.92,77.43,60.27,76.88,60.27z"/>
	<path class="st3" d="M14.03,71.26l-3.48-9.57H8.1l-3.5,9.57c-0.08,0.23-0.15,0.26-0.37,0.26H3.82v2.11h1.44
		c0.87,0,1.21-0.23,1.5-1.05l0.69-1.94h3.74l0.69,1.94c0.29,0.8,0.64,1.05,1.52,1.05h1.42v-2.11h-0.41
		C14.18,71.53,14.11,71.5,14.03,71.26z M9.31,64.63C9.41,65,9.53,65.5,9.65,65.86l0.94,2.73H8.04l0.94-2.73
		C9.09,65.5,9.22,65,9.31,64.63z"/>
	<path class="st3" d="M23.6,71.38v-8.42c0-0.85-0.41-1.26-1.26-1.26h-2.13v2.06h0.8c0.16,0,0.22,0.06,0.22,0.22v1.48
		c0,0.04,0,0.08,0,0.12c-0.33-0.32-1.03-0.79-2.29-0.79c-2.33,0-3.95,1.86-3.95,4.53c0,2.71,1.56,4.53,3.87,4.53
		c1.38,0,2.15-0.67,2.5-1.1c0.03,0.37,0.24,0.9,1.17,0.9h2.07V71.6h-0.78C23.67,71.6,23.6,71.53,23.6,71.38z M19.32,71.79
		c-1.17,0-1.93-0.98-1.93-2.48c0-1.47,0.79-2.45,1.96-2.45c1.33,0,1.93,1.22,1.93,2.43C21.28,71.14,20.26,71.79,19.32,71.79z"/>
	<path class="st3" d="M30.63,65.86l-1.58,4.4c-0.07,0.2-0.13,0.43-0.18,0.64c-0.05-0.21-0.12-0.44-0.19-0.64l-1.58-4.4
		c-0.24-0.63-0.62-0.88-1.37-0.88H24.4v2.06h0.32c0.18,0,0.27,0.06,0.33,0.2l2.43,6.4h2.68l2.43-6.4c0.06-0.15,0.15-0.2,0.33-0.2
		h0.34v-2.06H32C31.26,64.98,30.86,65.23,30.63,65.86z"/>
	<path class="st3" d="M37.2,71.38v-5.14c0-0.86-0.4-1.26-1.24-1.26h-2.13v2.06h0.8c0.16,0,0.22,0.06,0.22,0.22v5.12
		c0,0.86,0.4,1.26,1.24,1.26h2.13V71.6h-0.8C37.26,71.6,37.2,71.53,37.2,71.38z"/>
	<rect x="34.94" y="61.69" class="st3" width="2.09" height="2.21"/>
	<path class="st3" d="M45.72,70.64c-0.01,0.01-1.02,1.09-2.37,1.09c-1.23,0-2.47-0.75-2.47-2.43c0-1.43,0.98-2.47,2.34-2.47
		c0.43,0,1.05,0.16,1.05,0.51v0.6h2.13v-1.13c0-1.49-1.9-2.03-3.18-2.03c-3.1,0-4.73,2.28-4.73,4.53c0,2.62,1.97,4.53,4.68,4.53
		c2.32,0,3.59-1.5,3.64-1.56l0.07-0.08l-1.02-1.7L45.72,70.64z"/>
	<path class="st3" d="M51.45,64.78c-2.59,0-4.4,1.86-4.4,4.53c0,2.62,1.95,4.53,4.64,4.53c2.12,0,3.41-1.25,3.47-1.31l0.08-0.08
		l-1.02-1.69l-0.13,0.12c-0.01,0.01-0.98,0.9-2.25,0.9c-1.24,0-2.15-0.76-2.35-1.96h5.75l0.01-0.13c0-0.02,0.05-0.53,0.05-0.79
		C55.31,66.44,53.76,64.78,51.45,64.78z M51.45,66.68c0.76,0,1.34,0.58,1.42,1.4h-3.29C49.84,67.19,50.52,66.68,51.45,66.68z"/>
	<path class="st3" d="M65.07,66.44c-1.07-0.46-1.99-0.86-1.99-1.6c0-0.65,0.64-1.1,1.56-1.1c0.68,0,1.4,0.31,1.4,0.76v0.67h2.23
		v-1.23c0-1.78-2.21-2.44-3.61-2.44c-2.34,0-4.04,1.44-4.04,3.43c0,2.18,1.91,3.05,3.44,3.76c1.1,0.51,2.05,0.94,2.05,1.69
		c0,0.85-0.77,1.24-1.53,1.24c-1.54,0-2.7-1.32-2.72-1.33l-0.11-0.13l-1.39,1.73l0.07,0.09c0.06,0.08,1.5,1.86,4.12,1.86
		c2.37,0,4.02-1.47,4.02-3.58C68.56,67.94,66.62,67.11,65.07,66.44z"/>
	<path class="st3" d="M73.61,64.78c-2.59,0-4.4,1.86-4.4,4.53c0,2.62,1.95,4.53,4.64,4.53c2.12,0,3.41-1.25,3.47-1.31l0.08-0.08
		l-1.02-1.69l-0.13,0.12c-0.01,0.01-0.98,0.9-2.25,0.9c-1.24,0-2.15-0.76-2.35-1.96h5.75l0.01-0.13c0-0.02,0.05-0.53,0.05-0.79
		C77.46,66.44,75.91,64.78,73.61,64.78z M73.61,66.68c0.76,0,1.34,0.58,1.42,1.4h-3.29C72,67.19,72.67,66.68,73.61,66.68z"/>
	<path class="st3" d="M83.71,64.86c-1.03,0-1.98,0.62-2.52,1.59v-0.32c0-0.77-0.42-1.16-1.26-1.16h-2.05v2.06h0.8
		c0.16,0,0.22,0.06,0.22,0.22v6.38h2.36v-3.46c0-0.46,0.06-0.91,0.17-1.32c0.37-1.22,1.35-1.66,2.15-1.66
		c0.28,0,0.48,0.03,0.49,0.03l0.17,0.03v-2.34l-0.12-0.02C84.11,64.9,83.9,64.86,83.71,64.86z"/>
	<path class="st3" d="M91.01,65.86l-1.58,4.4c-0.07,0.2-0.13,0.43-0.18,0.64c-0.05-0.21-0.12-0.44-0.19-0.64l-1.58-4.4
		c-0.24-0.63-0.62-0.88-1.37-0.88h-1.34v2.06h0.32c0.18,0,0.27,0.06,0.33,0.2l2.43,6.4h2.68l2.43-6.4c0.06-0.15,0.15-0.2,0.33-0.2
		h0.34v-2.06h-1.26C91.64,64.98,91.24,65.23,91.01,65.86z"/>
	<rect x="95.32" y="61.69" class="st3" width="2.09" height="2.21"/>
	<path class="st3" d="M97.58,71.38v-5.14c0-0.86-0.4-1.26-1.24-1.26H94.2v2.06H95c0.16,0,0.22,0.06,0.22,0.22v5.12
		c0,0.86,0.4,1.26,1.24,1.26h2.13V71.6h-0.8C97.64,71.6,97.58,71.53,97.58,71.38z"/>
	<path class="st3" d="M106.1,70.64c-0.01,0.01-1.02,1.09-2.37,1.09c-1.23,0-2.47-0.75-2.47-2.43c0-1.43,0.98-2.47,2.34-2.47
		c0.43,0,1.06,0.16,1.06,0.51v0.6h2.13v-1.13c0-1.49-1.9-2.03-3.18-2.03c-3.1,0-4.72,2.28-4.72,4.53c0,2.62,1.97,4.53,4.68,4.53
		c2.32,0,3.59-1.5,3.64-1.56l0.06-0.08l-1.02-1.7L106.1,70.64z"/>
	<path class="st3" d="M115.64,69.68c0-0.02,0.05-0.53,0.05-0.79c0-2.46-1.55-4.12-3.86-4.12c-2.59,0-4.4,1.86-4.4,4.53
		c0,2.62,1.95,4.53,4.64,4.53c2.12,0,3.41-1.25,3.47-1.31l0.08-0.08l-1.02-1.69l-0.13,0.12c-0.01,0.01-0.98,0.9-2.25,0.9
		c-1.24,0-2.15-0.76-2.35-1.96h5.75L115.64,69.68z M111.83,66.68c0.76,0,1.34,0.58,1.42,1.4h-3.29
		C110.22,67.19,110.89,66.68,111.83,66.68z"/>
	<g>
		<path class="st3" d="M76.3,0c-12.12,0-22.97,5.5-30.2,14.13c0,0,0,0,0,0c-4.05-2.19-8.68-3.43-13.59-3.43
			c-15.82,0-28.69,12.87-28.69,28.69H6.7c0-14.23,11.57-25.8,25.8-25.8c4.25,0,8.26,1.03,11.79,2.86c-0.48,0.67-0.94,1.36-1.38,2.06
			c-3.14-1.57-6.67-2.45-10.41-2.45c-12.87,0-23.34,10.47-23.34,23.34h2.89c0-11.28,9.17-20.45,20.45-20.45
			c3.21,0,6.25,0.75,8.96,2.07c-0.38,0.72-0.75,1.46-1.09,2.21c-2.38-1.16-5.05-1.82-7.87-1.82c-9.92,0-17.99,8.07-17.99,17.99h2.89
			c0-8.33,6.77-15.1,15.1-15.1c2.44,0,4.74,0.58,6.78,1.61l0,0c-0.28,0.78-0.54,1.57-0.78,2.37c-1.79-0.97-3.83-1.52-6-1.52
			c-6.97,0-12.64,5.67-12.64,12.64h2.89c0-5.38,4.37-9.75,9.75-9.75c1.94,0,3.74,0.57,5.26,1.55c-0.19,0.89-0.35,1.8-0.48,2.72
			c-1.28-1.12-2.95-1.8-4.78-1.8c-4.02,0-7.29,3.27-7.29,7.29h2.89c0-2.43,1.97-4.4,4.4-4.4c2.43,0,4.4,1.97,4.4,4.4v0h2.89
			c0-20.13,16.38-36.5,36.5-36.5c20.13,0,36.5,16.38,36.5,36.5h2.89C115.69,17.67,98.02,0,76.3,0z M45.18,15.27L45.18,15.27
			L45.18,15.27z"/>
		<path class="st3" d="M76.3,5.35c-18.77,0-34.04,15.27-34.04,34.04h2.89c0-17.18,13.98-31.15,31.15-31.15
			c17.18,0,31.15,13.98,31.15,31.15h2.89C110.34,20.62,95.06,5.35,76.3,5.35z"/>
		<path class="st3" d="M76.3,10.7c-15.82,0-28.69,12.87-28.69,28.69h2.89c0-14.23,11.58-25.8,25.8-25.8
			c14.23,0,25.8,11.58,25.8,25.8h2.89C104.99,23.57,92.12,10.7,76.3,10.7z"/>
		<path class="st3" d="M76.3,16.05c-12.87,0-23.34,10.47-23.34,23.34h2.89c0-11.28,9.17-20.45,20.45-20.45
			c11.28,0,20.45,9.17,20.45,20.45h2.89C99.63,26.52,89.17,16.05,76.3,16.05z"/>
		<path class="st3" d="M76.3,21.4c-9.92,0-17.99,8.07-17.99,17.99h2.89c0-8.33,6.77-15.1,15.1-15.1c8.33,0,15.1,6.77,15.1,15.1h2.89
			C94.28,29.47,86.21,21.4,76.3,21.4z"/>
	</g>
	<g>
		<path class="st3" d="M32.51,10.7c-15.82,0-28.69,12.87-28.69,28.69H6.7c0-14.23,11.57-25.8,25.8-25.8c4.25,0,8.26,1.03,11.79,2.86
			c0.57-0.79,1.17-1.57,1.8-2.31C42.05,11.94,37.42,10.7,32.51,10.7z"/>
		<path class="st3" d="M9.17,39.39h2.89c0-11.28,9.17-20.45,20.45-20.45c3.21,0,6.25,0.75,8.96,2.07c0.45-0.85,0.94-1.69,1.45-2.51
			c-3.14-1.57-6.67-2.45-10.41-2.45C19.64,16.05,9.17,26.52,9.17,39.39z"/>
		<path class="st3" d="M14.52,39.39h2.89c0-8.33,6.77-15.1,15.1-15.1c2.44,0,4.74,0.58,6.78,1.61c0.33-0.91,0.7-1.8,1.09-2.68
			c-2.38-1.16-5.05-1.82-7.87-1.82C22.59,21.4,14.52,29.47,14.52,39.39z"/>
		<path class="st3" d="M19.87,39.39h2.89c0-5.38,4.37-9.75,9.75-9.75c1.94,0,3.74,0.57,5.26,1.55c0.21-0.99,0.46-1.96,0.74-2.91
			c-1.79-0.97-3.83-1.52-6-1.52C25.54,26.75,19.87,32.42,19.87,39.39z"/>
		<path class="st3" d="M25.22,39.39h2.89c0-2.43,1.97-4.4,4.4-4.4c2.43,0,4.4,1.97,4.4,4.4v0c0-1.86,0.13-3.69,0.38-5.49
			c-1.28-1.12-2.95-1.8-4.78-1.8C28.49,32.1,25.22,35.37,25.22,39.39z"/>
	</g>
</g>
</svg>
