<svg version="1.1" id="Layer_1" xmlns="http://www.w3.org/2000/svg" xmlns:xlink="http://www.w3.org/1999/xlink" x="0px" y="0px" viewBox="0 0 298.4 153.3" style="enable-background:new 0 0 298.4 153.3;" xml:space="preserve"><link xmlns="" type="text/css" rel="stylesheet" id="dark-mode-general-link"/><link xmlns="" type="text/css" rel="stylesheet" id="dark-mode-custom-link"/><style xmlns="" lang="en" type="text/css" id="dark-mode-custom-style"/>
<style type="text/css">
	.st0{fill:#20395B;}
	.st1{fill:#B63682;}
	.st2{fill:url(#SVGID_1_);}
	.st3{fill:url(#SVGID_2_);}
</style>
<g>
	<g>
		<path class="st0" d="M171.6,67.7c0-1.6,0.2-2.9,0.7-4.1c0.5-1.2,1.1-2.1,2-2.9c0.8-0.8,1.8-1.3,3-1.7c1.1-0.4,2.3-0.6,3.7-0.6    c0.5,0,0.9,0,1.4,0.1c0.5,0.1,0.8,0.2,1.1,0.3v-5.8c0.2-0.1,0.6-0.1,1.1-0.2s1.1-0.1,1.6-0.1c0.5,0,1,0,1.4,0.1    c0.4,0.1,0.8,0.2,1,0.4c0.3,0.2,0.5,0.5,0.6,0.9c0.1,0.4,0.2,0.8,0.2,1.4v16.8c0,1.1-0.5,2-1.6,2.7c-0.7,0.5-1.6,0.8-2.7,1.2    c-1.1,0.4-2.3,0.5-3.8,0.5s-2.9-0.2-4.1-0.6c-1.2-0.4-2.3-1-3.1-1.9c-0.8-0.8-1.5-1.8-1.9-2.9C171.8,70.4,171.6,69.1,171.6,67.7z     M181.7,63.2c-1.3,0-2.3,0.4-3,1.1s-1,1.9-1,3.3c0,1.5,0.3,2.6,1,3.3c0.6,0.7,1.6,1.1,2.8,1.1c0.4,0,0.8-0.1,1.2-0.2    c0.3-0.1,0.6-0.3,0.8-0.4v-7.8C183,63.4,182.4,63.2,181.7,63.2z"/>
		<path class="st0" d="M202.2,76.9c-1.4,0-2.7-0.2-3.9-0.6c-1.2-0.4-2.2-1-3.1-1.8c-0.9-0.8-1.6-1.8-2.1-3s-0.8-2.6-0.8-4.2    c0-1.6,0.3-2.9,0.8-4c0.5-1.1,1.2-2.1,2-2.8s1.8-1.3,2.8-1.6c1-0.3,2.2-0.5,3.3-0.5c1.3,0,2.4,0.2,3.4,0.6c1,0.4,1.9,0.9,2.7,1.6    c0.7,0.7,1.3,1.5,1.7,2.4c0.4,0.9,0.6,1.9,0.6,3c0,0.8-0.2,1.4-0.7,1.9c-0.5,0.4-1.1,0.7-1.9,0.8l-8.7,1.3    c0.3,0.8,0.8,1.4,1.6,1.8s1.7,0.6,2.8,0.6c1,0,1.9-0.1,2.8-0.4c0.9-0.2,1.6-0.5,2.1-0.9c0.4,0.2,0.7,0.6,1,1    c0.3,0.4,0.4,0.9,0.4,1.4c0,1.1-0.5,1.9-1.5,2.4c-0.8,0.4-1.6,0.7-2.6,0.8C203.8,76.8,203,76.9,202.2,76.9z M201.3,63    c-0.6,0-1.1,0.1-1.5,0.3c-0.4,0.2-0.8,0.4-1,0.7c-0.3,0.3-0.5,0.6-0.6,1S198,65.6,198,66l6.1-1c-0.1-0.5-0.3-0.9-0.8-1.4    C202.7,63.1,202.2,63,201.3,63z"/>
		<path class="st0" d="M212.6,53.3c0.2-0.1,0.6-0.1,1.1-0.2c0.5-0.1,1.1-0.1,1.6-0.1c0.5,0,1,0,1.4,0.1c0.4,0.1,0.8,0.2,1.1,0.4    s0.5,0.5,0.6,0.9s0.2,0.8,0.2,1.4v3.5c0.6-0.2,1.2-0.4,1.7-0.5c0.5-0.1,1.1-0.1,1.8-0.1c1.1,0,2.2,0.2,3.2,0.6    c1,0.4,1.9,1,2.7,1.8c0.8,0.8,1.4,1.7,1.9,2.9c0.5,1.1,0.7,2.5,0.7,4s-0.2,2.9-0.7,4c-0.5,1.1-1.1,2.1-1.9,2.9    c-0.8,0.8-1.8,1.3-3,1.7c-1.2,0.4-2.5,0.6-4,0.6c-1.6,0-2.9-0.2-4-0.6c-1.1-0.4-2-0.8-2.8-1.4c-1-0.7-1.6-1.7-1.6-2.8V53.3z     M220.9,72.1c1.1,0,1.9-0.4,2.5-1.1s0.9-1.9,0.9-3.3c0-1.5-0.3-2.6-0.9-3.3c-0.6-0.7-1.4-1.1-2.5-1.1c-0.5,0-0.9,0-1.2,0.1    c-0.3,0.1-0.7,0.2-1.1,0.4v7.8c0.3,0.2,0.6,0.3,0.9,0.4C219.9,72.1,220.3,72.1,220.9,72.1z"/>
		<path class="st0" d="M239.4,70.4c0,0.6,0.2,1.1,0.6,1.3c0.4,0.3,0.9,0.4,1.7,0.4c0.4,0,0.7,0,1.1-0.1c0.4-0.1,0.7-0.1,1-0.2    c0.2,0.3,0.4,0.6,0.6,0.9c0.2,0.3,0.2,0.7,0.2,1.2c0,0.9-0.3,1.6-1,2.2c-0.7,0.6-1.9,0.9-3.6,0.9c-2.1,0-3.7-0.5-4.8-1.4    c-1.1-0.9-1.7-2.5-1.7-4.6V55.7c0.3-0.1,0.6-0.1,1.1-0.2c0.5-0.1,1-0.1,1.5-0.1c1,0,1.9,0.2,2.4,0.6c0.6,0.4,0.9,1.1,0.9,2.3v2.3    h4.7c0.1,0.3,0.3,0.6,0.4,1c0.1,0.4,0.2,0.8,0.2,1.3c0,0.8-0.2,1.4-0.6,1.8c-0.4,0.4-0.9,0.6-1.5,0.6h-3.2L239.4,70.4L239.4,70.4z    "/>
		<path class="st1" d="M186.9,109.4c0,1.8-0.7,3.2-2,4.2c-1.4,1-3.3,1.5-6,1.5c-1,0-1.9-0.1-2.8-0.2c-0.9-0.1-1.6-0.4-2.2-0.7    c-0.6-0.3-1.1-0.7-1.4-1.1c-0.3-0.5-0.5-1-0.5-1.6c0-0.6,0.1-1.1,0.4-1.4c0.3-0.3,0.5-0.7,0.9-1c0.7,0.4,1.5,0.7,2.4,1    c0.9,0.3,1.9,0.4,3.1,0.4c0.7,0,1.3-0.1,1.7-0.3c0.4-0.2,0.6-0.5,0.6-0.9c0-0.3-0.1-0.6-0.4-0.8c-0.3-0.2-0.8-0.3-1.4-0.5    l-1.1-0.2c-2.1-0.4-3.6-1-4.6-1.9c-1-0.9-1.5-2.1-1.5-3.7c0-0.9,0.2-1.7,0.6-2.4c0.4-0.7,0.9-1.3,1.6-1.8c0.7-0.5,1.5-0.8,2.5-1.1    c1-0.3,2-0.4,3.2-0.4c0.9,0,1.7,0.1,2.5,0.2c0.8,0.1,1.4,0.3,2,0.6c0.6,0.3,1,0.6,1.4,1c0.3,0.4,0.5,0.9,0.5,1.5    c0,0.5-0.1,1-0.3,1.4c-0.2,0.4-0.5,0.7-0.8,1c-0.2-0.1-0.5-0.2-0.9-0.4c-0.4-0.1-0.8-0.2-1.2-0.4c-0.5-0.1-0.9-0.2-1.4-0.3    c-0.5-0.1-0.9-0.1-1.3-0.1c-0.8,0-1.4,0.1-1.8,0.3c-0.4,0.2-0.6,0.5-0.6,0.8c0,0.3,0.1,0.5,0.4,0.6c0.2,0.2,0.7,0.3,1.4,0.5    l1.1,0.2c2.3,0.5,3.9,1.2,4.9,2.2C186.4,106.8,186.9,108,186.9,109.4z"/>
		<path class="st1" d="M189.8,97.5c0.2-0.1,0.6-0.1,1.1-0.2c0.5-0.1,1-0.1,1.6-0.1c0.5,0,1,0,1.4,0.1c0.4,0.1,0.8,0.2,1,0.4    c0.3,0.2,0.5,0.5,0.7,0.9c0.2,0.4,0.2,0.8,0.2,1.4v7.7c0,1,0.2,1.7,0.7,2.1c0.5,0.4,1.2,0.6,2.1,0.6c0.5,0,1,0,1.3-0.1    c0.3-0.1,0.6-0.2,0.8-0.3V97.5c0.2-0.1,0.6-0.1,1.1-0.2c0.5-0.1,1-0.1,1.6-0.1c0.5,0,1,0,1.4,0.1c0.4,0.1,0.8,0.2,1.1,0.4    c0.3,0.2,0.5,0.5,0.7,0.9c0.2,0.4,0.2,0.8,0.2,1.4v10.7c0,1.2-0.5,2.1-1.5,2.7c-0.8,0.5-1.8,0.9-3,1.2c-1.2,0.3-2.4,0.4-3.8,0.4    c-1.3,0-2.5-0.1-3.5-0.4c-1.1-0.3-2-0.7-2.8-1.3c-0.8-0.6-1.4-1.4-1.8-2.3c-0.4-0.9-0.6-2.1-0.6-3.4V97.5z"/>
		<path class="st1" d="M218.3,96.7c1.4,0,2.7,0.2,4,0.6c1.2,0.4,2.3,0.9,3.2,1.7c0.9,0.8,1.6,1.7,2.1,2.9c0.5,1.2,0.7,2.5,0.7,4.1    c0,1.5-0.2,2.8-0.6,4c-0.4,1.1-1,2.1-1.8,2.9s-1.7,1.3-2.8,1.7c-1.1,0.4-2.3,0.6-3.7,0.6c-1,0-2-0.2-2.8-0.5v5.9    c-0.2,0.1-0.6,0.1-1.1,0.2c-0.5,0.1-1.1,0.1-1.6,0.1c-0.5,0-1,0-1.4-0.1c-0.4-0.1-0.8-0.2-1.1-0.4c-0.3-0.2-0.5-0.5-0.6-0.9    s-0.2-0.8-0.2-1.4v-17c0-0.6,0.1-1.2,0.4-1.6s0.6-0.8,1.1-1.1c0.7-0.5,1.6-0.9,2.7-1.1C215.8,96.9,217,96.7,218.3,96.7z     M218.4,110.3c2.4,0,3.7-1.5,3.7-4.4c0-1.5-0.3-2.6-0.9-3.4c-0.6-0.7-1.5-1.1-2.6-1.1c-0.5,0-0.9,0.1-1.2,0.2    c-0.4,0.1-0.7,0.2-0.9,0.4v7.8c0.3,0.1,0.6,0.3,0.9,0.4C217.7,110.3,218,110.3,218.4,110.3z"/>
		<path class="st1" d="M239,96.7c1.4,0,2.7,0.2,4,0.6c1.2,0.4,2.3,0.9,3.2,1.7c0.9,0.8,1.6,1.7,2.1,2.9c0.5,1.2,0.7,2.5,0.7,4.1    c0,1.5-0.2,2.8-0.6,4c-0.4,1.1-1,2.1-1.8,2.9s-1.7,1.3-2.8,1.7c-1.1,0.4-2.3,0.6-3.7,0.6c-1,0-2-0.2-2.8-0.5v5.9    c-0.2,0.1-0.6,0.1-1.1,0.2c-0.5,0.1-1.1,0.1-1.6,0.1c-0.5,0-1,0-1.4-0.1c-0.4-0.1-0.8-0.2-1-0.4c-0.3-0.2-0.5-0.5-0.6-0.9    s-0.2-0.8-0.2-1.4v-17c0-0.6,0.1-1.2,0.4-1.6c0.3-0.4,0.6-0.8,1.1-1.1c0.7-0.5,1.7-0.9,2.7-1.1C236.4,96.9,237.6,96.7,239,96.7z     M239,110.3c2.4,0,3.7-1.5,3.7-4.4c0-1.5-0.3-2.6-0.9-3.4c-0.6-0.7-1.5-1.1-2.6-1.1c-0.5,0-0.9,0.1-1.2,0.2    c-0.3,0.1-0.7,0.2-0.9,0.4v7.8c0.3,0.1,0.6,0.3,0.9,0.4C238.3,110.3,238.7,110.3,239,110.3z"/>
		<path class="st1" d="M269.6,105.9c0,1.5-0.2,2.8-0.7,3.9c-0.5,1.2-1.1,2.1-1.9,2.9c-0.8,0.8-1.8,1.4-2.9,1.8    c-1.1,0.4-2.4,0.6-3.8,0.6s-2.7-0.2-3.8-0.6c-1.1-0.4-2.1-1-2.9-1.8c-0.8-0.8-1.5-1.8-1.9-2.9c-0.4-1.1-0.7-2.4-0.7-3.8    s0.2-2.7,0.7-3.8s1.1-2.1,1.9-2.9c0.8-0.8,1.8-1.4,2.9-1.8c1.1-0.4,2.4-0.6,3.8-0.6s2.7,0.2,3.8,0.7c1.1,0.5,2.1,1.1,2.9,1.9    c0.8,0.8,1.5,1.8,1.9,2.9C269.3,103.5,269.6,104.5,269.6,105.9z M257.2,105.9c0,1.4,0.3,2.6,0.8,3.3c0.6,0.8,1.3,1.2,2.3,1.2    c1,0,1.8-0.4,2.3-1.2c0.5-0.8,0.8-1.9,0.8-3.3s-0.3-2.5-0.8-3.3c-0.5-0.8-1.3-1.2-2.3-1.2c-1,0-1.8,0.4-2.3,1.2    S257.2,104.5,257.2,105.9z"/>
		<path class="st1" d="M278.6,114.4c-0.2,0.1-0.6,0.1-1.1,0.2c-0.5,0.1-1,0.1-1.6,0.1c-0.5,0-1,0-1.4-0.1c-0.4-0.1-0.8-0.2-1-0.4    c-0.3-0.2-0.5-0.5-0.7-0.9c-0.2-0.4-0.2-0.8-0.2-1.4v-10.6c0-0.5,0.1-1,0.3-1.4c0.2-0.4,0.5-0.7,0.9-1.1c0.4-0.4,0.8-0.6,1.4-0.8    c0.6-0.2,1.2-0.5,1.8-0.7c0.6-0.2,1.3-0.3,2-0.4c0.7-0.1,1.4-0.2,2.1-0.2c1.1,0,2,0.2,2.7,0.7c0.7,0.4,1,1.2,1,2.2    c0,0.3,0,0.7-0.1,1c-0.1,0.3-0.2,0.6-0.4,0.9c-0.5,0-1,0-1.5,0.1c-0.5,0-1,0.1-1.5,0.2c-0.5,0.1-1,0.2-1.4,0.3    c-0.4,0.1-0.8,0.2-1.1,0.4v11.9H278.6z"/>
		<path class="st1" d="M293.1,108.6c0,0.6,0.2,1.1,0.6,1.3c0.4,0.3,0.9,0.4,1.7,0.4c0.4,0,0.7,0,1.1-0.1c0.4-0.1,0.7-0.1,1-0.2    c0.2,0.3,0.4,0.6,0.6,0.9s0.2,0.7,0.2,1.2c0,0.9-0.3,1.6-1,2.2s-1.9,0.9-3.6,0.9c-2.1,0-3.7-0.5-4.8-1.4c-1.1-0.9-1.7-2.5-1.7-4.6    V93.9c0.3-0.1,0.6-0.1,1.1-0.2c0.5-0.1,1-0.1,1.5-0.1c1,0,1.9,0.2,2.4,0.6c0.6,0.4,0.9,1.1,0.9,2.3v2.3h4.7c0.1,0.3,0.3,0.6,0.4,1    c0.1,0.4,0.2,0.8,0.2,1.3c0,0.8-0.2,1.4-0.6,1.8c-0.4,0.4-0.9,0.6-1.5,0.6h-3.2L293.1,108.6L293.1,108.6z"/>
		<path class="st0" d="M182.1,139.7c-0.6,0-1.2,0.1-1.7,0.3c-0.5,0.2-1,0.5-1.4,0.8c-0.4,0.3-0.7,0.8-0.9,1.4    c-0.2,0.6-0.4,1.2-0.4,1.9c0,1.5,0.4,2.6,1.3,3.3c0.8,0.7,1.9,1.1,3.1,1.1c0.7,0,1.3-0.1,1.9-0.2c0.5-0.2,1-0.3,1.4-0.5    c0.5,0.3,0.8,0.7,1.1,1.1c0.2,0.4,0.4,0.9,0.4,1.4c0,1-0.5,1.7-1.4,2.3c-0.9,0.5-2.2,0.8-3.8,0.8c-1.5,0-2.8-0.2-4.1-0.7    c-1.2-0.4-2.2-1.1-3.1-1.9c-0.9-0.8-1.5-1.8-2-2.9c-0.5-1.1-0.7-2.4-0.7-3.7c0-1.6,0.3-2.9,0.8-4.1c0.5-1.2,1.2-2.1,2.1-2.9    c0.9-0.8,1.9-1.3,3-1.7c1.2-0.4,2.4-0.6,3.6-0.6c1.7,0,3,0.3,4,0.9c0.9,0.6,1.4,1.4,1.4,2.4c0,0.5-0.1,0.9-0.3,1.3    c-0.2,0.4-0.5,0.7-0.7,1c-0.4-0.2-0.9-0.4-1.5-0.6C183.6,139.7,182.8,139.7,182.1,139.7z"/>
		<path class="st0" d="M198.3,153.3c-1.4,0-2.7-0.2-3.9-0.6c-1.2-0.4-2.2-1-3.1-1.8c-0.9-0.8-1.6-1.8-2.1-3    c-0.5-1.2-0.8-2.6-0.8-4.2c0-1.6,0.3-2.9,0.8-4c0.5-1.1,1.2-2.1,2-2.8s1.8-1.3,2.8-1.6c1-0.3,2.2-0.5,3.3-0.5    c1.3,0,2.4,0.2,3.4,0.6c1,0.4,1.9,0.9,2.7,1.6c0.7,0.7,1.3,1.5,1.7,2.4c0.4,0.9,0.6,1.9,0.6,3c0,0.8-0.2,1.4-0.7,1.9    c-0.5,0.4-1.1,0.7-1.9,0.8l-8.7,1.3c0.3,0.8,0.8,1.4,1.6,1.8c0.8,0.4,1.7,0.6,2.8,0.6c1,0,1.9-0.1,2.8-0.4    c0.9-0.2,1.6-0.5,2.1-0.9c0.4,0.2,0.7,0.6,1,1c0.3,0.4,0.4,0.9,0.4,1.4c0,1.1-0.5,1.9-1.5,2.4c-0.8,0.4-1.6,0.7-2.6,0.8    C199.9,153.2,199.1,153.3,198.3,153.3z M197.3,139.4c-0.6,0-1.1,0.1-1.5,0.3c-0.4,0.2-0.8,0.4-1,0.7c-0.3,0.3-0.5,0.6-0.6,1    c-0.1,0.4-0.2,0.7-0.2,1.1l6.1-1c-0.1-0.5-0.3-0.9-0.8-1.4C198.8,139.6,198.2,139.4,197.3,139.4z"/>
		<path class="st0" d="M219.5,141.8c0-0.7-0.2-1.3-0.6-1.6c-0.4-0.3-1-0.5-1.7-0.5c-0.5,0-0.9,0.1-1.4,0.2c-0.5,0.1-0.9,0.3-1.2,0.5    v12.3c-0.2,0.1-0.6,0.1-1.1,0.2s-1,0.1-1.6,0.1c-0.5,0-1,0-1.4-0.1c-0.4-0.1-0.8-0.2-1-0.4c-0.3-0.2-0.5-0.5-0.7-0.9    c-0.2-0.4-0.2-0.8-0.2-1.4v-10.7c0-0.6,0.1-1.2,0.4-1.6c0.3-0.4,0.6-0.8,1.1-1.1c0.8-0.6,1.8-1,3-1.4c1.2-0.4,2.6-0.5,4.1-0.5    c2.7,0,4.7,0.6,6.2,1.8c1.4,1.2,2.2,2.8,2.2,4.9v11c-0.2,0.1-0.6,0.1-1.1,0.2c-0.5,0.1-1,0.1-1.6,0.1c-0.5,0-1,0-1.4-0.1    c-0.4-0.1-0.8-0.2-1-0.4c-0.3-0.2-0.5-0.5-0.7-0.9c-0.2-0.4-0.2-0.8-0.2-1.4L219.5,141.8L219.5,141.8z"/>
		<path class="st0" d="M235.3,146.8c0,0.6,0.2,1.1,0.6,1.3c0.4,0.3,0.9,0.4,1.7,0.4c0.4,0,0.7,0,1.1-0.1c0.4-0.1,0.7-0.1,1-0.2    c0.2,0.3,0.4,0.6,0.6,0.9s0.2,0.7,0.2,1.2c0,0.9-0.3,1.6-1,2.2s-1.9,0.9-3.6,0.9c-2.1,0-3.7-0.5-4.8-1.4c-1.1-0.9-1.7-2.5-1.7-4.6    v-15.1c0.3-0.1,0.6-0.1,1.1-0.2c0.5-0.1,1-0.1,1.5-0.1c1,0,1.9,0.2,2.4,0.6c0.6,0.4,0.9,1.1,0.9,2.3v2.3h4.7    c0.1,0.3,0.3,0.6,0.4,1c0.1,0.4,0.2,0.8,0.2,1.3c0,0.8-0.2,1.4-0.6,1.8c-0.4,0.4-0.9,0.6-1.5,0.6h-3.2L235.3,146.8L235.3,146.8z"/>
		<path class="st0" d="M249.4,152.7c-0.2,0.1-0.6,0.1-1.1,0.2c-0.5,0.1-1,0.1-1.6,0.1c-0.5,0-1,0-1.4-0.1c-0.4-0.1-0.8-0.2-1.1-0.4    c-0.3-0.2-0.5-0.5-0.7-0.9c-0.2-0.4-0.2-0.8-0.2-1.4v-10.7c0-0.5,0.1-1,0.3-1.4c0.2-0.4,0.5-0.7,0.9-1.1c0.4-0.3,0.8-0.6,1.4-0.8    c0.6-0.2,1.2-0.5,1.8-0.7c0.6-0.2,1.3-0.3,2-0.4c0.7-0.1,1.4-0.2,2.1-0.2c1.1,0,2,0.2,2.7,0.7c0.7,0.4,1,1.2,1,2.2    c0,0.3,0,0.7-0.1,1c-0.1,0.3-0.2,0.6-0.4,0.9c-0.5,0-1,0-1.5,0.1c-0.5,0-1,0.1-1.5,0.2c-0.5,0.1-1,0.2-1.4,0.3    c-0.4,0.1-0.8,0.2-1.1,0.4L249.4,152.7L249.4,152.7z"/>
		<path class="st0" d="M266.4,153.3c-1.4,0-2.7-0.2-3.9-0.6c-1.2-0.4-2.2-1-3.1-1.8c-0.9-0.8-1.6-1.8-2.1-3    c-0.5-1.2-0.8-2.6-0.8-4.2c0-1.6,0.3-2.9,0.8-4c0.5-1.1,1.2-2.1,2-2.8c0.8-0.7,1.8-1.3,2.8-1.6c1-0.3,2.2-0.5,3.3-0.5    c1.3,0,2.4,0.2,3.4,0.6c1,0.4,1.9,0.9,2.7,1.6c0.7,0.7,1.3,1.5,1.7,2.4c0.4,0.9,0.6,1.9,0.6,3c0,0.8-0.2,1.4-0.7,1.9    c-0.5,0.4-1.1,0.7-1.9,0.8l-8.6,1.3c0.3,0.8,0.8,1.4,1.6,1.8c0.8,0.4,1.7,0.6,2.8,0.6c1,0,1.9-0.1,2.8-0.4    c0.9-0.2,1.6-0.5,2.1-0.9c0.4,0.2,0.7,0.6,1,1c0.3,0.4,0.4,0.9,0.4,1.4c0,1.1-0.5,1.9-1.5,2.4c-0.8,0.4-1.6,0.7-2.6,0.8    C268.1,153.2,267.2,153.3,266.4,153.3z M265.4,139.4c-0.6,0-1.1,0.1-1.5,0.3c-0.4,0.2-0.8,0.4-1,0.7c-0.3,0.3-0.5,0.6-0.6,1    c-0.1,0.4-0.2,0.7-0.2,1.1l6.1-1c-0.1-0.5-0.3-0.9-0.8-1.4C266.9,139.6,266.3,139.4,265.4,139.4z"/>
	</g>
	<g>
		<path class="st0" d="M131,27.7v48.2c0,28.8-22.1,53.2-50.8,55.1c-32.4,2.1-59.2-24.4-57.8-56.7c1.2-27.6,23.4-50.1,50.9-51.8    c12.7-0.8,24.6,2.9,34.3,9.6c1.5,1,3.6,0,3.6-1.9V13.1c0-3.1-1.8-5.8-4.7-7C96.2,1.7,84.8-0.5,72.8,0.1C32.7,2.1,0.6,35.3,0,75.4    c-0.7,43.4,34.7,78.7,78.2,77.9c40.9-0.8,74.3-34.2,75.1-75.1c0.4-19.9-6.8-38-18.8-51.8C133.3,25,131,25.8,131,27.7z"/>
		<path class="st0" d="M42.2,76.7c0,19,15.5,34.5,34.5,34.5c19,0,34.5-15.5,34.5-34.5S95.7,42.2,76.7,42.2    C57.7,42.2,42.2,57.7,42.2,76.7z"/>
		<g>
			<path id="caret-right-solid_1_" class="st1" d="M127.6,149.2l21.7-21.7c0.9-0.9,2.5-0.9,3.4,0c0.5,0.5,0.7,1.1,0.7,1.7v21.7     c0,1.3-1.1,2.4-2.4,2.4l0,0h-21.7c-1.3,0-2.4-1.1-2.4-2.4C126.9,150.2,127.2,149.6,127.6,149.2z"/>
			
				<linearGradient id="SVGID_1_" gradientUnits="userSpaceOnUse" x1="140.4299" y1="12.9565" x2="143.5691" y2="9.922" gradientTransform="matrix(1 0 0 -1 0 153.2874)">
				<stop offset="0" style="stop-color:#FFFFFF;stop-opacity:0.7"/>
				<stop offset="0.9888" style="stop-color:#FFFFFF;stop-opacity:0"/>
			</linearGradient>
			<polygon class="st2" points="130.3,150.4 150.5,130.2 150.5,150.4    "/>
		</g>
	</g>
	<linearGradient id="SVGID_2_" gradientUnits="userSpaceOnUse" x1="57.7259" y1="57.726" x2="69.2355" y2="69.2356">
		<stop offset="0" style="stop-color:#FFFFFF"/>
		<stop offset="1" style="stop-color:#FFFFFF;stop-opacity:0"/>
	</linearGradient>
	<path class="st3" d="M49,76.7c0,15.3,12.4,27.7,27.7,27.7c15.3,0,27.7-12.4,27.7-27.7S91.9,49,76.7,49C61.4,49,49,61.4,49,76.7z"/>
</g>
</svg>