<?xml version="1.0" encoding="utf-8"?>
<!-- Generator: Adobe Illustrator 24.1.1, SVG Export Plug-In . SVG Version: 6.00 Build 0)  -->
<svg version="1.1" id="Layer_1" xmlns="http://www.w3.org/2000/svg" xmlns:xlink="http://www.w3.org/1999/xlink" x="0px" y="0px"
	 width="119.5px" height="73.84px" viewBox="0 0 119.5 73.84" style="enable-background:new 0 0 119.5 73.84;" xml:space="preserve"
	>
<style type="text/css">
	.st0{fill:#363636;}
	.st1{fill:#032E3F;}
	.st2{fill:none;stroke:#FFFFFF;stroke-width:3;}
	.st3{fill:#FFFFFF;}
	.st4{fill:#931825;}
	.st5{fill:url(#SVGID_1_);}
	.st6{fill:url(#SVGID_2_);}
	.st7{fill:url(#SVGID_3_);}
	.st8{fill:url(#SVGID_4_);}
	.st9{fill:url(#SVGID_5_);}
	.st10{fill:#112F3F;}
	.st11{fill:url(#SVGID_6_);}
	.st12{fill:url(#SVGID_7_);}
	.st13{fill:url(#SVGID_8_);}
	.st14{fill:url(#SVGID_9_);}
	.st15{fill:url(#SVGID_10_);}
	.st16{fill:url(#SVGID_11_);}
	.st17{fill:#3E3A38;}
	.st18{fill:#006A90;}
	.st19{fill:#01A3CE;}
	.st20{fill:#141414;}
	.st21{enable-background:new    ;}
</style>
<g>
	<rect x="0" y="5.71" class="st3" width="1.42" height="62.33"/>
	<g class="st21">
		<path class="st3" d="M7.2,37.02v-1.34h9.6v1.34h-4.01v10.67h-1.6V37.02H7.2z"/>
		<path class="st3" d="M19.3,35.69v4.58h0.04c0.1-0.27,0.27-0.49,0.47-0.68c0.21-0.19,0.43-0.33,0.68-0.45
			c0.25-0.12,0.51-0.21,0.78-0.27c0.27-0.06,0.53-0.08,0.8-0.08c0.58,0,1.05,0.08,1.44,0.23c0.39,0.16,0.7,0.37,0.93,0.66
			c0.23,0.29,0.39,0.62,0.49,1.01c0.1,0.39,0.14,0.82,0.14,1.3v5.72h-1.44v-5.88c0-0.53-0.16-0.97-0.47-1.27s-0.74-0.47-1.3-0.47
			c-0.43,0-0.82,0.06-1.13,0.21c-0.33,0.14-0.58,0.33-0.8,0.58c-0.21,0.25-0.37,0.53-0.47,0.86c-0.1,0.33-0.16,0.7-0.16,1.09v4.91
			h-1.44V35.71h1.44V35.69z"/>
		<path class="st3" d="M33.39,47.14c-0.66,0.49-1.46,0.74-2.45,0.74c-0.7,0-1.3-0.1-1.81-0.33c-0.51-0.23-0.95-0.53-1.3-0.95
			c-0.35-0.41-0.62-0.88-0.78-1.44c-0.16-0.56-0.27-1.17-0.29-1.83c0-0.66,0.1-1.27,0.31-1.81c0.21-0.56,0.49-1.03,0.84-1.44
			c0.37-0.41,0.8-0.72,1.3-0.95c0.49-0.23,1.05-0.33,1.64-0.33c0.78,0,1.42,0.16,1.93,0.47c0.51,0.33,0.93,0.72,1.23,1.21
			c0.31,0.49,0.51,1.03,0.64,1.62c0.12,0.58,0.16,1.13,0.14,1.67h-6.52c-0.02,0.39,0.04,0.74,0.14,1.09c0.1,0.35,0.27,0.64,0.49,0.9
			c0.23,0.27,0.51,0.47,0.86,0.64c0.35,0.16,0.76,0.23,1.23,0.23c0.6,0,1.11-0.14,1.48-0.41c0.39-0.29,0.64-0.7,0.76-1.27h1.42
			C34.45,45.9,34.02,46.64,33.39,47.14z M33.04,41.54c-0.12-0.31-0.31-0.56-0.51-0.78c-0.23-0.23-0.47-0.39-0.78-0.51
			c-0.29-0.12-0.62-0.19-0.99-0.19s-0.7,0.06-1.01,0.19c-0.29,0.12-0.56,0.31-0.76,0.53c-0.21,0.23-0.39,0.49-0.51,0.78
			c-0.12,0.29-0.21,0.62-0.23,0.95h5C33.24,42.18,33.16,41.85,33.04,41.54z"/>
		<path class="st3" d="M42.82,35.69v12.01h-1.6V35.69H42.82z"/>
		<path class="st3" d="M46.63,39v1.38h0.04c0.6-1.05,1.54-1.58,2.82-1.58c0.58,0,1.05,0.08,1.44,0.23c0.39,0.16,0.7,0.37,0.93,0.66
			c0.23,0.29,0.39,0.62,0.49,1.01c0.1,0.39,0.14,0.82,0.14,1.3v5.72h-1.44v-5.88c0-0.53-0.16-0.97-0.47-1.27s-0.74-0.47-1.3-0.47
			c-0.43,0-0.82,0.06-1.13,0.21c-0.33,0.14-0.58,0.33-0.8,0.58c-0.21,0.25-0.37,0.53-0.47,0.86c-0.1,0.33-0.16,0.7-0.16,1.09v4.91
			h-1.44V39H46.63z"/>
		<path class="st3" d="M55.73,45.74c0.14,0.23,0.31,0.39,0.53,0.51c0.23,0.12,0.47,0.23,0.74,0.27c0.27,0.06,0.56,0.08,0.84,0.08
			c0.23,0,0.45-0.02,0.7-0.04c0.25-0.04,0.47-0.1,0.68-0.19s0.37-0.23,0.51-0.39c0.14-0.16,0.21-0.39,0.21-0.66
			c0-0.37-0.14-0.66-0.41-0.84c-0.29-0.19-0.64-0.35-1.05-0.45c-0.41-0.12-0.88-0.23-1.38-0.33c-0.49-0.1-0.95-0.23-1.38-0.41
			c-0.41-0.16-0.76-0.41-1.05-0.74c-0.29-0.31-0.41-0.76-0.41-1.32c0-0.43,0.1-0.82,0.29-1.13c0.21-0.31,0.45-0.58,0.76-0.76
			c0.31-0.21,0.66-0.35,1.05-0.43c0.39-0.1,0.76-0.14,1.15-0.14c0.49,0,0.95,0.04,1.36,0.12c0.41,0.08,0.78,0.23,1.11,0.43
			c0.33,0.21,0.58,0.49,0.76,0.84c0.19,0.35,0.31,0.8,0.33,1.32h-1.44c-0.02-0.29-0.1-0.51-0.23-0.7s-0.29-0.33-0.47-0.45
			c-0.19-0.1-0.41-0.19-0.64-0.25C58.08,40.04,57.85,40,57.6,40c-0.21,0-0.43,0.02-0.64,0.04c-0.23,0.04-0.41,0.1-0.6,0.19
			c-0.19,0.08-0.33,0.21-0.43,0.33c-0.1,0.14-0.16,0.33-0.16,0.56c0,0.25,0.08,0.45,0.27,0.62c0.16,0.16,0.39,0.29,0.66,0.41
			c0.27,0.1,0.58,0.21,0.9,0.27c0.33,0.06,0.68,0.14,1.01,0.23c0.35,0.08,0.7,0.16,1.05,0.29c0.35,0.1,0.64,0.27,0.9,0.45
			c0.27,0.19,0.47,0.41,0.64,0.7c0.16,0.29,0.25,0.64,0.25,1.05c0,0.53-0.1,0.97-0.33,1.32c-0.23,0.35-0.51,0.64-0.86,0.84
			c-0.35,0.21-0.76,0.37-1.19,0.45c-0.45,0.08-0.88,0.12-1.32,0.12c-0.47,0-0.95-0.04-1.38-0.14s-0.82-0.27-1.15-0.49
			c-0.33-0.23-0.6-0.53-0.8-0.9s-0.31-0.82-0.33-1.38h1.44C55.53,45.27,55.59,45.53,55.73,45.74z"/>
		<path class="st3" d="M62.85,41.56c0.19-0.56,0.45-1.03,0.8-1.44c0.35-0.41,0.8-0.74,1.34-0.97s1.13-0.35,1.81-0.35
			c0.7,0,1.3,0.12,1.83,0.35c0.51,0.23,0.97,0.56,1.32,0.97c0.35,0.41,0.64,0.88,0.8,1.44c0.19,0.56,0.27,1.15,0.27,1.79
			s-0.08,1.23-0.27,1.79s-0.45,1.03-0.8,1.44c-0.35,0.41-0.8,0.72-1.32,0.97c-0.51,0.23-1.13,0.35-1.83,0.35
			c-0.68,0-1.3-0.12-1.81-0.35c-0.53-0.23-0.97-0.56-1.34-0.97c-0.35-0.41-0.64-0.88-0.8-1.44c-0.19-0.56-0.27-1.15-0.27-1.79
			S62.66,42.12,62.85,41.56z M64.28,44.75c0.14,0.41,0.33,0.76,0.58,1.03c0.25,0.27,0.53,0.49,0.86,0.64
			c0.33,0.14,0.68,0.23,1.05,0.23c0.37,0,0.72-0.08,1.05-0.23c0.33-0.14,0.62-0.35,0.86-0.64c0.25-0.27,0.43-0.62,0.58-1.03
			s0.21-0.88,0.21-1.4c0-0.53-0.06-0.99-0.21-1.4c-0.14-0.41-0.33-0.76-0.58-1.03c-0.25-0.29-0.53-0.49-0.86-0.64
			c-0.33-0.14-0.68-0.23-1.05-0.23c-0.37,0-0.72,0.08-1.05,0.23c-0.33,0.14-0.62,0.35-0.86,0.64c-0.25,0.29-0.43,0.62-0.58,1.03
			c-0.14,0.41-0.21,0.88-0.21,1.4S64.16,44.34,64.28,44.75z"/>
		<path class="st3" d="M74.21,35.69v12.01h-1.44V35.69H74.21z"/>
		<path class="st3" d="M78.82,47.69L75.59,39h1.6l2.45,7.24h0.04L82.05,39h1.5l-3.19,8.7H78.82z"/>
		<path class="st3" d="M90.99,47.14c-0.66,0.49-1.46,0.74-2.45,0.74c-0.7,0-1.3-0.1-1.81-0.33s-0.95-0.53-1.3-0.95
			c-0.35-0.41-0.62-0.88-0.78-1.44c-0.16-0.56-0.27-1.17-0.29-1.83c0-0.66,0.1-1.27,0.31-1.81c0.21-0.56,0.49-1.03,0.84-1.44
			c0.37-0.41,0.8-0.72,1.3-0.95c0.49-0.23,1.05-0.33,1.64-0.33c0.78,0,1.42,0.16,1.93,0.47c0.51,0.33,0.93,0.72,1.23,1.21
			c0.31,0.49,0.51,1.03,0.64,1.62c0.12,0.58,0.16,1.13,0.14,1.67h-6.52c-0.02,0.39,0.04,0.74,0.14,1.09c0.1,0.35,0.27,0.64,0.49,0.9
			s0.51,0.47,0.86,0.64c0.35,0.16,0.76,0.23,1.23,0.23c0.6,0,1.11-0.14,1.48-0.41c0.39-0.29,0.64-0.7,0.76-1.27h1.42
			C92.06,45.9,91.63,46.64,90.99,47.14z M90.64,41.54c-0.12-0.31-0.31-0.56-0.51-0.78c-0.23-0.23-0.47-0.39-0.78-0.51
			c-0.29-0.12-0.62-0.19-0.99-0.19s-0.7,0.06-1.01,0.19c-0.29,0.12-0.56,0.31-0.76,0.53c-0.21,0.23-0.39,0.49-0.51,0.78
			c-0.12,0.29-0.21,0.62-0.23,0.95h5C90.85,42.18,90.76,41.85,90.64,41.54z"/>
		<path class="st3" d="M95.2,39v1.38h0.04c0.6-1.05,1.54-1.58,2.82-1.58c0.58,0,1.05,0.08,1.44,0.23c0.39,0.16,0.7,0.37,0.93,0.66
			c0.23,0.29,0.39,0.62,0.49,1.01c0.1,0.39,0.14,0.82,0.14,1.3v5.72h-1.44v-5.88c0-0.53-0.16-0.97-0.47-1.27
			c-0.31-0.31-0.74-0.47-1.3-0.47c-0.43,0-0.82,0.06-1.13,0.21c-0.33,0.14-0.6,0.33-0.8,0.58c-0.21,0.25-0.37,0.53-0.47,0.86
			c-0.1,0.33-0.16,0.7-0.16,1.09v4.91h-1.44V39H95.2z"/>
		<path class="st3" d="M108.4,40.52c-0.35-0.31-0.84-0.45-1.44-0.45c-0.51,0-0.95,0.1-1.3,0.29s-0.62,0.45-0.82,0.76
			c-0.21,0.31-0.35,0.68-0.45,1.09c-0.08,0.41-0.14,0.82-0.14,1.27c0,0.41,0.04,0.8,0.14,1.17c0.1,0.39,0.25,0.72,0.45,1.01
			c0.21,0.29,0.47,0.53,0.78,0.72c0.33,0.19,0.72,0.27,1.15,0.27c0.7,0,1.25-0.19,1.67-0.56c0.39-0.37,0.64-0.88,0.74-1.56h1.46
			c-0.16,1.07-0.56,1.91-1.19,2.49c-0.64,0.58-1.52,0.88-2.63,0.88c-0.66,0-1.25-0.1-1.75-0.33c-0.51-0.21-0.95-0.51-1.27-0.9
			c-0.35-0.39-0.6-0.86-0.78-1.4c-0.16-0.53-0.27-1.13-0.27-1.79c0-0.66,0.08-1.25,0.25-1.83c0.16-0.58,0.43-1.07,0.76-1.48
			c0.35-0.41,0.76-0.76,1.3-0.99c0.51-0.25,1.11-0.37,1.81-0.37c0.49,0,0.95,0.06,1.38,0.19c0.43,0.12,0.82,0.31,1.15,0.56
			s0.6,0.56,0.82,0.93c0.21,0.37,0.35,0.82,0.41,1.34h-1.48C109,41.24,108.77,40.8,108.4,40.52z"/>
		<path class="st3" d="M115.66,48.84c-0.16,0.43-0.33,0.78-0.49,1.07c-0.16,0.29-0.35,0.53-0.53,0.72
			c-0.21,0.19-0.41,0.33-0.66,0.41s-0.51,0.12-0.82,0.12c-0.16,0-0.33-0.02-0.51-0.04c-0.16-0.02-0.33-0.06-0.49-0.12v-1.32
			c0.12,0.06,0.27,0.1,0.43,0.14c0.16,0.04,0.31,0.06,0.41,0.06c0.29,0,0.53-0.06,0.74-0.21c0.21-0.14,0.35-0.33,0.45-0.6l0.6-1.46
			L111.32,39h1.62l2.55,7.11h0.04l2.45-7.11h1.52L115.66,48.84z"/>
	</g>
	<g class="st21">
		<path class="st3" d="M14.47,57.5c-0.53-0.39-1.21-0.58-2.04-0.58c-0.33,0-0.66,0.04-0.99,0.1s-0.62,0.19-0.86,0.33
			c-0.25,0.16-0.45,0.37-0.6,0.64c-0.14,0.27-0.23,0.6-0.23,0.99c0,0.37,0.1,0.68,0.33,0.9c0.23,0.23,0.51,0.41,0.88,0.56
			c0.37,0.14,0.78,0.27,1.23,0.37c0.45,0.1,0.93,0.21,1.4,0.31c0.47,0.1,0.95,0.25,1.4,0.39c0.45,0.14,0.86,0.35,1.23,0.62
			s0.66,0.58,0.88,0.97c0.23,0.39,0.33,0.88,0.33,1.48c0,0.64-0.14,1.19-0.43,1.64s-0.66,0.82-1.11,1.11
			c-0.45,0.29-0.95,0.49-1.5,0.62c-0.56,0.12-1.11,0.19-1.67,0.19c-0.68,0-1.32-0.08-1.91-0.25c-0.6-0.16-1.13-0.43-1.58-0.76
			c-0.45-0.35-0.82-0.78-1.07-1.32c-0.27-0.53-0.39-1.17-0.39-1.89h1.52c0,0.51,0.1,0.95,0.29,1.3c0.21,0.37,0.45,0.66,0.78,0.9
			c0.33,0.23,0.7,0.41,1.11,0.51c0.43,0.1,0.86,0.16,1.32,0.16c0.35,0,0.72-0.04,1.09-0.1s0.7-0.19,0.99-0.35
			c0.29-0.16,0.53-0.39,0.7-0.66c0.19-0.29,0.27-0.64,0.27-1.07c0-0.41-0.1-0.76-0.33-1.01c-0.23-0.27-0.51-0.47-0.88-0.64
			c-0.37-0.16-0.78-0.29-1.23-0.39c-0.45-0.1-0.93-0.21-1.4-0.31c-0.47-0.1-0.95-0.23-1.4-0.37c-0.45-0.14-0.86-0.33-1.23-0.56
			C9,61.12,8.72,60.81,8.49,60.46c-0.23-0.37-0.33-0.82-0.33-1.38c0-0.6,0.12-1.13,0.37-1.56c0.25-0.45,0.58-0.8,0.99-1.09
			c0.41-0.29,0.88-0.49,1.4-0.64c0.51-0.14,1.05-0.21,1.6-0.21c0.62,0,1.19,0.08,1.71,0.23c0.53,0.14,0.99,0.37,1.38,0.7
			c0.39,0.31,0.72,0.7,0.95,1.19c0.23,0.47,0.35,1.05,0.37,1.71H15.4C15.32,58.5,15.01,57.87,14.47,57.5z"/>
		<path class="st3" d="M25.29,67.3c-0.66,0.49-1.46,0.74-2.45,0.74c-0.7,0-1.3-0.1-1.81-0.33c-0.51-0.23-0.95-0.53-1.3-0.95
			c-0.35-0.41-0.62-0.88-0.78-1.44s-0.27-1.17-0.29-1.83c0-0.66,0.1-1.27,0.31-1.81c0.21-0.56,0.49-1.03,0.84-1.44
			c0.37-0.41,0.8-0.72,1.3-0.95c0.49-0.23,1.05-0.33,1.64-0.33c0.78,0,1.42,0.16,1.93,0.47c0.51,0.33,0.93,0.72,1.23,1.21
			s0.51,1.03,0.64,1.62c0.12,0.58,0.16,1.13,0.14,1.67h-6.52c-0.02,0.39,0.04,0.74,0.14,1.09c0.1,0.35,0.27,0.64,0.49,0.9
			c0.23,0.27,0.51,0.47,0.86,0.64c0.35,0.16,0.76,0.23,1.23,0.23c0.6,0,1.11-0.14,1.48-0.41c0.39-0.29,0.64-0.7,0.76-1.27h1.42
			C26.36,66.07,25.92,66.81,25.29,67.3z M24.94,61.71c-0.12-0.31-0.31-0.56-0.51-0.78c-0.23-0.23-0.47-0.39-0.78-0.51
			c-0.29-0.12-0.62-0.19-0.99-0.19s-0.7,0.06-1.01,0.19c-0.29,0.12-0.56,0.31-0.76,0.53c-0.21,0.23-0.39,0.49-0.51,0.78
			c-0.12,0.29-0.21,0.62-0.23,0.95h5C25.14,62.35,25.06,62.02,24.94,61.71z"/>
		<path class="st3" d="M29.44,59.16v1.83h0.04c0.35-0.7,0.78-1.23,1.27-1.56c0.49-0.33,1.15-0.49,1.91-0.47v1.52
			c-0.58,0-1.07,0.08-1.46,0.23c-0.41,0.16-0.72,0.39-0.97,0.7c-0.25,0.31-0.43,0.68-0.53,1.11s-0.16,0.93-0.16,1.48v3.86H28.1v-8.7
			H29.44z"/>
		<path class="st3" d="M36.14,67.86l-3.23-8.7h1.6l2.45,7.24H37l2.36-7.24h1.5l-3.19,8.7H36.14z"/>
		<path class="st3" d="M42.25,57.6v-1.75h1.44v1.75H42.25z M43.66,59.16v8.7h-1.44v-8.7H43.66z"/>
		<path class="st3" d="M51.09,60.68c-0.35-0.31-0.84-0.45-1.44-0.45c-0.51,0-0.95,0.1-1.3,0.29c-0.35,0.19-0.62,0.45-0.82,0.76
			c-0.21,0.31-0.35,0.68-0.45,1.09c-0.08,0.41-0.14,0.82-0.14,1.27c0,0.41,0.04,0.8,0.14,1.17c0.1,0.39,0.25,0.72,0.45,1.01
			c0.21,0.29,0.47,0.53,0.78,0.72c0.33,0.19,0.72,0.27,1.15,0.27c0.7,0,1.25-0.19,1.67-0.56c0.39-0.37,0.64-0.88,0.74-1.56h1.46
			c-0.16,1.07-0.56,1.91-1.19,2.49c-0.64,0.58-1.52,0.88-2.63,0.88c-0.66,0-1.25-0.1-1.75-0.33c-0.51-0.21-0.95-0.51-1.27-0.9
			c-0.35-0.39-0.6-0.86-0.78-1.4c-0.16-0.53-0.27-1.13-0.27-1.79s0.08-1.25,0.25-1.83s0.43-1.07,0.76-1.48
			c0.35-0.41,0.76-0.76,1.3-0.99c0.51-0.25,1.11-0.37,1.81-0.37c0.49,0,0.95,0.06,1.38,0.19c0.43,0.12,0.82,0.31,1.15,0.56
			s0.6,0.56,0.82,0.93c0.21,0.37,0.35,0.82,0.41,1.34h-1.48C51.68,61.4,51.44,60.97,51.09,60.68z"/>
		<path class="st3" d="M61.08,67.3c-0.66,0.49-1.46,0.74-2.45,0.74c-0.7,0-1.3-0.1-1.81-0.33c-0.51-0.23-0.95-0.53-1.3-0.95
			c-0.35-0.41-0.62-0.88-0.78-1.44s-0.27-1.17-0.29-1.83c0-0.66,0.1-1.27,0.31-1.81c0.21-0.56,0.49-1.03,0.84-1.44
			c0.37-0.41,0.8-0.72,1.3-0.95s1.05-0.33,1.64-0.33c0.78,0,1.42,0.16,1.93,0.47c0.51,0.33,0.93,0.72,1.23,1.21s0.51,1.03,0.64,1.62
			c0.12,0.58,0.16,1.13,0.14,1.67h-6.52c-0.02,0.39,0.04,0.74,0.14,1.09c0.1,0.35,0.27,0.64,0.49,0.9s0.51,0.47,0.86,0.64
			c0.35,0.16,0.76,0.23,1.23,0.23c0.6,0,1.11-0.14,1.48-0.41c0.39-0.29,0.64-0.7,0.76-1.27h1.42C62.15,66.07,61.71,66.81,61.08,67.3
			z M60.73,61.71c-0.12-0.31-0.31-0.56-0.51-0.78c-0.23-0.23-0.47-0.39-0.78-0.51c-0.29-0.12-0.62-0.19-0.99-0.19
			c-0.37,0-0.7,0.06-1.01,0.19c-0.29,0.12-0.56,0.31-0.76,0.53s-0.39,0.49-0.51,0.78c-0.12,0.29-0.21,0.62-0.23,0.95h5
			C60.93,62.35,60.85,62.02,60.73,61.71z"/>
	</g>
	<g id="g3093_1_" transform="matrix(1.2700026,0,0,-1.2700026,-350.48962,427.55068)">
		<g id="g3551_1_" transform="matrix(1.0089141,0,0,1.0089141,362.11571,-731.87265)">
			<g id="g3111_1_" transform="translate(76.2633,810.1241)">
				<path id="path3113_1_" class="st3" d="M-146.34,241.36c-0.1-0.21-0.21-0.33-0.19-0.47c0.02-0.16,0.19-0.27,0.25-0.43
					c0.06,0.19,0.19,0.33,0.16,0.47C-146.09,241.07-146.3,241.26-146.34,241.36"/>
			</g>
			<g id="g3115_1_" transform="translate(80.777,810.1241)">
				<path id="path3117_1_" class="st3" d="M-148.13,241.36c0.1-0.21,0.21-0.33,0.19-0.47c-0.02-0.16-0.19-0.27-0.25-0.43
					c-0.06,0.19-0.19,0.33-0.16,0.47C-148.36,241.07-148.17,241.26-148.13,241.36"/>
			</g>
			<g id="g3119_1_" transform="translate(73.6659,810.3188)">
				<path id="path3121_1_" class="st3" d="M-145.3,241.29c0.1,0,0.19,0.08,0.19,0.19c0,0.1-0.08,0.19-0.19,0.19
					c-0.1,0-0.19-0.08-0.19-0.19C-145.49,241.37-145.4,241.29-145.3,241.29"/>
			</g>
			<g id="g3123_1_" transform="translate(73.8695,809.8832)">
				<path id="path3125_1_" class="st3" d="M-145.38,241.45c0,0.1-0.08,0.19-0.19,0.19s-0.19-0.08-0.19-0.19
					c0-0.1,0.08-0.19,0.19-0.19C-145.46,241.28-145.38,241.35-145.38,241.45"/>
			</g>
			<g id="g3127_1_" transform="translate(74.0184,809.1441)">
				<path id="path3129_1_" class="st3" d="M-145.44,241.75c0,0.1-0.08,0.19-0.19,0.19c-0.1,0-0.19-0.08-0.19-0.19
					c0-0.1,0.08-0.19,0.19-0.19C-145.52,241.56-145.44,241.65-145.44,241.75"/>
			</g>
			<g id="g3131_1_" transform="translate(75.3542,811.7728)">
				<path id="path3133_1_" class="st3" d="M-145.96,240.71c0.1,0,0.19,0.08,0.19,0.19c0,0.1-0.08,0.19-0.19,0.19
					c-0.1,0-0.19-0.08-0.19-0.19C-146.15,240.79-146.07,240.71-145.96,240.71"/>
			</g>
			<g id="g3135_1_" transform="translate(74.5958,811.539)">
				<path id="path3137_1_" class="st3" d="M-145.67,240.79c0.1,0,0.19,0.08,0.19,0.19c0,0.1-0.08,0.19-0.19,0.19
					c-0.1,0-0.19-0.08-0.19-0.19C-145.85,240.87-145.77,240.79-145.67,240.79"/>
			</g>
			<g id="g3139_1_" transform="translate(73.9997,811.0167)">
				<path id="path3141_1_" class="st3" d="M-145.42,241c0.1,0,0.19,0.08,0.19,0.19s-0.08,0.19-0.19,0.19c-0.1,0-0.19-0.08-0.19-0.19
					S-145.52,241-145.42,241"/>
			</g>
			<g id="g3143_1_" transform="translate(76.1498,811.6996)">
				<path id="path3145_1_" class="st3" d="M-146.29,240.73c0.1,0,0.19,0.08,0.19,0.19c0,0.1-0.08,0.19-0.19,0.19
					s-0.19-0.08-0.19-0.19S-146.39,240.73-146.29,240.73"/>
			</g>
			<g id="g3147_1_" transform="translate(76.9063,811.4808)">
				<path id="path3149_1_" class="st3" d="M-146.58,240.82c0.1,0,0.19,0.08,0.19,0.19c0,0.1-0.08,0.19-0.19,0.19
					c-0.1,0-0.19-0.08-0.19-0.19C-146.76,240.9-146.68,240.82-146.58,240.82"/>
			</g>
			<g id="g3151_1_" transform="translate(77.618,811.1467)">
				<path id="path3153_1_" class="st3" d="M-146.88,240.96c0.1,0,0.19,0.08,0.19,0.19c0,0.1-0.08,0.19-0.19,0.19
					c-0.1,0-0.19-0.08-0.19-0.19C-147.06,241.04-146.98,240.96-146.88,240.96"/>
			</g>
			<g id="g3155_1_" transform="translate(83.0592,810.624)">
				<path id="path3157_1_" class="st3" d="M-149.04,241.17c0-0.1,0.08-0.19,0.19-0.19c0.1,0,0.19,0.08,0.19,0.19
					s-0.08,0.19-0.19,0.19C-148.96,241.35-149.04,241.27-149.04,241.17"/>
			</g>
			<g id="g3159_1_" transform="translate(83.4658,810.1884)">
				<path id="path3161_1_" class="st3" d="M-149.2,241.33c-0.1,0-0.19-0.08-0.19-0.19c0-0.1,0.08-0.19,0.19-0.19
					s0.19,0.08,0.19,0.19S-149.1,241.33-149.2,241.33"/>
			</g>
			<g id="g3163_1_" transform="translate(83.3168,809.4493)">
				<path id="path3165_1_" class="st3" d="M-149.14,241.63c-0.1,0-0.19-0.08-0.19-0.19c0-0.1,0.08-0.19,0.19-0.19
					c0.1,0,0.19,0.08,0.19,0.19C-148.96,241.55-149.04,241.63-149.14,241.63"/>
			</g>
			<g id="g3167_1_" transform="translate(81.6768,811.7728)">
				<path id="path3169_1_" class="st3" d="M-148.48,240.71c0.1,0,0.19,0.08,0.19,0.19c0,0.1-0.08,0.19-0.19,0.19
					s-0.19-0.08-0.19-0.19C-148.66,240.79-148.58,240.71-148.48,240.71"/>
			</g>
			<g id="g3171_1_" transform="translate(82.4348,811.539)">
				<path id="path3173_1_" class="st3" d="M-148.79,240.79c0.1,0,0.19,0.08,0.19,0.19c0,0.1-0.08,0.19-0.19,0.19
					c-0.1,0-0.19-0.08-0.19-0.19C-148.98,240.87-148.9,240.79-148.79,240.79"/>
			</g>
			<g id="g3175_1_" transform="translate(83.031,811.0167)">
				<path id="path3177_1_" class="st3" d="M-149.02,241c0.1,0,0.19,0.08,0.19,0.19s-0.08,0.19-0.19,0.19c-0.1,0-0.19-0.08-0.19-0.19
					S-149.12,241-149.02,241"/>
			</g>
			<g id="g3179_1_" transform="translate(80.8801,811.6996)">
				<path id="path3181_1_" class="st3" d="M-148.17,240.73c0.1,0,0.19,0.08,0.19,0.19c0,0.1-0.08,0.19-0.19,0.19
					c-0.1,0-0.19-0.08-0.19-0.19S-148.28,240.73-148.17,240.73"/>
			</g>
			<g id="g3183_1_" transform="translate(80.1244,811.4808)">
				<path id="path3185_1_" class="st3" d="M-147.86,240.82c0.1,0,0.19,0.08,0.19,0.19c0,0.1-0.08,0.19-0.19,0.19
					c-0.1,0-0.19-0.08-0.19-0.19C-148.05,240.9-147.96,240.82-147.86,240.82"/>
			</g>
			<g id="g3187_1_" transform="translate(79.1082,811.4523)">
				<path id="path3189_1_" class="st3" d="M-147.47,240.84c0-0.1,0.08-0.19,0.19-0.19c0.1,0,0.19,0.08,0.19,0.19
					c0,0.1-0.08,0.19-0.19,0.19C-147.38,241.03-147.47,240.94-147.47,240.84"/>
			</g>
			<g id="g3191_1_" transform="translate(77.9948,809.8021)">
				<path id="path3193_1_" class="st3" d="M-147.01,241.49h0.21v0.78c-0.08,0.02-0.14,0.04-0.21,0.06V241.49z"/>
			</g>
			<g id="g3195_1_" transform="translate(79.0367,811.2139)">
				<path id="path3197_1_" class="st3" d="M-147.43,240.93c-0.06-0.02-0.12-0.06-0.21-0.06v-0.78h0.21V240.93z"/>
			</g>
			<g id="g3199_1_" transform="translate(78.3197,812.6555)">
				<path id="path3201_1_" class="st3" d="M-147.15,240.36v0.47c-0.23-0.04-0.41-0.23-0.45-0.47H-147.15z"/>
			</g>
			<g id="g3203_1_" transform="translate(78.7158,812.6555)">
				<path id="path3205_1_" class="st3" d="M-147.32,240.36h0.45c-0.04,0.23-0.23,0.41-0.45,0.47V240.36z"/>
			</g>
			<g id="g3207_1_" transform="translate(77.5795,812.2815)">
				<path id="path3209_1_" class="st3" d="M-146.85,240.51c0.06-0.27,0.29-0.45,0.56-0.45s0.51,0.19,0.56,0.45H-146.85z"/>
			</g>
			<g id="g3211_1_" transform="translate(79.0405,813.5522)">
				<path id="path3213_1_" class="st3" d="M-147.43,239.99c-0.12,0.1-0.23,0.25-0.25,0.41c0.14-0.02,0.31-0.14,0.41-0.27v0.64
					c-0.1-0.12-0.27-0.25-0.41-0.27c0.02,0.14,0.1,0.29,0.25,0.45h-0.62c0.12-0.16,0.23-0.31,0.25-0.45
					c-0.14,0.02-0.31,0.14-0.41,0.27v-0.64c0.1,0.12,0.27,0.25,0.41,0.27c-0.02-0.16-0.12-0.31-0.25-0.41H-147.43z"/>
			</g>
			<g id="g3215_1_" transform="translate(80.1627,792.6023)">
				<path id="path3217_1_" class="st3" d="M-147.89,248.33c-0.58,0.14-1.27,0.39-1.91,0.68l0,0c0.02,0.12-0.02,0.27-0.12,0.39
					c-0.1,0.12-0.23,0.19-0.37,0.19c-0.06,0-0.12-0.02-0.19-0.04c-0.1,0.08-0.19,0.16-0.27,0.27c-0.25,0.29-0.43,0.62-0.58,0.99
					c-0.08,0.21-0.12,0.43-0.16,0.66c-0.02-0.19-0.25-0.43-0.6-0.43c0,0.04,0,0.12-0.04,0.14c-0.1-0.1-0.25-0.23-0.56-0.1
					c0.04-0.25,0.12-0.51,0.21-0.74c0.19-0.51,0.47-0.99,0.82-1.4c0.12-0.12,0.25-0.25,0.37-0.37c0-0.02,0-0.04,0-0.08
					c0-0.14,0.12-0.35,0.31-0.45c0.14-0.08,0.33-0.06,0.47,0.06c0.29-0.14,0.64-0.29,1.03-0.39c0.43-0.12,0.84-0.19,1.17-0.19
					c0.29,0,0.66,0.12,1.03,0.37c0.14,0.1,0.29,0.21,0.39,0.29c0.02,0.02,0.02,0.02,0.04,0.04
					C-147.11,248.17-147.52,248.25-147.89,248.33 M-150.01,249.22l-0.06,0.04c-0.1,0.08-0.21,0.08-0.31,0
					c-0.04-0.04-0.08-0.08-0.12-0.14l-0.06-0.06l0.04-0.04c0.12-0.1,0.14-0.21,0.1-0.27c-0.02-0.02-0.04-0.04-0.06-0.04
					c-0.06-0.02-0.14,0-0.23,0.06l-0.04,0.02l-0.02-0.04c0-0.02-0.02-0.02-0.02-0.04c0-0.02-0.02-0.02-0.04-0.04
					c-0.04-0.08-0.08-0.16-0.08-0.21c0-0.02,0-0.02,0-0.04c0.02-0.06,0.06-0.1,0.12-0.12l0.02-0.02c0.06-0.04,0.12-0.08,0.19-0.1
					c-0.1-0.06-0.21-0.06-0.31-0.02c-0.16,0.08-0.27,0.27-0.27,0.35c0,0.14,0.06,0.31,0.16,0.49l0.02,0.02l-0.02,0.02
					c-0.04,0.06-0.06,0.1-0.08,0.16c0.06,0,0.12-0.02,0.19-0.04h0.02l0.02,0.02c0.06,0.08,0.31,0.33,0.53,0.33
					c0.1,0,0.21-0.06,0.29-0.14c0.06-0.06,0.1-0.14,0.1-0.23C-149.93,249.15-149.97,249.17-150.01,249.22 M-149.62,248.11
					c-0.14,0-0.25,0.1-0.25,0.25c0,0.14,0.1,0.25,0.25,0.25s0.25-0.1,0.25-0.25C-149.37,248.21-149.5,248.11-149.62,248.11
					 M-148.55,247.78c-0.12,0-0.23,0.1-0.23,0.23c0,0.12,0.1,0.23,0.23,0.23c0.12,0,0.23-0.1,0.23-0.23
					C-148.32,247.88-148.43,247.78-148.55,247.78"/>
			</g>
			<g id="g3219_1_" transform="translate(79.5636,789.7679)">
				<path id="path3221_1_" class="st3" d="M-147.64,249.47c-0.04,0-0.08,0-0.12-0.02v0.7c-0.31,0-0.66,0.06-1.01,0.14v-0.84
					c-0.04,0.02-0.08,0.02-0.12,0.02c-0.25,0-0.39-0.21-0.39-0.39c0-0.19,0.1-0.35,0.21-0.45c0.04,0.1,0.08,0.19,0.14,0.19
					c0.12,0,0.06-0.6,0.41-0.62c-0.02-0.02-0.02-0.06-0.02-0.1c0-0.14,0.12-0.27,0.27-0.27s0.27,0.12,0.27,0.27
					c0,0.04,0,0.06-0.02,0.1c0.35,0.02,0.29,0.62,0.41,0.62c0.06,0,0.1-0.08,0.14-0.19c0.08,0.1,0.19,0.27,0.19,0.45
					C-147.25,249.27-147.4,249.47-147.64,249.47 M-148.28,247.95c-0.08,0-0.14,0.06-0.14,0.14s0.06,0.14,0.14,0.14
					s0.14-0.06,0.14-0.14C-148.12,248.03-148.18,247.95-148.28,247.95 M-147.46,248.84c-0.04,0.08-0.1,0.12-0.16,0.12
					c-0.25,0-0.14-0.62-0.43-0.62c-0.12,0-0.19,0.08-0.19,0.16s0.06,0.12,0.06,0.19s-0.06,0.1-0.12,0.1c-0.06,0-0.12-0.02-0.12-0.1
					c0-0.06,0.06-0.1,0.06-0.19s-0.06-0.16-0.19-0.16c-0.29,0-0.19,0.62-0.43,0.62c-0.06,0-0.12-0.04-0.16-0.12
					c-0.04,0.08-0.08,0.19-0.08,0.25c0,0.12,0.08,0.27,0.27,0.27c0.31,0,0.25-0.43,0.39-0.43c0.06,0,0.12,0.04,0.12,0.1
					c0,0.12-0.23,0.25-0.23,0.41s0.16,0.33,0.33,0.47c0.19-0.14,0.33-0.29,0.33-0.47s-0.23-0.29-0.23-0.41c0-0.06,0.04-0.1,0.12-0.1
					c0.14,0,0.08,0.43,0.39,0.43c0.19,0,0.27-0.16,0.27-0.27C-147.38,249.02-147.4,248.92-147.46,248.84"/>
			</g>
			<g id="g3223_1_" transform="translate(93.0506,788.3863)">
				<path id="path3225_1_" class="st3" d="M-153.01,250.02c-0.02,0.04-0.06,0.06-0.08,0.04c-0.8-0.23-1.81,0.43-2.78,1.09
					c-0.82,0.53-1.58,1.05-2.24,1.05c-0.25,0-0.45-0.06-0.66-0.14c-0.23-0.12-0.41-0.33-0.51-0.6c-0.1-0.27-0.23-0.45-0.33-0.6
					c-0.1-0.19-0.19-0.31-0.19-0.47c0-0.12,0.06-0.25,0.16-0.37c0.1-0.1,0.23-0.19,0.43-0.29c0.04-0.02,0.08-0.04,0.12-0.06
					c0.16-0.08,0.27-0.12,0.29-0.23c-0.33-0.14-0.74-0.27-1.21-0.35c-0.53-0.1-1.11-0.14-1.73-0.14c-0.62,0-1.19,0.04-1.73,0.14
					c-0.47,0.08-0.88,0.21-1.21,0.35c0.02,0.14,0.1,0.19,0.29,0.27c0.04,0.02,0.08,0.04,0.12,0.06c0.16,0.08,0.31,0.16,0.41,0.27
					c0.12,0.1,0.16,0.21,0.16,0.35c0,0.16-0.08,0.29-0.19,0.47c-0.1,0.14-0.21,0.33-0.33,0.6c-0.1,0.27-0.29,0.47-0.51,0.6
					c-0.19,0.1-0.41,0.14-0.64,0.14c-0.66,0-1.44-0.51-2.26-1.07c-0.97-0.64-1.97-1.32-2.78-1.09c-0.04,0.02-0.08,0-0.08-0.04
					c-0.02-0.04,0-0.08,0.04-0.1c0.25-0.1,0.47-0.29,0.68-0.43c0.29-0.23,0.58-0.45,0.86-0.45s0.6,0.08,0.97,0.29
					c0.33,0.16,0.66,0.39,0.99,0.62c0.64,0.43,1.3,0.88,1.93,0.95c-0.06-0.06-0.12-0.12-0.19-0.19c-0.19-0.16-0.35-0.31-0.35-0.6
					c0-0.23,0.08-0.39,0.19-0.62c0.04-0.06,0.06-0.14,0.1-0.23c0.06-0.16,0.1-0.29,0.14-0.45c0.02-0.08,0.04-0.16,0.06-0.25
					c0.04-0.14,0.12-0.43,0.58-0.66c0.53-0.27,1.46-0.41,2.73-0.41c1.27,0,2.2,0.14,2.73,0.41c0.45,0.23,0.53,0.51,0.58,0.66
					c0.02,0.1,0.04,0.19,0.06,0.25c0.04,0.16,0.06,0.29,0.14,0.45c0.04,0.12,0.1,0.21,0.14,0.29c0.1,0.19,0.16,0.33,0.16,0.53
					c0,0.29-0.16,0.43-0.37,0.62c-0.06,0.06-0.12,0.12-0.21,0.19c0.64-0.04,1.3-0.49,1.93-0.95c0.33-0.23,0.66-0.45,0.99-0.62
					c0.37-0.21,0.68-0.29,0.97-0.29c0.31,0,0.58,0.21,0.86,0.45c0.21,0.16,0.43,0.33,0.68,0.43
					C-153.03,249.93-153.01,249.97-153.01,250.02"/>
			</g>
			<g id="g3227_1_" transform="translate(84.9701,799.1515)">
				<path id="path3229_1_" class="st3" d="M-149.8,245.74c-0.08,0.06-0.23,0.21-0.31,0.37c-0.1,0.21-0.49,0.99-0.56,1.09
					c-0.06,0.08-0.08,0.16-0.08,0.23c0,0.08,0.04,0.14,0.08,0.21c0.04,0.04,0.12,0.12,0.14,0.19c0.02,0.04,0.04,0.06,0.06,0.1
					c-0.14,0.25-0.29,0.45-0.49,0.66c-0.23,0.27-0.49,0.49-0.78,0.68c0.14,0.1,0.31,0.25,0.31,0.49c0,0.14-0.06,0.25-0.16,0.35
					c0.16,0.51,0.45,1.15,0.7,1.42l-0.51,0.23c0.14-0.21,0.14-0.45,0.12-0.6c-0.14,0.1-0.25,0.23-0.29,0.39
					c-0.02-0.16-0.1-0.41-0.19-0.56c0.14,0.06,0.27,0.1,0.43,0.04c-0.08-0.12-0.31-0.31-0.66-0.23c-0.19,0.04-0.37,0.14-0.37,0.29
					c0,0.08,0.06,0.19,0.19,0.19c0.12-0.02,0.12-0.19,0.08-0.27c0.14,0.08,0.31,0.51,0.06,0.58c-0.19,0.04-0.35-0.21-0.41-0.39
					c-0.04,0.23-0.12,0.45-0.31,0.45c-0.25-0.02-0.16-0.45-0.08-0.58c0.02,0.16,0.1,0.25,0.16,0.23c0.06,0,0.14-0.04,0.12-0.19
					c-0.02-0.14-0.21-0.23-0.45-0.23c-0.23,0-0.6,0.06-0.64,0.49c0.14-0.02,0.37-0.14,0.45-0.27c-0.02,0.25-0.02,0.43,0,0.7
					c-0.12-0.16-0.31-0.25-0.45-0.27c0.04,0.19,0.21,0.37,0.37,0.49h-0.95c0.19-0.12,0.33-0.31,0.37-0.49
					c-0.14,0.02-0.33,0.1-0.45,0.27c0.02-0.27,0.02-0.45,0-0.7c0.1,0.14,0.31,0.25,0.45,0.27c-0.04-0.43-0.43-0.49-0.64-0.49
					c-0.23,0-0.43,0.08-0.45,0.23c-0.02,0.14,0.06,0.19,0.14,0.19c0.06,0,0.16-0.08,0.16-0.23c0.08,0.1,0.16,0.56-0.08,0.58
					c-0.19,0.02-0.29-0.21-0.31-0.45c-0.06,0.19-0.23,0.45-0.41,0.39c-0.23-0.06-0.08-0.49,0.06-0.58
					c-0.04,0.08-0.02,0.25,0.08,0.27c0.12,0.02,0.19-0.08,0.19-0.19c0-0.14-0.19-0.25-0.37-0.29c-0.35-0.08-0.56,0.1-0.66,0.23
					c0.16,0.06,0.27,0.04,0.43-0.04c-0.08,0.14-0.16,0.41-0.19,0.56c-0.04-0.16-0.16-0.31-0.29-0.39c-0.02,0.14-0.02,0.39,0.12,0.6
					l-0.51-0.23c0.25-0.27,0.53-0.9,0.7-1.42c-0.1-0.08-0.16-0.21-0.16-0.33c0-0.25,0.16-0.39,0.31-0.49
					c-0.29-0.19-0.56-0.41-0.78-0.68c-0.35-0.39-0.64-0.86-0.82-1.38c0.08-0.08,0.39-0.41,0.45-0.51c0.12-0.16,0.21-0.33,0.21-0.45
					c0-0.23,0.06-0.33,0.19-0.49c0.04-0.04,0.1-0.23,0.1-0.35h2.59v-2.84c-0.1,0-0.21-0.04-0.29-0.14c0.31-0.12,0.58-0.23,0.86-0.31
					c0.02,0.19,0.06,0.29,0.16,0.41c0,0-0.37,0.04-0.58,0.04v2.82h2.53c0-0.39-0.08-0.76-0.21-1.11c-0.12-0.37-0.33-0.7-0.58-0.99
					c-0.25-0.29-0.51-0.51-0.84-0.66c-0.04-0.02-0.04-0.06-0.1-0.08c-0.04-0.04-0.08-0.12-0.12-0.23c-0.04-0.08-0.04-0.14-0.06-0.25
					c0.12-0.04,0.19-0.06,0.29-0.08c0.88-0.23,1.11-0.16,1.15-0.12l0,0c0.21,0.14,0.39,0.33,0.56,0.51c0.35,0.41,0.64,0.86,0.82,1.4
					c0.21,0.53,0.31,1.11,0.31,1.71C-149.8,245.6-149.8,245.62-149.8,245.74 M-153.73,245.53h-2.59c0,0.39,0.08,0.78,0.21,1.15
					c0.12,0.37,0.33,0.7,0.58,0.99c0.25,0.29,0.53,0.51,0.84,0.66s0.64,0.23,0.97,0.25C-153.73,248.58-153.73,245.53-153.73,245.53z
					 M-153.68,249.85c-0.86,0-1.46-0.25-1.81-0.49c-0.21,0.12-0.29,0.23-0.29,0.37c0,0.49,1.38,0.53,2.08,0.53l0,0l0,0
					c0.7,0,2.08-0.04,2.08-0.53c0-0.14-0.08-0.25-0.29-0.37C-152.23,249.58-152.82,249.85-153.68,249.85 M-153.56,245.53v3.04
					c0.31-0.02,0.62-0.08,0.9-0.23c0.31-0.16,0.6-0.37,0.84-0.66c0.25-0.29,0.43-0.62,0.58-0.99c0.12-0.37,0.21-0.76,0.21-1.15
					C-151.05,245.53-153.56,245.53-153.56,245.53z"/>
			</g>
			<g id="g3231_1_" transform="translate(82.2329,799.6543)">
				<path id="path3233_1_" class="st3" d="M-148.71,245.53c0.04-0.02,0.02-0.1-0.02-0.08c-0.06,0.45-0.23,0.9-0.49,1.27l0,0
					c0.04,0.02,0.1,0.06,0.1,0.12c-0.08,0-0.12-0.02-0.16-0.06c-0.02,0.02-0.04,0.04-0.06,0.06c-0.16,0.21-0.35,0.37-0.56,0.51
					c-0.19,0.12-0.39,0.23-0.62,0.29c0,0.04,0.06,0.06,0.1,0.02c0,0.08-0.06,0.12-0.1,0.1c-0.02,0-0.04-0.02-0.04-0.06
					c-0.02,0.02-0.06,0.06-0.12,0.06c0-0.06,0.02-0.08,0.04-0.12c-0.04,0-0.06-0.02-0.06-0.04c-0.02-0.04,0-0.1,0.08-0.12
					c-0.04,0.04-0.02,0.1,0.02,0.08v-0.99c-0.04,0.02-0.1,0-0.16-0.04c0.06-0.06,0.12-0.06,0.16-0.04v-1.07
					c-0.06,0-0.06,0.06-0.02,0.08c-0.08,0-0.12-0.08-0.1-0.1c0.02-0.02,0.04-0.04,0.08-0.04c-0.02-0.02-0.04-0.06-0.04-0.12
					c0.04,0,0.08,0.02,0.1,0.04c0-0.04,0.02-0.06,0.04-0.08c0.04-0.02,0.1,0.02,0.1,0.1c-0.02-0.04-0.1-0.02-0.1,0.02h0.74
					c-0.02-0.04,0-0.1,0.04-0.16c0.04,0.06,0.06,0.12,0.04,0.16h0.82c0-0.06-0.06-0.06-0.08-0.02c0-0.08,0.08-0.1,0.1-0.1
					c0.02,0.02,0.04,0.04,0.04,0.08c0.02-0.02,0.06-0.04,0.12-0.04c0,0.04-0.02,0.08-0.04,0.1c0.04,0,0.06,0.02,0.08,0.04
					C-148.59,245.46-148.63,245.53-148.71,245.53 M-149.41,246.84c-0.02-0.02-0.04-0.04-0.02-0.06c0-0.02,0.02-0.04,0.08-0.04
					c-0.02-0.02-0.04-0.06-0.06-0.1c0.04,0,0.08,0,0.12,0.02c0-0.04,0-0.06,0.02-0.08c0.02-0.02,0.04-0.02,0.06,0
					c0.19-0.31,0.33-0.66,0.37-1.03c-0.02,0.02-0.06,0.02-0.1,0.02c0-0.06,0.02-0.08,0.04-0.12h-0.64c0,0.04-0.02,0.08-0.04,0.08
					s-0.06,0-0.08-0.02c0,0.04-0.02,0.08-0.04,0.1c-0.04-0.04-0.04-0.08-0.04-0.1c-0.02,0.04-0.06,0.04-0.08,0.02
					c-0.02,0-0.04-0.04-0.04-0.08h-0.53c0.02,0.02,0.04,0.06,0.04,0.1c-0.04,0-0.08-0.02-0.1-0.04v0.86c0.04,0,0.08,0.02,0.08,0.04
					s0,0.06-0.02,0.08c0.04,0,0.08,0.02,0.1,0.04c-0.04,0.04-0.08,0.04-0.1,0.04c0.04,0.02,0.04,0.06,0.02,0.08
					c0,0.02-0.04,0.04-0.08,0.04v0.74c0.02-0.02,0.06-0.04,0.1-0.04c0,0.04,0,0.08-0.02,0.1c0.16-0.06,0.33-0.14,0.49-0.25
					C-149.74,247.17-149.58,247.03-149.41,246.84"/>
			</g>
			<g id="g3235_1_" transform="translate(81.4982,800.1064)">
				<path id="path3237_1_" class="st3" d="M-148.42,245.35c0.04,0.02,0.06,0.04,0.06,0.06c-0.04-0.02-0.06,0-0.06,0
					c0.02,0.02,0.06,0,0.02,0.04c-0.02,0.04-0.04,0.04-0.08,0.02c-0.02-0.04-0.23,0-0.23,0.16c0.02-0.02,0.04-0.04,0.06-0.06
					c0,0,0.02,0,0.02-0.02h0.02c0.02,0,0.04,0,0.06,0c0,0,0,0,0.02,0l0,0c0.04,0,0.08,0.04,0.08,0.08c0,0.08-0.06,0.12-0.16,0.19
					c-0.04,0.02-0.06,0.06-0.08,0.08c-0.02,0.06,0,0.12-0.08,0.23c0,0.02,0,0.06-0.02,0.1c-0.04-0.06-0.06-0.21,0.04-0.31
					c0.08-0.1,0.27-0.19,0.25-0.27c0-0.02-0.02-0.04-0.04-0.04h-0.02c0,0,0,0-0.02,0c-0.02,0-0.02,0-0.04,0.02
					c-0.02,0.02-0.04,0.02-0.06,0.04c-0.08,0.06-0.14,0.16-0.19,0.23c-0.08,0.1-0.04,0.21-0.04,0.29c0.06,0.08-0.04,0.25-0.08,0.29
					c0,0,0.02,0.04,0,0.08c-0.02,0-0.04,0-0.04,0c-0.02,0.02-0.02,0.04-0.04,0.04c-0.04,0-0.04,0.02-0.04,0.04
					c-0.02-0.02-0.02-0.04-0.04-0.04c-0.02,0-0.04,0-0.06,0c-0.02-0.02-0.02-0.02-0.06-0.02c-0.04,0-0.04-0.02-0.02-0.04
					c0-0.02,0-0.04,0.02-0.04l0,0l0.02-0.04l0.02,0.04c0.02,0.02,0.06,0.02,0.06-0.02c0-0.02,0-0.02-0.02-0.04
					c-0.02,0-0.04,0-0.08,0c-0.02,0-0.02-0.02-0.02-0.04s0.02-0.02,0.06-0.02c0.04,0,0.1,0.02,0.1-0.02c0-0.08-0.1-0.08-0.12-0.19
					c-0.02,0.02-0.04,0.04-0.06,0.06c-0.02,0.02-0.04,0.06-0.08,0.1c-0.02,0.02-0.04,0.04-0.08,0.06c-0.04,0.02-0.04,0.04-0.04,0.08
					c0,0.04,0.02,0.06,0.02,0.08v0.02c0,0.02-0.04,0.04-0.04,0.02c0,0,0.02-0.02,0.02-0.04l-0.02-0.02v-0.02l0,0c0,0,0,0,0-0.02l0,0
					c0,0.02-0.02,0.06-0.04,0.06c0,0,0,0-0.02,0l0,0c0,0.02-0.02,0.04-0.06,0.02h0.02v-0.02c0-0.02,0.02-0.04,0.04-0.04l0,0l0,0l0,0
					c-0.04,0.02-0.06,0-0.06-0.02v-0.02c-0.02,0-0.02-0.04,0-0.04v0.02l0,0c0,0,0,0,0.02-0.02c0,0,0,0,0.02,0l0,0c0,0,0,0,0.02,0
					l0,0c-0.02-0.02-0.02-0.04,0-0.06c-0.02-0.02-0.06-0.02-0.06,0.02c-0.04-0.06,0.02-0.1,0.06-0.08c0-0.02,0-0.06,0-0.06
					s0,0.02,0.02,0.02l0,0c0-0.02,0-0.02,0.02-0.04v0.02c0-0.02,0.02-0.02,0.02-0.04c0.02-0.04,0.06-0.14,0.19-0.19
					c-0.06-0.04-0.08-0.08-0.12-0.12c-0.02-0.02-0.08-0.06-0.1-0.04c-0.02,0-0.02,0.02-0.04,0.04c-0.02,0-0.02,0.02-0.04,0h-0.02
					c-0.02,0-0.04,0-0.06-0.02c0.02,0,0.02,0,0.04,0v-0.02c0-0.02,0-0.02,0.06-0.02l0,0c0,0-0.02-0.02-0.02,0
					c-0.02,0-0.04,0.02-0.06,0c0,0,0,0-0.02-0.02l0,0c-0.02,0-0.04-0.04-0.02-0.06c0,0,0,0.02,0.02,0.04c0,0,0-0.02,0.02-0.02
					c0.02-0.02,0.04-0.04,0.06,0.02l0,0c0-0.02-0.02-0.06,0-0.06c0,0,0,0,0.02,0l0,0c0-0.02,0.04-0.04,0.06-0.02
					c-0.02,0-0.02,0.02-0.04,0.04h0.02c0.02,0.02,0,0.04,0,0.06l0,0c0-0.02,0.02-0.04,0.06-0.02c0.02,0,0.02,0.02,0.02,0.04
					c0.04,0.02,0.06,0.02,0.1,0.02c0,0.02,0.02,0.04,0.06,0.06c0.04,0.02,0.06,0,0.06-0.02c0,0.02,0.02,0.04,0.04,0.06
					c0-0.16,0.21-0.14,0.27-0.25c-0.06,0.02-0.14,0.04-0.16,0.04c-0.06,0-0.14-0.06-0.14-0.12c0-0.04,0.04-0.14,0.08-0.16
					c-0.06-0.02-0.08,0-0.14,0l0,0c-0.04,0-0.06,0.08-0.1,0.06c0,0-0.02,0-0.02-0.02l0,0c-0.02,0-0.06-0.02-0.04-0.04
					c0,0,0.02,0.02,0.04,0.02v-0.02c0,0,0-0.02,0.02-0.02c0.02,0,0.02,0,0.02,0l0,0c0-0.02-0.06,0.02-0.06-0.04
					c0,0,0-0.02,0.02-0.02c0-0.02,0.02-0.04,0.04-0.02l-0.02,0.02h0.02l0,0l0,0l0,0c0,0,0,0,0-0.02v-0.02
					c0-0.02,0.02-0.04,0.06-0.02c0,0-0.02,0-0.02,0.02h0.02v0.02l0,0h0.02l0,0c0-0.02,0.02-0.02,0.04-0.02
					c0.02,0,0.02,0.02,0.02,0.02s0.02,0,0.02-0.02c0,0.02,0,0.04,0.06,0l0.04,0.02c0,0,0.04-0.02,0.06,0s0.02,0.02,0.02,0.06
					c-0.02,0.04-0.04,0.04-0.04,0.08c-0.02,0.08,0.1,0.12,0.16,0.1c0.02-0.04,0.08-0.19,0.21-0.23c0.08-0.02,0.1,0.06,0.12,0.04
					c0,0,0,0,0.02-0.02c0-0.04,0-0.06,0-0.08c0-0.02-0.04,0-0.08,0c-0.02,0-0.02,0-0.02-0.02c-0.02,0-0.04-0.02-0.04-0.04
					c0,0,0.02,0.02,0.04,0.02c0,0,0,0,0-0.02c0-0.02,0.04-0.04,0.06-0.02c0,0,0.02,0,0,0c-0.02-0.02-0.04-0.04-0.02-0.06
					c0,0,0,0,0.02,0c0-0.02,0.02-0.04,0.02-0.04s0,0.02,0,0.04h0.02c0.02,0,0.02,0.04,0.04,0.04l0,0c0-0.02-0.02-0.04,0-0.06
					c0,0,0,0,0.02,0c0-0.02,0.02-0.02,0.06-0.02c0,0-0.02,0-0.02,0.02l0.02,0.02c0.02,0.04-0.02,0.04-0.02,0.06s0.04,0,0.04,0.06
					l0,0C-148.46,245.33-148.44,245.33-148.42,245.35C-148.38,245.33-148.42,245.35-148.42,245.35L-148.42,245.35z"/>
			</g>
			<g id="g3239_1_" transform="translate(77.9625,797.7405)">
				<path id="path3241_1_" class="st3" d="M-147.01,246.29h-0.04v0.04c0,0.14-0.08,0.27-0.25,0.27c-0.14,0-0.43-0.19-0.82-0.19
					c-0.16,0-0.37,0.08-0.49,0.14l-0.04-0.12c0,0,0,0,0,0.02c0,0.06-0.04,0.1-0.1,0.1s-0.1-0.04-0.1-0.1s0.04-0.1,0.1-0.1
					c0.02,0,0.06,0.02,0.08,0.04l-0.04-0.12c0.02,0,0.04-0.02,0.04-0.02c-0.06-0.6,0.39-1.36,1.15-1.58
					c0.12,0.02,0.23,0.02,0.23-0.1c0-0.08-0.04-0.1-0.1-0.1c-0.04,0-0.08,0.02-0.08,0.06c0,0.06,0.08,0.02,0.1,0.06
					c0.02,0.04-0.02,0.06-0.08,0.06s-0.14-0.04-0.14-0.12c0-0.1,0.08-0.16,0.19-0.16c0.08,0,0.27,0.04,0.25,0.27
					c0.04,0,0.08,0,0.1,0.04v0.12h-0.04l0.04,1.36h0.02c0.04,0,0.1,0.02,0.1,0.08C-146.93,246.26-146.97,246.29-147.01,246.29
					 M-148.41,246.18l0.95-1.36C-147.97,245.03-148.47,245.48-148.41,246.18 M-147.44,244.97l-0.86,1.23c0.02,0,0.06,0,0.08,0
					c0.04,0,0.08,0,0.12,0l0.7-0.99C-147.42,245.11-147.44,245.03-147.44,244.97 M-147.38,245.36l-0.62,0.86
					c0.06,0.02,0.12,0.04,0.19,0.06l0.45-0.66C-147.36,245.55-147.36,245.44-147.38,245.36 M-147.23,246.31h-0.04
					c-0.04,0-0.08-0.02-0.1-0.06c0-0.06,0.04-0.08,0.08-0.08h0.02c0-0.02,0-0.02,0-0.04c-0.02-0.08-0.04-0.21-0.06-0.35l-0.39,0.56
					c0.19,0.06,0.33,0.14,0.41,0.14S-147.21,246.43-147.23,246.31"/>
			</g>
			<g id="g3243_1_" transform="translate(77.6883,802.3008)">
				<path id="path3245_1_" class="st3" d="M-146.89,244.47c0.19,0,0.27,0.06,0.27,0.12c0,0.21-0.51,0.08-0.51,0.21
					c0,0.02,0.02,0.04,0.04,0.06l0,0c0.25,0.02,0.27,0.21,0.43,0.23c-0.23,0.04-0.25-0.14-0.35-0.14c0.04,0.02,0.06,0.08,0.06,0.1
					c-0.04-0.06-0.14-0.06-0.21-0.12c0-0.02-0.02-0.02,0-0.04c-0.04-0.02-0.06-0.04-0.06-0.08c0-0.19,0.51-0.06,0.51-0.21
					c0-0.04-0.08-0.08-0.23-0.08c-0.1,0-0.19,0.08-0.37,0.02c0,0.04,0.06,0.1,0.04,0.12c0.02,0,0.04,0.02,0.04,0.04
					c-0.02,0.02-0.02,0.02-0.04,0.02v0.02c0,0,0,0.02-0.02,0.02c0,0-0.02,0.02-0.04,0.02c-0.02,0.02-0.04,0.02-0.04,0.02h-0.02
					c-0.02,0-0.02,0-0.02-0.02c0,0-0.02,0.02-0.04,0.02c0-0.02-0.02-0.02,0-0.06c-0.02,0-0.04-0.04-0.06-0.04
					c0-0.02,0.02-0.02,0.02-0.02c-0.02-0.02-0.02-0.06-0.04-0.06c0,0,0-0.02,0.02-0.02c-0.02-0.04-0.02-0.08-0.02-0.12l0,0
					c-0.02,0.02-0.02,0.02-0.04,0.04c-0.02,0.02-0.02,0.04-0.02,0.06c0,0.02,0.02,0.04,0.02,0.06v0.02c0,0.02-0.02,0.02-0.04,0.02
					l0.02-0.02l-0.02-0.02c0,0-0.02-0.02,0-0.02l0,0c0,0,0,0,0-0.02l0,0c0,0.02,0,0.04-0.02,0.04h-0.02l0,0
					c0,0.02-0.02,0.04-0.04,0.02h0.02v-0.02c0-0.02,0-0.02,0.04-0.02l0,0l0,0l0,0c-0.04,0.02-0.06,0-0.06-0.02c0,0,0,0,0-0.02
					c-0.02,0-0.02-0.02,0-0.04c0,0,0,0.02,0.02,0.02l0,0l0,0c0,0,0,0,0.02,0l0,0l0,0l0,0c-0.02-0.02-0.02-0.04,0-0.04l0,0
					c0-0.04-0.06-0.04-0.06,0c-0.04-0.04,0.02-0.08,0.06-0.06l0,0c0,0,0-0.02,0.02-0.02c0,0,0,0,0.02,0l0,0c0,0,0-0.02,0.02-0.02
					v0.02c0,0,0.02-0.04,0.04-0.06c-0.04-0.02-0.1-0.04-0.12-0.04c0,0-0.06,0-0.08,0c-0.02-0.02-0.1-0.04-0.12-0.02
					c0,0,0,0.02-0.02,0.04l-0.02,0.02h-0.02c-0.02,0.02-0.04,0.02-0.04,0c0,0,0.02,0,0.02-0.02v-0.02c0,0,0-0.02,0.04-0.04l0,0
					h-0.02c-0.02,0.02-0.02,0.04-0.04,0.02c0,0,0,0-0.02,0l0,0c-0.02,0-0.04-0.02-0.04-0.04c0,0,0,0.02,0.02,0.02v-0.02
					c0-0.02,0.02-0.04,0.06,0l0,0c-0.02-0.02-0.04-0.04-0.02-0.06c0,0,0,0,0.02,0l0,0c0-0.02,0.02-0.04,0.04-0.04
					c0,0-0.02,0.02-0.02,0.04h0.02c0.02,0,0.02,0.04,0.02,0.04l0,0c0-0.02,0-0.04,0.04-0.04c0.02,0,0.04,0.02,0.04,0.04l0,0
					l0.02-0.02c0,0,0.02,0,0.02,0.02c0-0.02,0-0.02,0-0.04c0,0,0.04,0.02,0.04,0.04c0,0,0,0,0-0.02l0,0c0.02,0,0.02,0,0.06,0l0,0
					c0-0.02,0-0.02,0-0.02v0.02c0,0,0-0.02,0.02-0.04c0,0.06,0.04,0.04,0.08,0.06l0,0c0,0,0-0.02-0.02-0.02
					c0.02,0,0.06,0.02,0.06,0.04l0.02,0.02c0.02,0,0.04,0,0.04,0.02c0,0,0-0.02,0-0.04c0.04,0,0.08,0.04,0.1,0.06
					c0.1,0.02-0.06,0.08,0.14,0.08c0.02,0,0.04,0,0.06,0.02c-0.02-0.02-0.02-0.08,0.02-0.1c0.02,0,0.04-0.02,0.04-0.02l0,0
					c-0.02,0-0.04,0-0.04-0.02c-0.04-0.02-0.04,0.06-0.1,0.04c0,0,0,0-0.02,0c-0.02,0-0.04-0.02-0.04-0.04c0,0,0.02,0.02,0.04,0.02
					l0,0c0,0,0-0.02,0.02-0.02h0.02l0,0c0-0.02-0.06,0-0.04-0.04v-0.02c0-0.02,0.02-0.04,0.04-0.02c0,0-0.02,0-0.02,0.02
					c0,0,0,0,0.02,0l0,0l0,0l0,0c0,0,0,0,0-0.02v-0.02c0-0.02,0.02-0.04,0.06-0.02c0,0-0.02,0-0.02,0.02h0.02c0,0,0,0,0,0.02l0,0
					c0,0,0,0,0.02,0l0,0c0-0.02,0.02-0.02,0.04-0.02c0.04,0.02,0,0.04,0.04,0.04h0.02c0.02,0,0.06,0,0.06,0c0,0.02,0,0.06-0.02,0.08
					c-0.02,0,0,0.02-0.02,0.06c0.02-0.02,0.06-0.02,0.1-0.02c0.06,0,0,0.02,0.04,0.02c0.04,0.02,0.08,0.02,0.08,0
					c0,0,0.02,0,0.02-0.02c0-0.04,0-0.04,0-0.06c0-0.02-0.04,0-0.06,0c-0.02,0-0.02,0-0.02,0c-0.02,0-0.04-0.02-0.04-0.04
					c0,0,0.02,0.02,0.04,0.02l0,0c0-0.02,0.02-0.04,0.04-0.02l0,0c-0.02-0.02-0.04-0.04-0.02-0.04c0,0,0,0,0.02,0
					c0-0.02,0-0.04,0.02-0.04v0.02h0.02c0.02,0,0,0.02,0.02,0.04l0,0c0-0.02,0-0.04,0-0.04s0,0,0.02,0c0-0.02,0.02-0.02,0.04-0.02
					c0,0-0.02,0-0.02,0.02l0.02,0.02c0,0.04-0.02,0.04-0.02,0.06c0,0.02,0.04,0,0.04,0.04c0,0,0,0.02-0.02,0.02l0,0l0,0
					c0,0,0.02,0,0.02,0.02c-0.02,0-0.02,0.02-0.02,0.04l0,0c0,0,0.02,0.02,0.02,0.04c0-0.02-0.04-0.02-0.04,0c0,0,0,0.02-0.02,0.02
					C-146.79,244.43-146.81,244.47-146.89,244.47C-146.91,244.47-146.91,244.47-146.89,244.47 M-147.47,244.68L-147.47,244.68
					L-147.47,244.68 M-147.32,244.72c0,0,0.04-0.02,0.06-0.02c-0.02,0-0.02-0.02-0.04-0.02S-147.32,244.7-147.32,244.72
					 M-147.37,244.74c0-0.02-0.02-0.02-0.04-0.02c-0.02,0.02,0,0.02-0.02,0.04C-147.41,244.76-147.37,244.74-147.37,244.74
					 M-147.43,244.62C-147.43,244.62-147.41,244.64-147.43,244.62c0.02,0.02,0.02,0.02,0.04,0.04c0,0.02,0,0.02-0.02,0.02
					c0.02,0,0.02,0,0.02,0.02h-0.02c0,0,0,0,0.02,0.02c0,0,0,0,0.02,0l0.04-0.02c0,0,0,0,0-0.02v-0.02c0,0,0,0.02-0.02,0.02
					c0,0,0,0,0-0.02c-0.02,0-0.02,0-0.02,0v-0.02v-0.02C-147.37,244.59-147.39,244.59-147.43,244.62
					C-147.43,244.57-147.43,244.59-147.43,244.62"/>
			</g>
			<g id="g3247_1_" transform="translate(78.1122,801.1567)">
				<path id="path3249_1_" class="st3" d="M-147.06,244.93c0,0.06-0.06,0.08-0.25,0.08c-0.19,0-0.6-0.06-0.6,0.04
					c0,0.04,0.08,0.04,0.16,0.04c0,0,0.02-0.02,0.04-0.02c0.23-0.06,0.51,0.06,0.66,0.02c-0.16,0.12-0.31,0-0.47,0.04
					c0.1,0,0.14,0.02,0.14,0.06c-0.08-0.06-0.23,0.02-0.33-0.04c0,0-0.02,0-0.02-0.02c-0.12,0-0.23,0-0.23-0.08
					c0-0.19,0.49-0.08,0.64-0.08s0.19-0.02,0.19-0.04c0-0.04-0.14-0.06-0.23-0.06c-0.12,0-0.53,0.06-0.76,0.02
					c0.02,0.04,0.06,0.08,0.04,0.12c0.02,0,0.04,0.02,0.04,0.04c-0.02,0.02-0.02,0.02-0.04,0.02c0,0.02,0,0.02-0.02,0.04
					c0,0,0,0.02-0.02,0.02c0,0-0.02,0.02-0.06,0.04c-0.02,0.02-0.04,0.02-0.06,0.02c0,0-0.02,0-0.04,0c-0.02,0-0.02,0-0.02-0.02
					c-0.02,0.02-0.02,0.02-0.04,0.02c0-0.02-0.02-0.04,0-0.06c-0.02,0-0.04-0.06-0.06-0.04c0-0.02,0.02-0.02,0.02-0.02
					c-0.02-0.04-0.02-0.06-0.04-0.06c0.02-0.02,0.02-0.02,0.02-0.02c0-0.02,0-0.04,0-0.06l-0.04,0.02l0,0c0,0,0,0-0.02,0h0.02h-0.02
					c-0.02,0.02-0.04,0.04-0.08,0.06c-0.04,0.02-0.04,0.04-0.04,0.08c0,0.04,0.02,0.06,0.02,0.08v0.02c0,0.02-0.02,0.04-0.04,0.04
					c0,0,0.02-0.02,0.02-0.04l-0.02-0.02c0,0,0-0.02,0-0.04l0,0c0,0,0,0,0-0.02l0,0c0,0.02-0.02,0.06-0.04,0.06h-0.02l0,0
					c0,0.02-0.02,0.04-0.06,0.02h0.02v-0.02c0-0.02,0.02-0.04,0.04-0.04l0,0c0,0,0,0,0-0.02l0,0c-0.04,0.02-0.06,0-0.06-0.02v-0.02
					c-0.02-0.02-0.02-0.04,0-0.04v0.02l0,0l0,0h0.02l0,0c0,0,0,0,0.02,0l0,0c-0.02-0.02-0.02-0.06,0-0.06l0,0
					c0-0.04-0.08-0.04-0.06,0c-0.04-0.06,0.02-0.1,0.08-0.08l0,0c0,0,0-0.02,0.02-0.02c0,0,0,0.02,0.02,0.02l0,0
					c0-0.02,0-0.02,0.02-0.04v0.02c0,0,0.04-0.04,0.08-0.06c0.04-0.02,0.06-0.04,0.08-0.02c0-0.04,0.02-0.08,0.02-0.08
					c-0.02,0-0.1,0-0.12,0c-0.04-0.02-0.12-0.04-0.14-0.02c0,0.02,0,0.02-0.02,0.04c0,0.02-0.02,0.02-0.02,0.02h-0.02
					c-0.02,0.02-0.04,0.02-0.06,0c0,0,0.02,0,0.04-0.02v-0.02c0-0.02,0-0.02,0.04-0.04l0,0h-0.02c-0.02,0.02-0.02,0.04-0.04,0.02
					c0,0,0,0-0.02,0l0,0c-0.02,0-0.06-0.02-0.04-0.06l0.02,0.02v-0.02c0-0.02,0.02-0.04,0.08-0.02l0,0
					c-0.02-0.02-0.04-0.04-0.02-0.06c0,0,0,0,0.02,0l0,0c0-0.04,0.02-0.06,0.04-0.06c0,0-0.02,0.02-0.02,0.04h0.02
					c0.02,0.02,0.02,0.04,0.02,0.06l0,0c0-0.02,0-0.04,0.04-0.04c0.02,0,0.04,0.02,0.04,0.04l0,0c0,0,0.02-0.02,0.02-0.04
					c0,0,0.02,0,0.02,0.02c0-0.02,0-0.04-0.02-0.06c0.02,0,0.04,0.02,0.04,0.06c0,0,0-0.02,0.02-0.02l0,0c0,0,0.04,0,0.06,0l0,0
					c0-0.02,0-0.02,0-0.02s0,0.02,0.02,0.02c0,0,0-0.02,0.02-0.04c0,0.08,0.04,0.04,0.1,0.08l0,0c0,0,0-0.02-0.02-0.02
					c0.06-0.02,0.14,0.06,0.16,0.1c0.02,0,0.04,0,0.06,0c0.16-0.02,0.04,0.14,0.31,0.1c0.02,0,0.04,0.02,0.06,0.02
					c-0.02-0.04-0.02-0.1,0.02-0.1c0.02,0,0.04-0.02,0.06-0.02l0,0c-0.02,0-0.04,0-0.04-0.02c-0.06-0.04-0.06,0.08-0.1,0.06
					c0,0-0.02,0-0.02-0.02c-0.02,0-0.06-0.02-0.04-0.04c0,0,0.02,0.02,0.04,0.02v-0.02c0,0,0-0.02,0.02-0.02s0.02,0,0.02,0l0,0
					c0-0.02-0.08,0.02-0.06-0.04v-0.02c0-0.02,0.02-0.04,0.04-0.02l-0.02,0.02h0.02l0,0l0,0l0,0c0,0,0,0,0-0.02v-0.02
					c0-0.02,0.02-0.04,0.06-0.02c0,0-0.02,0-0.04,0.02h0.02v0.02l0,0c0,0,0,0,0.02,0c0,0,0,0,0.02,0c0-0.02,0.02-0.02,0.04-0.02
					c0.04,0.02,0,0.04,0.04,0.06h0.02c0.02,0,0.08,0,0.08,0c0,0.02,0,0.06-0.02,0.08c-0.02,0,0,0.04-0.02,0.06
					c0.04-0.02,0.06-0.02,0.1-0.02c0.08,0,0.1,0.02,0.14,0.04c0.04,0.02,0.08,0.02,0.1,0c0,0,0.02,0,0.02-0.02c0-0.04,0-0.04,0-0.06
					c0-0.02-0.04,0-0.06,0c-0.02,0-0.02,0-0.02-0.02c-0.02,0-0.04-0.02-0.04-0.04c0,0,0.02,0.02,0.04,0.02l0,0
					c0-0.02,0.04-0.04,0.06-0.02l0,0c-0.02-0.02-0.04-0.04-0.02-0.04c0,0,0,0,0.02,0c0-0.02,0.02-0.04,0.02-0.04s0,0.02,0,0.04h0.02
					c0.02,0,0,0.04,0.02,0.04l0,0c0-0.02-0.02-0.04,0-0.06c0,0,0,0,0.02,0c0-0.02,0.02-0.02,0.04-0.02c0,0-0.02,0-0.02,0.02
					l0.02,0.02c0.02,0.04-0.02,0.04-0.02,0.06s0.04,0,0.04,0.04c0,0,0,0.02-0.02,0.02l0,0l0,0c0.02,0,0.02,0,0.04,0.02
					c-0.04,0-0.02,0.02-0.02,0.04l0,0c0.02,0,0.02,0.02,0.02,0.04c-0.02-0.02-0.04-0.04-0.04,0c0,0,0,0.02-0.04,0.02
					c-0.06,0-0.1,0-0.21,0.02C-147.25,244.85-147.06,244.87-147.06,244.93 M-148.48,244.83L-148.48,244.83L-148.48,244.83
					 M-148.2,245.09c0,0,0.04-0.02,0.06-0.02c-0.04,0-0.02-0.02-0.04-0.02S-148.2,245.07-148.2,245.09 M-148.24,245.11
					c0-0.02-0.02-0.02-0.04-0.02c-0.02,0.02,0,0.02-0.02,0.04C-148.28,245.13-148.24,245.11-148.24,245.11 M-148.3,244.97
					C-148.3,244.99-148.28,244.99-148.3,244.97c0.04,0.02,0.04,0.02,0.04,0.04c0,0.02,0,0.02-0.02,0.02c0.02,0,0.02,0,0.02,0.02
					h-0.02c0,0,0,0.02,0.02,0.02c0,0,0,0,0.02,0l0.06-0.02c0,0,0.02,0,0.02-0.02v-0.02c0,0,0,0.02-0.02,0.02c0,0,0,0,0-0.02
					c-0.02,0-0.02,0.02-0.04,0c0-0.02,0-0.02,0-0.02v-0.02c0-0.02-0.02-0.04-0.04-0.02C-148.32,244.93-148.32,244.95-148.3,244.97
					 M-148.15,244.64C-148.15,244.64-148.15,244.66-148.15,244.64L-148.15,244.64"/>
			</g>
			<g id="g3251_1_" transform="translate(77.9788,799.8422)">
				<path id="path3253_1_" class="st3" d="M-147.02,245.46c0,0.06-0.06,0.08-0.23,0.08c-0.16,0-0.7-0.06-0.7,0.04
					c0,0.06,0.19,0.04,0.31,0.04c0,0,0.02-0.02,0.04-0.02c0.23-0.06,0.45,0.08,0.62,0.04c-0.12,0.12-0.29-0.02-0.45,0.02
					c0.1,0,0.21,0.02,0.21,0.04c-0.08-0.04-0.29,0.04-0.39-0.02c0,0-0.02,0-0.02-0.02c-0.16,0-0.37,0.02-0.37-0.08
					c0-0.16,0.6-0.06,0.74-0.06s0.19-0.02,0.19-0.04c0-0.04-0.14-0.04-0.23-0.04c-0.12,0-0.7,0.08-0.93,0
					c0.02,0.04,0.06,0.1,0.04,0.12c0.02,0,0.04,0.02,0.04,0.04c-0.02,0.02-0.02,0.02-0.04,0.02v0.02c0,0,0,0.02-0.02,0.02
					c0,0-0.02,0.02-0.04,0.04c-0.02,0.02-0.04,0.02-0.04,0.02s-0.02,0-0.04,0c-0.02,0-0.02,0-0.02-0.02c0,0-0.02,0.02-0.04,0.02
					c0-0.02-0.02-0.04,0-0.06c-0.02,0-0.04-0.06-0.06-0.04c0-0.02,0.02-0.02,0.02-0.02c-0.02-0.02-0.02-0.06-0.04-0.06l0.02-0.02
					c0-0.02,0-0.04,0-0.06h-0.02c-0.02,0-0.02,0-0.02,0h-0.02c-0.02,0-0.04,0.04-0.1,0.08c-0.04,0.02-0.04,0.04-0.04,0.06
					c0,0.02,0.02,0.06,0.02,0.08v0.02c0,0.02-0.04,0.04-0.04,0.02l0.02-0.02l-0.02-0.02v-0.02l0,0c0,0,0,0,0-0.02l0,0
					c0,0.02-0.02,0.06-0.04,0.06c0,0,0,0-0.02,0l0,0c0,0.02-0.02,0.04-0.04,0.02h0.02v-0.02c0-0.02,0.02-0.02,0.04-0.04l0,0l0,0l0,0
					c-0.04,0.02-0.06,0-0.06-0.02v-0.02c-0.02-0.02-0.02-0.02,0-0.04v0.02l0,0c0,0,0,0,0.02,0c0,0,0,0,0.02,0l0,0c0,0,0,0,0.02,0
					l0,0c-0.02-0.02-0.02-0.04,0.02-0.06l0,0c0-0.04-0.06-0.04-0.06,0c-0.04-0.06,0.02-0.1,0.08-0.06l0,0c0,0,0-0.02,0.02-0.02
					c0,0,0,0,0.02,0l0,0c0-0.02,0-0.02,0.02-0.04v0.02c0,0,0.04-0.06,0.12-0.1c0.02,0,0.04,0,0.04,0.02c0,0,0-0.02,0.02-0.02
					c0-0.04,0.02-0.06,0.02-0.06s-0.12,0-0.14,0c-0.04-0.02-0.1-0.04-0.14-0.02c0,0.02,0,0.02-0.02,0.04c0,0.02-0.02,0.02-0.02,0.02
					h-0.02c-0.02,0.02-0.04,0.02-0.06,0c0,0,0.02,0,0.04-0.02v-0.02c0-0.02,0-0.02,0.04-0.04l0,0h-0.02
					c-0.02,0.02-0.02,0.04-0.04,0.02c0,0,0,0-0.02,0l0,0c-0.02,0-0.06-0.02-0.04-0.06l0.02,0.02v-0.02c0-0.02,0.02-0.04,0.06-0.02
					l0,0c-0.02-0.02-0.04-0.04-0.02-0.06c0,0,0,0,0.02,0l0,0c0-0.02,0.02-0.06,0.04-0.04c0,0-0.02,0.02-0.02,0.04h0.02
					c0.02,0,0.02,0.04,0.02,0.04l0,0c0-0.02,0-0.04,0.04-0.04c0.02,0,0.04,0.02,0.04,0.04l0,0c0,0,0.02-0.02,0.02-0.04l0.02,0.02
					c0-0.02,0-0.04-0.02-0.04c0.02,0,0.04,0.02,0.04,0.04v-0.02l0,0c0,0,0.02,0,0.06,0l0,0c0-0.02,0-0.02,0-0.02s0,0.02,0.02,0.02
					c0,0,0-0.02,0.02-0.04c0,0.08,0.1,0.04,0.14,0.06l0,0c0,0,0-0.02-0.02-0.02c0.02,0,0.04,0,0.06,0.02l0,0l0.08,0.04v0.02h0.02
					l0,0c0.04,0,0.04,0.04,0.06,0.04c0.29-0.04,0.12,0.12,0.45,0.08c0.02,0,0.02,0,0.04,0.02c-0.02-0.04-0.02-0.08,0.02-0.08
					c0.02,0,0.04-0.02,0.06-0.02l0,0c-0.02,0-0.04,0-0.04-0.02c-0.06-0.04-0.06,0.08-0.1,0.06c0,0-0.02,0-0.02-0.02
					c-0.02,0-0.06-0.02-0.04-0.04c0,0,0.02,0.02,0.04,0.02c0,0,0,0,0-0.02c0,0,0-0.02,0.02-0.02c0.02,0,0.02,0,0.02,0l0,0
					c0-0.02-0.06,0.02-0.06-0.04v-0.02c0-0.02,0.02-0.04,0.04-0.02l-0.02,0.02h0.02l0,0l0,0l0,0c0,0,0,0,0-0.02v-0.02
					c0-0.02,0.02-0.04,0.06-0.02c0,0-0.02,0-0.02,0.02h0.02v0.02l0,0c0,0,0,0,0.02,0c0,0,0,0,0.02,0c0-0.02,0.02-0.02,0.04-0.02
					c0.04,0.02,0,0.04,0.04,0.06h0.02c0.02,0,0.08,0,0.08,0c0,0.02,0,0.06-0.02,0.08c-0.02,0,0,0.04-0.02,0.06
					c0.04-0.02,0.06-0.02,0.1-0.02c0.08,0,0.1,0.02,0.12,0.04c0.04,0.02,0.08,0.02,0.1,0c0,0,0.02,0,0.02-0.02c0-0.04,0-0.04,0-0.06
					c0-0.02-0.04,0-0.06,0c-0.02,0-0.02,0-0.02-0.02c-0.02,0-0.04-0.02-0.04-0.04c0,0,0.02,0.02,0.04,0.02l0,0
					c0-0.02,0.04-0.04,0.04-0.02l0,0c-0.02-0.02-0.04-0.04-0.02-0.04c0,0,0,0,0.02,0c0-0.02,0.02-0.04,0.02-0.04s0,0.02,0,0.04h0.02
					c0.02,0,0,0.04,0.02,0.04l0,0c0-0.02,0-0.04,0-0.04s0,0,0.02,0c0-0.02,0.02-0.02,0.04-0.02c0,0-0.02,0-0.02,0.02l0.02,0.02
					c0.02,0.04-0.02,0.04-0.02,0.06s0.04,0,0.04,0.04c0,0,0,0.02-0.02,0.02l0,0l0,0c0.02,0,0.02,0,0.02,0.02
					c-0.04,0-0.02,0.02-0.02,0.04l0,0c0,0,0.02,0.02,0.02,0.04c0-0.02-0.04-0.04-0.04,0c0,0,0,0.02-0.04,0.02
					c-0.06,0-0.08,0-0.19,0.02C-147.19,245.38-147.02,245.4-147.02,245.46 M-148.27,245.6c0,0,0.04-0.02,0.06-0.02
					c-0.02,0-0.02-0.02-0.04-0.02C-148.27,245.56-148.27,245.58-148.27,245.6 M-148.32,245.62c0-0.02-0.02-0.02-0.04-0.02
					c-0.02,0.02,0,0.02-0.02,0.04C-148.36,245.64-148.32,245.62-148.32,245.62 M-148.38,245.48
					C-148.38,245.5-148.38,245.5-148.38,245.48c0.04,0.02,0.04,0.02,0.04,0.04s0,0.02-0.02,0.02c0.02,0,0.02,0,0.02,0.02h-0.02
					c0,0,0,0,0.02,0.02c0,0,0,0,0.02,0l0.06-0.02c0,0,0.02,0,0.02-0.02v-0.02c0,0,0,0.02-0.02,0.02c0,0,0,0,0-0.02
					c-0.02,0-0.02,0-0.04,0v-0.02v-0.02c0-0.02-0.02-0.02-0.04-0.02C-148.38,245.46-148.38,245.48-148.38,245.48"/>
			</g>
			<g id="g3255_1_" transform="translate(82.0435,797.6415)">
				<path id="path3257_1_" class="st3" d="M-148.63,246.34L-148.63,246.34c0.02,0.02,0.02,0.02,0.02,0.06
					c-0.02-0.02-0.04-0.04-0.04,0c0,0,0,0.02-0.04,0.02c-0.06,0-0.1,0-0.21,0.02c0,0-0.02,0,0,0c0.1,0,0.29,0.02,0.29,0.08
					c0,0.06-0.06,0.08-0.23,0.08c-0.16,0-0.7-0.06-0.7,0.04c0,0.06,0.19,0.04,0.31,0.04c0,0,0.02-0.02,0.04-0.02
					c0.23-0.06,0.47,0.1,0.62,0.06c-0.16,0.06-0.29-0.04-0.45,0c0.1,0,0.21,0.02,0.21,0.04c-0.08-0.04-0.29,0.04-0.39-0.02
					c0,0-0.02,0-0.02-0.02c-0.16,0-0.37,0.02-0.37-0.08c0-0.16,0.6-0.06,0.74-0.06s0.19-0.02,0.19-0.04c0-0.04-0.14-0.06-0.23-0.06
					c-0.14,0-0.7,0.08-0.93,0c0.02,0.04,0.06,0.1,0.04,0.12c0.02,0,0.04,0.02,0.04,0.04c-0.02,0.02-0.02,0.02-0.04,0.02v0.02
					c0,0,0,0.02-0.02,0.02c0,0-0.02,0.02-0.04,0.04c-0.02,0.02-0.04,0.02-0.04,0.02h-0.02c-0.02,0-0.02,0-0.02-0.02
					c-0.02,0-0.02,0.02-0.04,0.02c0-0.02-0.02-0.04,0-0.06c-0.02,0-0.04-0.06-0.06-0.04c0-0.02,0.02-0.02,0.02-0.02
					c-0.02-0.02-0.02-0.06-0.04-0.06c0.02-0.02,0.02-0.02,0.02-0.02c0-0.02,0-0.04,0-0.04h-0.02c-0.02,0-0.02,0-0.02,0h-0.02
					c-0.02,0-0.04,0.04-0.1,0.08c-0.04,0.02-0.04,0.04-0.04,0.06c0,0.02,0.02,0.06,0.02,0.08v0.02c0,0.02-0.02,0.04-0.04,0.02
					l0.02-0.02l-0.02-0.02v-0.02l0,0c0,0,0,0,0-0.02l0,0c0,0.02-0.02,0.04-0.04,0.06h-0.02l0,0c0,0.02-0.02,0.04-0.04,0.02h0.02
					v-0.02c0-0.02,0.02-0.04,0.04-0.04l0,0l0,0l0,0c-0.04,0.02-0.06,0-0.06-0.02v-0.02c-0.02,0-0.02-0.02,0-0.04v0.02l0,0
					c0,0,0,0,0.02,0c0,0,0,0,0.02,0l0,0c0,0,0,0,0.02,0l0,0c-0.02-0.02-0.02-0.06,0.02-0.06l0,0c0-0.04-0.06-0.04-0.06,0
					c-0.04-0.06,0.02-0.1,0.08-0.06l0,0c0,0,0-0.02,0.02-0.02c0,0,0,0,0.02,0l0,0c0-0.02,0-0.02,0.02-0.04c0,0.02,0,0.02,0,0.02
					s0.04-0.06,0.1-0.1c0,0,0.02,0.02,0.04,0.02c0-0.02,0.02-0.02,0.02-0.04h0.02c0-0.04,0.04-0.06,0.02-0.06c-0.02,0-0.08,0-0.1,0
					c-0.04-0.02-0.1-0.04-0.14-0.02c0,0.02,0,0.02-0.02,0.04c0,0.02-0.02,0.02-0.02,0.02h-0.02c-0.02,0.02-0.04,0.02-0.06,0
					c0,0,0.02,0,0.02-0.02v-0.02c0-0.02,0-0.02,0.04-0.04l0,0h-0.02c-0.02,0.02-0.02,0.04-0.04,0.02c0,0,0,0-0.02,0l0,0
					c-0.02,0-0.06-0.02-0.04-0.06l0.02,0.02v-0.02c0-0.02,0.02-0.04,0.06-0.02l0,0c-0.02-0.02-0.04-0.04-0.02-0.06c0,0,0,0,0.02,0
					l0,0c0-0.02,0.02-0.04,0.04-0.04c0,0-0.02,0.02-0.02,0.04h0.02c0.02,0,0.02,0.04,0.02,0.04l0,0c0-0.02,0-0.04,0.04-0.04
					c0.02,0,0.04,0.02,0.04,0.04l0,0c0,0,0.02-0.02,0.02-0.04l0.02,0.02c0-0.02,0-0.04-0.02-0.06c0.02,0,0.04,0.02,0.04,0.06
					c0,0,0-0.02,0.02-0.02l0,0c0,0,0.02,0,0.06,0l0,0c0-0.02,0-0.02,0-0.02s0,0.02,0.02,0.02c0,0,0-0.02,0.02-0.04
					c0,0.08,0.04,0.04,0.1,0.08l0,0c0,0,0-0.02-0.02-0.02c0.02-0.02,0.08,0.02,0.08,0.06c0,0,0.02,0,0.04,0.02
					c0.04,0,0.04,0.04,0.06,0.04c0.29-0.04,0.12,0.12,0.45,0.08c0.02,0,0.02,0.02,0.04,0.04c-0.02-0.04-0.02-0.1,0.02-0.1
					c0.02,0,0.04-0.02,0.06-0.02l0,0c-0.02,0-0.04,0-0.04-0.02c-0.04-0.04-0.06,0.08-0.1,0.06c0,0-0.02,0-0.02-0.02
					c-0.02,0-0.04-0.02-0.04-0.04c0,0,0.02,0.02,0.04,0.02v-0.02c0,0,0-0.02,0.02-0.02s0.02,0,0.02,0l0,0
					c0-0.02-0.06,0.02-0.06-0.04c0,0,0-0.02,0.02-0.02c0-0.02,0.02-0.04,0.04-0.02l-0.02,0.02h0.02l0,0l0,0l0,0c0,0,0,0,0-0.02
					v-0.02c0-0.02,0.02-0.04,0.06-0.02c0,0-0.02,0-0.02,0.02h0.02v0.02l0,0c0,0,0,0,0.02,0l0,0c0-0.02,0.02-0.02,0.04-0.02
					c0.04,0.02,0,0.04,0.04,0.04h0.02c0.02,0,0.06,0,0.08,0c0,0.02,0,0.06-0.02,0.08c-0.02,0,0,0.04-0.02,0.06
					c0.04-0.02,0.06-0.02,0.1-0.02c0.08,0,0.1,0.02,0.14,0.04c0.04,0.02,0.08,0.02,0.1,0c0,0,0.02,0,0.02-0.02
					c-0.02-0.04,0-0.04,0-0.06c0-0.02-0.04,0-0.06,0c-0.02,0-0.02,0-0.02-0.02c-0.02,0-0.04-0.02-0.04-0.04c0,0,0.02,0.02,0.04,0.02
					l0,0c0-0.02,0.02-0.04,0.04-0.02l0,0c-0.02-0.02-0.04-0.04-0.02-0.04c0,0,0,0,0.02,0c0-0.02,0-0.04,0.02-0.04c0,0,0,0.02,0,0.04
					h0.02c0.02,0,0.02,0.04,0.04,0.04l0,0c0-0.02-0.02-0.04,0-0.04c0,0,0,0,0.02,0c0-0.02,0.02-0.02,0.04-0.02c0,0-0.02,0-0.02,0.02
					l0.02,0.02c0.02,0.04-0.02,0.04-0.02,0.06s0.04,0,0.04,0.04c0,0,0,0.02-0.02,0.02l0,0l0,0c0.02,0,0.02,0,0.04,0.02
					C-148.65,246.28-148.63,246.32-148.63,246.34 M-149.88,246.65c0,0,0.04-0.02,0.06-0.02c-0.02-0.02-0.02-0.02-0.02-0.02
					C-149.86,246.61-149.88,246.63-149.88,246.65 M-149.92,246.67c0-0.02-0.02-0.02-0.04-0.02c-0.02,0.02,0,0.02-0.02,0.04
					C-149.96,246.69-149.92,246.67-149.92,246.67 M-149.98,246.53C-149.98,246.55-149.96,246.55-149.98,246.53
					c0.04,0.02,0.04,0.02,0.04,0.04s0,0.02-0.02,0.02c0.02,0,0.02,0,0.02,0.02h-0.02v0.02c0,0,0,0,0.02,0l0.06-0.02c0,0,0,0,0-0.02
					v-0.02c0,0,0,0.02-0.02,0.02c0,0,0,0,0-0.02c-0.02,0-0.02,0.02-0.04,0v-0.02v-0.02C-149.94,246.51-149.96,246.51-149.98,246.53
					C-149.98,246.51-149.98,246.53-149.98,246.53 M-150.02,246.61L-150.02,246.61L-150.02,246.61z M-150,246.67L-150,246.67
					L-150,246.67 M-149.76,246.28L-149.76,246.28L-149.76,246.28"/>
			</g>
			<g id="g3259_1_" transform="translate(80.7611,796.9224)">
				<path id="path3261_1_" class="st3" d="M-148.12,246.63c0-0.02,0.02-0.02,0.04-0.02c0.21-0.06,0.45,0.1,0.58,0.06
					c-0.16,0.06-0.27-0.04-0.43,0c0.1,0,0.19,0.02,0.21,0.04c-0.08-0.04-0.27,0.02-0.37-0.02c0,0,0,0-0.02,0
					c-0.12,0-0.21,0-0.21-0.08c0-0.16,0.43-0.06,0.58-0.06s0.12-0.02,0.12-0.04c0-0.04-0.16-0.04-0.23-0.04
					c-0.12,0-0.47,0.06-0.7,0.02c0.02,0.04,0.06,0.08,0.04,0.1c0.02,0,0.04,0.02,0.04,0.04c-0.02,0.02-0.02,0.02-0.04,0.02v0.02
					c0,0,0,0.02-0.02,0.02c0,0-0.02,0.02-0.04,0.04c-0.02,0.02-0.04,0.02-0.04,0.02h-0.02c-0.02,0-0.02,0-0.02-0.02
					c0,0-0.02,0.02-0.04,0.02c0-0.02-0.02-0.04,0-0.06c-0.02,0-0.04-0.04-0.06-0.04c0-0.02,0.02-0.02,0.02-0.02
					c-0.02-0.02-0.02-0.06-0.04-0.06l0.02-0.02c0-0.02,0-0.04-0.02-0.06h-0.02l0,0c-0.02,0-0.04,0-0.08,0.02
					c-0.04,0.02-0.04,0.04-0.04,0.06c0,0.02,0.02,0.06,0.02,0.08v0.02c0,0.02-0.02,0.04-0.04,0.02l0.02-0.02l-0.02-0.02v-0.02l0,0
					c0,0,0,0,0-0.02l0,0c0,0.02-0.02,0.04-0.04,0.04c0,0,0,0-0.02,0l0,0c0,0.02-0.02,0.04-0.04,0.02h0.02v-0.02
					c0-0.02,0.02-0.02,0.04-0.02l0,0l0,0l0,0c-0.04,0.02-0.06,0-0.06-0.02v-0.02c-0.02,0-0.02-0.02,0-0.04v0.02l0,0l0,0
					c0,0,0,0,0.02,0l0,0c0,0,0,0,0.02,0l0,0c-0.02-0.02-0.02-0.04,0.02-0.06l0,0c0-0.04-0.06-0.04-0.06,0
					c-0.04-0.06,0.02-0.1,0.08-0.06l0,0c0,0,0-0.02,0.02-0.02l0,0l0,0c0-0.02,0-0.02,0.02-0.02v0.02c0,0,0,0.02,0.06-0.02
					c0,0,0-0.02,0.02-0.02h0.04c0-0.04,0-0.08,0-0.08s-0.08,0-0.1,0c-0.02-0.02-0.1-0.04-0.12-0.02c0,0.02,0,0.02-0.02,0.04
					c0,0.02-0.02,0.02-0.02,0.02h-0.02c-0.02,0.02-0.04,0.02-0.06,0c0,0,0.02,0,0.02-0.02v-0.02c0,0,0-0.02,0.04-0.04l0,0h-0.02
					c-0.02,0.02-0.02,0.04-0.04,0.02c0,0,0,0-0.02,0l0,0c-0.02,0-0.06-0.02-0.04-0.04c0,0,0,0.02,0.02,0.02v-0.02
					c0-0.02,0.02-0.04,0.06,0l0,0c-0.02-0.02-0.04-0.04-0.02-0.06c0,0,0,0,0.02,0l0,0c0-0.02,0.02-0.04,0.04-0.04
					c0,0-0.02,0.02-0.02,0.04h0.02c0.02,0,0.02,0.04,0.02,0.04l0,0c0-0.02,0-0.04,0.04-0.04c0.02,0,0.04,0.02,0.04,0.04l0,0
					c0,0,0.02-0.02,0.02-0.04l0.02,0.02c0-0.02,0-0.04-0.02-0.04c0.02,0,0.04,0.02,0.04,0.04c0,0,0-0.02,0.02-0.02l0,0
					c0,0,0.02,0,0.06,0l0,0c0-0.02,0-0.02,0-0.02s0,0.02,0.02,0.02c0,0,0-0.02,0.02-0.04c0,0.08,0.06,0.06,0.1,0.08l0,0
					c0,0,0-0.02-0.02-0.02c0.04-0.02,0.1,0.04,0.12,0.08c0,0,0,0,0.02,0.02v-0.02c0.04,0,0.04,0.04,0.06,0.04
					c0.14-0.02,0.04,0.12,0.27,0.08c0.02,0,0.04,0.02,0.06,0.02c-0.02-0.02-0.02-0.1,0.02-0.1c0.02,0,0.04-0.02,0.06-0.02l0,0
					c-0.02,0-0.04,0-0.04-0.02c-0.04-0.04-0.04,0.08-0.1,0.06h-0.02c-0.02,0-0.04-0.02-0.04-0.04c0,0,0.02,0.02,0.04,0.02
					c0,0,0,0,0-0.02c0,0,0-0.02,0.02-0.02s0.02,0,0.02,0l0,0c0-0.02-0.06,0.02-0.06-0.04v-0.02c0-0.02,0.02-0.04,0.04-0.02
					l-0.02,0.02h0.02l0,0l0,0l0,0c0,0,0,0,0-0.02v-0.02c0-0.02,0.02-0.04,0.06-0.02c0,0-0.02,0-0.02,0.02h0.02v0.02l0,0
					c0,0,0,0,0.02,0l0,0c0-0.02,0.02-0.02,0.04-0.02c0.04,0.02,0,0.04,0.04,0.04h0.02c0.02,0,0.06,0,0.08,0c0,0.02,0,0.06-0.02,0.08
					c-0.02,0,0,0.02-0.02,0.06c0.02-0.02,0.06-0.02,0.1-0.02c0.08,0,0.1,0,0.14,0.02c0.04,0.02,0.08,0.02,0.1,0c0,0,0.02,0,0-0.02
					c-0.02-0.04,0-0.04-0.02-0.06c-0.02-0.02-0.04,0-0.06,0c-0.02,0-0.02,0-0.02,0c-0.02,0-0.04-0.02-0.04-0.04
					c0,0,0.02,0.02,0.04,0.02l0,0c0-0.02,0.02-0.04,0.04-0.02l0,0c-0.02-0.02-0.06-0.04-0.04-0.04c0,0,0,0,0.02,0
					c0-0.02,0-0.04,0.02-0.04c0,0,0,0.02,0.02,0.04h0.02c0.02,0,0.02,0.04,0.04,0.04l0,0c-0.02-0.02-0.02-0.04,0-0.04
					c0,0,0,0,0.02,0c0-0.02,0.02-0.02,0.04-0.02c0,0-0.02,0-0.02,0.02l0.02,0.02c0.02,0.04-0.02,0.04,0,0.06
					c0,0.02,0.04,0,0.06,0.04c0,0,0,0.02-0.02,0.02l0,0l0,0c0.02,0,0.02,0,0.04,0.02c-0.02,0-0.02,0.02-0.02,0.04l0,0
					c0.02,0,0.02,0.02,0.02,0.04c-0.02-0.02-0.04-0.02-0.04,0c0,0,0,0.02-0.02,0.02c-0.04,0-0.12,0-0.21,0.02l0,0
					c0.1,0,0.29,0.02,0.29,0.08c0,0.04,0,0.08-0.16,0.08c-0.16,0-0.53-0.06-0.53,0.04C-148.29,246.63-148.2,246.63-148.12,246.63
					 M-148.66,246.63c0-0.02-0.02-0.02-0.04-0.02c-0.02,0.02,0,0.02-0.02,0.04C-148.7,246.65-148.68,246.63-148.66,246.63
					 M-148.61,246.52C-148.63,246.52-148.63,246.54-148.61,246.52C-148.66,246.54-148.63,246.54-148.61,246.52
					c-0.02,0-0.04,0-0.04,0c0-0.02,0-0.02,0-0.02v-0.02c0,0-0.02-0.02-0.04-0.02c-0.02,0-0.02,0.02-0.02,0.04
					c0,0.02,0.02,0.02,0.02,0.02c0.02,0,0.02,0,0.02,0.02s0,0.02-0.02,0.02c0.02,0,0.02,0,0.02,0.02h-0.02c0,0,0,0,0,0.02
					c0,0,0,0,0.02,0l0.06-0.02C-148.61,246.57-148.61,246.57-148.61,246.52C-148.61,246.54-148.61,246.54-148.61,246.52
					 M-148.59,246.57c-0.02,0-0.02,0.02-0.02,0.04c0,0,0.04-0.02,0.06-0.02C-148.57,246.59-148.57,246.57-148.59,246.57"/>
			</g>
			<g id="g3263_1_" transform="translate(80.4738,795.6606)">
				<path id="path3265_1_" class="st3" d="M-148.02,247.12c0-0.02,0.02-0.02,0.04-0.02c0.21-0.06,0.45,0.1,0.58,0.06
					c-0.16,0.06-0.27-0.04-0.43,0c0.1,0,0.19,0.02,0.21,0.04c-0.08-0.04-0.27,0.04-0.37-0.02c0,0-0.02,0-0.02-0.02
					c-0.06-0.02-0.12-0.04-0.12-0.1c0-0.14,0.53-0.02,0.53-0.08c0-0.04-0.1-0.08-0.25-0.08c-0.1,0-0.29,0.06-0.53,0.02l0,0
					c0.02,0.04,0.06,0.1,0.04,0.12c0.02,0,0.04,0.02,0.04,0.04c-0.02,0.02-0.02,0.02-0.04,0.02c0,0.02,0,0.02,0,0.02
					s0,0.02-0.02,0.02c0,0-0.02,0.02-0.04,0.02c-0.02,0.02-0.04,0-0.04,0.02h-0.02c0,0-0.02,0-0.02-0.02c0,0-0.02,0.02-0.04,0.02
					c0-0.02-0.02-0.04,0-0.06c-0.02,0-0.04-0.04-0.06-0.04c0-0.02,0.02-0.02,0.02-0.02c-0.02-0.02-0.02-0.06-0.04-0.06l0.02-0.02
					c0-0.04-0.02-0.1,0-0.12c-0.04,0.04-0.08,0.1-0.12,0.12c-0.04,0.02-0.04,0.04-0.04,0.06c0,0.02,0.02,0.04,0.02,0.08v0.02
					c0,0.02-0.02,0.02-0.04,0.02l0.02-0.02l-0.02-0.02v-0.02l0,0c0,0,0,0,0-0.02l0,0c0,0.02-0.02,0.04-0.04,0.04c0,0,0,0-0.02,0l0,0
					c0,0.02-0.02,0.04-0.04,0.02h0.02v-0.02c0-0.02,0.02-0.02,0.04-0.02l0,0l0,0l0,0c-0.04,0.02-0.04,0-0.06-0.02v-0.02
					c-0.02,0-0.02-0.02,0-0.04v0.02l0,0l0,0c0,0,0,0,0.02,0l0,0c0,0,0,0,0.02,0l0,0c-0.02-0.02-0.02-0.04,0.02-0.04l0,0
					c0-0.04-0.06-0.04-0.06,0c-0.04-0.04,0.02-0.08,0.06-0.06l0,0c0,0,0-0.02,0.02-0.02l0,0l0,0c0-0.02,0-0.02,0.02-0.02v0.02
					c0,0,0-0.06,0.06-0.1c0.02-0.04,0.04-0.06,0.08-0.06c0.02-0.02,0.02-0.04,0.02-0.04s-0.08,0-0.1,0s-0.04-0.02-0.06-0.02l0,0l0,0
					c-0.02,0-0.04,0-0.06,0.02c0,0,0,0.02-0.02,0.04c0,0.02-0.02,0.02-0.02,0.02h-0.02c-0.02,0.02-0.04,0.02-0.04,0
					c0,0,0.02,0,0.02-0.02v-0.02c0,0,0-0.02,0.04-0.04l0,0h-0.02c-0.02,0.02-0.02,0.04-0.04,0.02c0,0,0,0-0.02,0l0,0
					c-0.02,0-0.04-0.02-0.04-0.04c0,0,0,0.02,0.02,0.02v-0.02c0-0.02,0.02-0.04,0.06,0l0,0c-0.02-0.02-0.04-0.04-0.02-0.06l0,0l0,0
					c0-0.02,0.02-0.04,0.04-0.04c0,0-0.02,0.02-0.02,0.04h0.02c0.02,0,0.02,0.04,0.02,0.04l0,0c0-0.02,0-0.04,0.04-0.04
					c0.02,0,0.04,0.02,0.04,0.04l0,0l0.02-0.02c0,0,0.02,0,0.02,0.02c0-0.02,0-0.02-0.02-0.04c0,0,0.04,0.02,0.04,0.04
					c0,0,0,0,0-0.02l0,0c0,0,0.02,0,0.06,0l0,0v-0.02c0,0,0,0.02,0.02,0.02c0,0,0-0.02,0.02-0.04c0,0.06,0.04,0.04,0.08,0.06l0,0
					c0,0,0-0.02-0.02-0.02c0.02,0,0.06,0.02,0.06,0.04c0,0,0.04,0.04,0.04,0.12h0.02c0.06,0,0.08,0.04,0.14,0.04
					c-0.02-0.02-0.02-0.06-0.02-0.08c0-0.02,0.04-0.06,0.06-0.08l0,0c-0.02,0-0.04,0-0.04-0.02c-0.04-0.02-0.04,0.06-0.1,0.04
					c0,0,0,0-0.02-0.02c-0.02,0-0.04-0.02-0.04-0.04c0,0,0.02,0.02,0.04,0.02l0,0c0,0,0-0.02,0.02-0.02h0.02l0,0
					c0-0.02-0.06,0.02-0.04-0.04v-0.02c0-0.02,0.02-0.04,0.04-0.02l-0.02,0.02h0.02l0,0l0,0l0,0c0,0,0,0,0-0.02v-0.02
					c0-0.02,0.02-0.04,0.06-0.02c0,0-0.02,0-0.02,0.02h0.02v0.02l0,0c0,0,0,0,0.02,0l0,0c0,0,0.02-0.02,0.04-0.02
					c0.04,0.02,0,0.04,0.04,0.04h0.02c0.02,0,0.04-0.02,0.06,0c0,0.02,0,0.06-0.02,0.08c-0.02,0,0.02,0.1-0.06,0.16
					c0.04,0,0.16-0.02,0.19,0c0.04,0,0.08-0.04,0.08-0.04v-0.02c-0.04-0.02-0.02-0.02-0.04-0.04l0,0c0,0-0.02,0.02-0.04,0.04
					c-0.02,0-0.02,0-0.02,0c-0.02,0-0.04,0-0.04-0.02c0,0,0.02,0,0.04,0l0,0v-0.02l0,0l0,0l0,0l0,0c-0.02,0-0.06,0-0.04-0.02
					c0,0,0,0,0-0.02c-0.02,0-0.02-0.02,0-0.04c0,0,0,0.02,0.02,0.02c0,0,0,0,0-0.02c0,0,0.02,0.02,0.04,0.02l0,0
					c-0.02,0-0.04-0.02-0.02-0.04c0,0,0,0,0-0.02c0-0.02,0-0.04,0.02-0.04v0.02h0.02c0.04,0.02,0.02,0.04,0.02,0.06
					c0.02,0.02,0.02-0.02,0.06,0v0.02l0,0l0,0c0,0,0.02-0.02,0.02,0c-0.02,0.02,0,0.02,0.02,0.04l0,0c0,0,0.02,0,0.04,0.02
					c-0.02,0-0.06,0.02-0.04,0.02c0.04,0.02,0.04,0.04,0.02,0.06c-0.02,0.04-0.08,0.04-0.08,0.08c0.02,0,0.04,0,0.06,0
					c0.19,0,0.31,0.04,0.29,0.1c0,0.12-0.56,0-0.56,0.08C-148.08,247.09-148.06,247.12-148.02,247.12 M-148.41,247.12
					c0,0,0.04-0.02,0.06-0.02c-0.02,0-0.02-0.02-0.04-0.02C-148.41,247.07-148.41,247.09-148.41,247.12 M-148.45,247.12
					c0-0.02-0.02-0.02-0.04-0.02c-0.02,0.02,0,0.02-0.02,0.04C-148.49,247.14-148.45,247.14-148.45,247.12 M-148.49,246.99
					C-148.49,247.01-148.49,247.01-148.49,246.99c0.02,0.02,0.04,0.02,0.04,0.02c0,0.02,0,0.02-0.02,0.02c0.02,0,0.02,0,0.02,0.02
					h-0.02v0.02c0,0,0,0,0.02,0l0.04-0.02c0,0,0,0,0-0.02v-0.02c0,0,0,0.02-0.02,0.02c0,0,0,0,0-0.02c-0.02,0-0.02,0-0.02,0v-0.02
					v-0.02c0-0.02-0.02-0.02-0.04-0.02C-148.51,246.97-148.51,246.99-148.49,246.99"/>
			</g>
			<g id="g3267_1_" transform="translate(65.8166,811.4315)">
				<path id="path3269_1_" class="st3" d="M-142.17,240.84c0,0.08-0.06,0.12-0.12,0.12c-0.08,0-0.12-0.06-0.12-0.12
					s0.06-0.12,0.12-0.12S-142.17,240.77-142.17,240.84"/>
			</g>
			<g id="g3271_1_" transform="translate(65.7403,812.0159)">
				<path id="path3273_1_" class="st3" d="M-142.15,240.62c0,0.08-0.06,0.12-0.12,0.12c-0.08,0-0.12-0.06-0.12-0.12
					c0-0.06,0.06-0.12,0.12-0.12C-142.19,240.47-142.15,240.54-142.15,240.62"/>
			</g>
			<g id="g3275_1_" transform="translate(65.8646,812.2751)">
				<path id="path3277_1_" class="st3" d="M-142.19,240.52c0.08,0,0.12,0.06,0.12,0.12s-0.06,0.12-0.12,0.12
					c-0.08,0-0.12-0.06-0.12-0.12S-142.27,240.52-142.19,240.52"/>
			</g>
			<g id="g3279_1_" transform="translate(66.4486,812.3138)">
				<path id="path3281_1_" class="st3" d="M-142.42,240.48c0.08,0,0.12,0.06,0.12,0.12c0,0.08-0.06,0.12-0.12,0.12
					c-0.08,0-0.12-0.06-0.12-0.12C-142.55,240.55-142.49,240.48-142.42,240.48"/>
			</g>
			<g id="g3283_1_" transform="translate(68.9408,812.7192)">
				<path id="path3285_1_" class="st3" d="M-143.42,240.33c0.06-0.04,0.14-0.04,0.19,0c0.04,0.04,0.04,0.14,0,0.19
					c-0.06,0.06-0.14,0.06-0.19,0C-143.46,240.47-143.46,240.39-143.42,240.33"/>
			</g>
			<g id="g3287_1_" transform="translate(68.8917,813.1867)">
				<path id="path3289_1_" class="st3" d="M-143.4,240.14c0.06,0.04,0.06,0.14,0,0.19c-0.06,0.04-0.14,0.06-0.19,0
					c-0.06-0.04-0.04-0.14,0-0.19C-143.52,240.1-143.44,240.1-143.4,240.14"/>
			</g>
			<g id="g3291_1_" transform="translate(68.3103,813.2815)">
				<path id="path3293_1_" class="st3" d="M-143.16,240.11c0.04,0.04,0.04,0.14,0,0.19c-0.06,0.06-0.14,0.06-0.19,0
					c-0.04-0.06-0.04-0.14,0-0.19C-143.31,240.04-143.23,240.04-143.16,240.11"/>
			</g>
			<g id="g3295_1_" transform="translate(67.8139,812.913)">
				<path id="path3297_1_" class="st3" d="M-142.97,240.26c0.04,0.04,0.04,0.14,0,0.19c-0.06,0.04-0.14,0.04-0.19,0
					c-0.04-0.06-0.04-0.14,0-0.19C-143.1,240.19-143.02,240.19-142.97,240.26"/>
			</g>
			<g id="g3299_1_" transform="translate(66.415,813.2148)">
				<path id="path3301_1_" class="st3" d="M-142.42,240.14l0.1-0.23l0.12,0.16h0.02c0.02-0.08,0.02-0.21,0.02-0.29
					c0-0.1,0.08-0.16,0.16-0.16c0.08,0,0.16,0.08,0.16,0.16c0,0.06-0.04,0.12-0.08,0.14c-0.06,0.04-0.14,0.12-0.19,0.16v0.02
					l0.23-0.02l-0.08,0.25l-0.16-0.14l0,0l-0.02,0.25l-0.23-0.08l0.14-0.19v-0.02L-142.42,240.14z"/>
			</g>
			<g id="g3303_1_" transform="translate(68.955,812.5322)">
				<path id="path3305_1_" class="st3" d="M-143.43,240.39c0.04-0.08,0.06-0.12,0.08-0.19c-0.04,0.02-0.08,0.06-0.14,0.12l0.02-0.31
					c0.04,0.06,0.06,0.08,0.1,0.1c-0.02-0.21-0.08-0.29-0.16-0.29c-0.08-0.02-0.14,0.04-0.16,0.1c-0.02,0.08,0.06,0.14,0.14,0.06
					c0.02,0.19-0.14,0.19-0.21,0.1c0.08,0.19,0.04,0.29-0.1,0.39c-0.1-0.16-0.06-0.27,0.06-0.41c-0.12,0.06-0.23-0.04-0.12-0.19
					c0.02,0.12,0.12,0.08,0.14,0c0.02-0.08-0.06-0.19-0.19-0.23c-0.19-0.06-0.25,0.06-0.29,0.16c0.04,0.02,0.14,0.02,0.25-0.06
					l-0.08,0.31c-0.04-0.1-0.1-0.14-0.19-0.19c0,0.08,0.06,0.27,0.06,0.27l-0.37-0.14c0,0,0.16-0.08,0.23-0.14
					c-0.08-0.02-0.14-0.04-0.25,0l0.14-0.29c0.02,0.12,0.08,0.21,0.14,0.21c0.04-0.1,0.08-0.23-0.1-0.33
					c-0.12-0.06-0.25-0.04-0.29,0.02c-0.04,0.08,0,0.19,0.1,0.1c-0.02,0.16-0.16,0.16-0.21,0.04c0,0.19-0.04,0.29-0.23,0.33
					c-0.04-0.19,0.02-0.29,0.19-0.35c-0.1,0.02-0.21-0.08-0.06-0.21c0,0.1,0.1,0.12,0.14,0.04c0.04-0.06,0.02-0.14-0.04-0.19
					c-0.06-0.04-0.16-0.04-0.33,0.1c0.04,0.02,0.08,0.02,0.16,0l-0.19,0.25c0.02-0.08,0-0.14-0.02-0.19
					c-0.04,0.04-0.06,0.08-0.08,0.19l-0.14-0.12c0.14-0.08,0.31-0.23,0.49-0.49c0.21,0.12,0.58,0.31,0.8,0.41
					c0.23,0.1,0.62,0.23,0.86,0.27c-0.04,0.33-0.02,0.53,0.02,0.7L-143.43,240.39z"/>
			</g>
			<g id="g3307_1_" transform="translate(73.7679,798.5743)">
				<path id="path3309_1_" class="st3" d="M-145.34,245.97c0.06,0.14-0.21,0.31-0.25,0.49c-0.04,0.19,0,0.39-0.25,0.66
					c-0.23,0.27-1.01,1.11-1.25,1.38c0.06,0,0.21,0.04,0.35-0.1c0.08-0.08,0.25-0.25,0.41-0.39c0.21,0.53,0.47,0.93,0.84,1.36
					c0.04,0.06,0.1,0.1,0.14,0.16c-0.14-0.04-0.35-0.08-0.47-0.16c0,0.23,0,0.41-0.14,0.58c0.06,0.33,0,0.72-0.72,1.19
					c0.37-0.08,0.6-0.43,0.88-0.16c-0.25,0-0.27,0.56-1.19,1.03c0.35,0,0.62-0.56,1.03-0.25c-0.39,0.04-0.51,0.72-1.21,0.95
					c0.25-0.02,0.49-0.14,0.7,0.14c-0.25-0.06-0.39,0.16-0.64,0.19c0.1,0.31,0.08,0.49-0.02,0.7c-0.19-0.02-0.37-0.06-0.49-0.19
					c-0.02,0.16-0.19,0.16-0.35,0.16c0-0.06,0.04-0.16-0.04-0.19c-0.12-0.02-0.53-0.14-0.86-0.27c-0.31-0.12-0.68-0.35-0.78-0.43
					c-0.06-0.04-0.12,0.06-0.16,0.1c-0.1-0.1-0.23-0.23-0.14-0.35c-0.19-0.02-0.37-0.06-0.53-0.19c0-0.21,0.16-0.41,0.43-0.51
					c-0.43-0.43-0.04-0.82-0.41-1.19c0.53-0.02,0.43,0.72,0.7,0.82c-0.02-0.51-0.31-0.62-0.31-1.17c0-0.31,0.19-0.62,0.02-0.82
					c0.45,0.12,0.33,1.11,0.6,1.4c0.04-0.16,0.02-0.33-0.04-0.49c-0.16-0.45,0.02-1.09-0.23-1.27c0.45,0.04,0.51,0.76,0.88,1.03
					c-0.33-0.66-0.64-2.04-1.13-2.73c-0.76-1.05-1.23-2.3-1.93-2.3c-0.31,0-0.56,0.19-0.56,0.58c0,1.17,2.04,1.99,2.04,3.25
					c0,0.56-0.45,0.78-0.74,0.78c-0.19,0-0.43-0.1-0.62-0.25c-0.08,0.04-0.16,0.06-0.25,0.06c-0.72,0-0.53-1.3-1.15-1.27
					c0.25-0.14,0.68,0.12,0.93,0.49c-0.1-0.84-1.32-0.62-1.21-1.62c0.16,0.78,2.08,0.68,2.08,1.87c0,0.14-0.06,0.25-0.16,0.33
					c0.14,0.08,0.29,0.12,0.41,0.12c0.23,0,0.43-0.16,0.43-0.51c0-1.05-2.01-1.95-2.01-3.25c0-0.23,0.06-0.41,0.16-0.53
					c-0.14-0.06-0.29-0.04-0.41,0.1c-0.02-0.33,0.47-0.53,0.76-0.37c0.06-0.02,0.14-0.04,0.21-0.04c-0.08-0.25-0.39-0.33-0.56-0.31
					c0.49-0.39,1.36,0.12,1.32,0.56c0.39,0.31,0.64,0.86,0.93,1.21c-0.02-0.08-0.04-0.16-0.04-0.25c-0.29-0.53-0.56-0.99-0.64-1.69
					c-0.06-0.58-0.35-1.11-0.76-1.11c-0.08,0-0.23,0.12-0.31,0.06c-0.12-0.1,0-0.23,0-0.33c0-0.16-0.31-0.33-0.31-0.84
					c0-0.23,0.12-0.49,0.08-0.66c0.12,0.06,0.31,0.29,0.37,0.56c0.14-0.68-0.29-0.64,0.02-1.23c0.04,0.21,0.23,0.29,0.35,0.21
					c0.12-0.08,0.06-0.14-0.02-0.23s-0.16-0.53,0.23-0.51c-0.08,0.04-0.08,0.16,0.12,0.21c0.29,0.06,0.37-0.08,0.66-0.08
					c0.19,0,0.23,0.25,0.39,0.25c0.14,0,0.14-0.12,0.1-0.21c0.23,0.06,0.29,0.19,0.29,0.33c0,0.12-0.1,0.21-0.02,0.27
					c0.08,0.04,0.35,0,0.25-0.23c0.14,0.02,0.23,0.12,0.23,0.31c0,0.16-0.21,0.27-0.37,0.25c-0.04,0.1-0.19,0.16-0.33,0.16
					c-0.33,0-0.29-0.27-0.51-0.27c-0.37,0-0.72,0.47-0.72,1.27c0,0.43,0.45,0.53,0.78,0.68c0.33,0.14,0.88,0.49,1.23,1.07
					c0.27,0.45,0.27,0.95,0.25,1.52c0.45-0.27,0.51-0.64,0.51-0.9c0-0.35-0.19-0.49-0.33-0.56c-0.12-0.06-0.16-0.04-0.19-0.1
					c-0.02-0.08,0.04-0.14,0.1-0.16c0.16-0.08,0.12-0.25,0.19-0.41c0.04-0.16,0.21-0.43,0.45-0.64c0.02,0.1,0.02,0.27,0,0.49
					c0.35-0.16,0.06-0.88,0.76-0.88c-0.12,0.08-0.08,0.25-0.02,0.29c0.06,0.04,0.16-0.04,0.29-0.23c0.12-0.19,0.1-0.16,0.41-0.16
					c0.33,0,0.19,0.1,0.35,0.1s0.16-0.21,0.06-0.35c0.29,0.08,0.37,0.31,0.27,0.53c0.25,0.14,0.39-0.06,0.43-0.21
					c0.25,0.25,0,0.56-0.21,0.58c0,0.08-0.08,0.19-0.19,0.21c-0.1,0-0.21,0.02-0.33,0c-0.12,0-0.19-0.19-0.33-0.19
					c-0.43,0-1.27,0.78-1.27,1.11c0,0.33,0.8,0.53,0.8,1.05c0,0.68-0.66,0.9-1.23,1.34c0.21,0.23,0.78,0.29,1.11,0.12
					c0.04,0.19,0.16,0.14,0.21,0.47c0.12-0.29,0-0.53,0.12-0.66c0.1,0.14,0.33,0.12,0.33,0.47c0.08-0.23-0.1-0.56,0.08-0.72
					c0.02,0.19,0.14,0.23,0.21,0.23s0.12-0.04,0.12-0.16c0-0.27-0.33-0.14-0.33-0.45c0-0.12,0.16-0.16,0.16-0.25
					c0-0.08-0.12-0.21-0.29-0.1c0.06-0.12,0.16-0.23,0.31-0.23s0.31,0.12,0.37,0.27c0.08-0.19,0.02-0.41-0.12-0.43
					c0.14-0.08,0.49,0,0.45,0.45c0.21-0.04,0.31-0.16,0.19-0.41c0.16,0.04,0.31,0.12,0.31,0.29
					C-145.26,245.75-145.4,245.79-145.34,245.97 M-149.16,252.08c-0.19-0.02-0.19,0.16-0.51,0.25c0.23,0.04,0.51,0.16,0.78,0.27
					C-148.84,252.37-148.94,252.1-149.16,252.08 M-147.85,250.7c-0.25-0.1-0.43,0.1-0.47,0.25c-0.04,0.14-0.08,0.27-0.02,0.31
					c0.1,0.1,0.14,0.19,0.08,0.31c-0.06,0.14-0.23,0.08-0.39,0.04c0.08,0.14,0.08,0.25-0.02,0.23c-0.12-0.02-0.12-0.23-0.21-0.19
					c-0.06,0.02-0.02,0.14-0.02,0.21c0,0.08,0.06,0.12,0.14,0.16l0.68,0.27c0.08,0.04,0.14,0.04,0.21-0.02
					c0.04-0.04,0.16-0.1,0.12-0.16c-0.04-0.06-0.19,0.08-0.29,0c-0.08-0.06-0.02-0.12,0.14-0.19c-0.14-0.08-0.31-0.14-0.25-0.31
					c0.04-0.12,0.12-0.16,0.27-0.16c0.08,0,0.12-0.1,0.21-0.25C-147.62,251.05-147.6,250.8-147.85,250.7 M-147.81,252.61
					c-0.19-0.14-0.43-0.02-0.53,0.19c0.25,0.1,0.56,0.23,0.74,0.35C-147.79,252.86-147.66,252.74-147.81,252.61"/>
			</g>
			<g id="g3311_1_" transform="translate(95.226,793.1646)">
				<path id="path3313_1_" class="st3" d="M-153.88,248.11c0-0.31,0.25-0.58,0.58-0.58c0.31,0,0.58,0.25,0.58,0.58
					c0,0.33-0.25,0.58-0.58,0.58C-153.63,248.69-153.88,248.44-153.88,248.11 M-153.73,248.11c0,0.23,0.19,0.43,0.43,0.43
					c0.23,0,0.43-0.19,0.43-0.43c0-0.25-0.21-0.41-0.45-0.41C-153.55,247.7-153.73,247.89-153.73,248.11"/>
			</g>
			<g id="g3315_1_" transform="translate(91.6944,792.2925)">
				<path id="path3317_1_" class="st3" d="M-152.47,248.48c-0.08-0.06-0.12-0.12-0.14-0.21c-0.02-0.1,0.02-0.21,0.08-0.29
					s0.16-0.12,0.29-0.14s0.23,0,0.33,0.04c0.1,0.06,0.16,0.14,0.19,0.25c0.04,0.21-0.12,0.39-0.37,0.43
					C-152.24,248.56-152.39,248.54-152.47,248.48 M-152.22,247.96c-0.16,0.02-0.27,0.14-0.25,0.27c0.02,0.06,0.04,0.1,0.08,0.12
					c0.06,0.04,0.16,0.06,0.25,0.04c0.14-0.02,0.27-0.12,0.27-0.25v-0.02C-151.91,248-152.06,247.92-152.22,247.96"/>
			</g>
			<g id="g3319_1_" transform="translate(86.4812,805.5724)">
				<path id="path3321_1_" class="st3" d="M-150.4,243.17c-0.19-0.14-0.23-0.37-0.12-0.51l0,0c0.12-0.14,0.35-0.14,0.53-0.02
					c0.1,0.08,0.16,0.19,0.16,0.29c0,0.08,0,0.16-0.06,0.23c-0.04,0.06-0.12,0.1-0.21,0.1C-150.18,243.29-150.3,243.25-150.4,243.17
					 M-150.42,242.84c0,0.08,0.04,0.16,0.12,0.23c0.06,0.04,0.14,0.08,0.21,0.06c0.04,0,0.08-0.02,0.1-0.06
					c0.02-0.04,0.04-0.08,0.02-0.12c0-0.06-0.06-0.14-0.12-0.19c-0.1-0.08-0.27-0.08-0.33,0
					C-150.42,242.78-150.42,242.8-150.42,242.84"/>
			</g>
			<g id="g3323_1_" transform="translate(90.583,793.8654)">
				<path id="path3325_1_" class="st3" d="M-152.04,247.84c-0.08-0.08-0.14-0.21-0.14-0.35v-0.02c0-0.12,0.04-0.25,0.12-0.33
					c0.06-0.06,0.14-0.1,0.23-0.1s0.16,0.04,0.23,0.1c0.08,0.08,0.14,0.21,0.14,0.35c0,0.12-0.04,0.23-0.1,0.31
					s-0.16,0.14-0.27,0.14C-151.89,247.95-151.98,247.9-152.04,247.84 M-151.81,247.18L-151.81,247.18c-0.06,0-0.1,0.04-0.12,0.06
					c-0.06,0.06-0.08,0.14-0.08,0.25c0,0.1,0.04,0.19,0.1,0.25c0.02,0.02,0.08,0.06,0.12,0.06c0.12,0,0.23-0.14,0.21-0.31
					c0-0.1-0.04-0.19-0.1-0.25C-151.71,247.23-151.75,247.18-151.81,247.18 M-151.81,247.04L-151.81,247.04L-151.81,247.04z"/>
			</g>
			<g id="g3327_1_" transform="translate(85.9512,801.5124)">
				<path id="path3329_1_" class="st3" d="M-150.19,244.79c-0.08-0.02-0.16-0.08-0.19-0.16c-0.08-0.19,0.02-0.41,0.25-0.51
					c0.12-0.06,0.25-0.06,0.37-0.02c0.08,0.02,0.16,0.08,0.19,0.16c0.04,0.08,0.04,0.16,0,0.25c-0.04,0.1-0.12,0.21-0.25,0.27
					C-149.94,244.83-150.09,244.83-150.19,244.79 M-150.09,244.23c-0.14,0.06-0.23,0.23-0.16,0.33c0.02,0.06,0.08,0.08,0.1,0.08
					c0.08,0.02,0.16,0.02,0.25-0.02c0.08-0.04,0.14-0.1,0.19-0.19c0.02-0.04,0.02-0.08,0-0.14s-0.08-0.08-0.1-0.08
					C-149.9,244.19-149.98,244.19-150.09,244.23"/>
			</g>
			<g id="g3331_1_" transform="translate(95.898,802.4852)">
				<path id="path3333_1_" class="st3" d="M-154.14,244.41c0.19-0.51,0.56-0.7,0.84-0.56c-0.64,0.08-0.12,1.15-0.93,1.15
					c-0.04,0-0.08,0-0.12-0.02c-0.14,0.14-0.29,0.21-0.53,0.21c-0.35,0-0.93-0.33-0.93-1.01c0-1.46,1.71-1.6,1.71-2.9
					c0-0.37-0.29-0.62-0.62-0.62c-0.29,0-0.51,0.33-0.76,0.82c-0.12,0.25-0.37,0.58-0.62,0.9c0.08-0.06,0.16-0.08,0.25-0.08
					s0.19,0.02,0.25,0.08c0.06,0.06,0.1,0.14,0.1,0.23v0.02c0,0.12-0.04,0.23-0.14,0.33c-0.1,0.1-0.21,0.16-0.33,0.16
					c-0.08,0-0.19-0.02-0.25-0.08c-0.06-0.06-0.1-0.14-0.1-0.23v-0.02c0-0.04,0-0.1,0.02-0.14c-0.37,0.47-0.7,0.95-0.7,1.21
					c0,0.23,0.16,0.43,0.35,0.66l0.06-0.04l0.04,0.06c0.06,0.08,0.21,0.23,0.51,0.56l0.02,0.02l0,0l0.06,0.08l-0.19,0.14
					c0.04,0.1,0.08,0.23,0.12,0.37c0.06-0.23,0.19-0.39,0.35-0.33c-0.1,0.25,0.1,0.58-0.04,1.17c0.14-0.23,0.35-0.35,0.49-0.31
					c-0.37,0.33,0.1,0.8-0.37,1.52c0.16-0.06,0.27-0.02,0.35,0.06c-0.45,0.06-0.25,0.64-1.03,0.84c0.21,0.04,0.31,0.14,0.29,0.25
					c-0.21-0.14-0.39,0.29-1.07,0.27c-0.04,0.25-0.29,0.53-0.56,0.66c0.04-0.21,0-0.37-0.04-0.53l-2.22,2.18
					c-0.06,0.06-0.1,0.08-0.12,0.06c-0.02-0.02-0.02-0.06,0.02-0.1l1.91-2.41c-0.14-0.04-0.29-0.1-0.43-0.16
					c-0.1-0.04-0.16-0.12-0.16-0.25c-0.35-0.19-0.66-0.39-0.82-0.53c-0.12-0.1-0.21-0.12-0.1-0.37c0.04-0.08-0.08-0.31,0.19-0.14
					c0.19,0.1,0.6,0.33,0.66,0.19c0.04-0.08-0.16-0.16-0.31-0.23c-0.14-0.06-0.29-0.16-0.27-0.23c0.02-0.06,0.12,0,0.14-0.06
					c0-0.06,0.06-0.12,0.1-0.12c0.06,0,0.12,0.12,0.16,0.08c0.04-0.04-0.02-0.31-0.06-0.37c0.23,0.02,0.35,0.23,0.37,0.39
					c0,0.16,0.04,0.21,0.08,0.23c0.04,0.02,0.08-0.16,0.02-0.29c0.12,0.02,0.23,0.19,0.23,0.45c0.06,0.04,0.12,0.08,0.16,0.08
					c0.08,0,0.23-0.21,0.43-0.21c0.37,0,0.6,0.31,0.62,0.45c0.02,0.12,0,0.23-0.06,0.31c0.14-0.1,0.19-0.29,0.19-0.41
					c0-0.53-0.95-0.78-1.34-1.15c-0.02-0.02-0.02-0.02-0.04-0.04l-0.45,0.16l-0.02-0.1c0,0,0-0.02-0.02-0.08
					c-0.04-0.14-0.14-0.47-0.21-0.66l-0.02-0.08l0.04-0.02c-0.27-0.35-0.47-0.74-0.51-1.15c-0.1,0.1-0.21,0.21-0.33,0.29
					c0.02,0.04,0.02,0.08,0.02,0.12c0,0.12-0.02,0.23-0.1,0.31c-0.06,0.06-0.12,0.1-0.21,0.1c-0.08,0-0.14-0.02-0.23-0.08
					c-0.02-0.02-0.02-0.02-0.04-0.04c-0.02,0.02-0.04,0.02-0.04,0.04c-0.14,0.12-0.33,0.25-0.43,0.37c-0.04,0.06-0.1,0.08-0.19,0.08
					c-0.04,0-0.12,0-0.21,0c-0.06,0-0.1-0.04-0.19-0.12c-0.04-0.04-0.14-0.1-0.25-0.21c0.06-0.06,0.1-0.1,0.16-0.16
					c0.02-0.04,0.06-0.06,0.08-0.1c0.02,0.02,0.06,0.04,0.08,0.06c0.04,0.04,0.1,0.04,0.16,0.04s0.14-0.04,0.19-0.12
					c0.04-0.06,0.39-0.53,0.7-0.86c-0.04-0.02-0.06-0.02-0.1-0.04c-0.12-0.06-0.41-0.04-0.53-0.04c-0.12,0.02-0.14,0.04-0.25-0.1
					c-0.04-0.06-0.08-0.12-0.12-0.16c-0.04-0.06-0.08-0.1,0.02-0.27c0.12-0.23,0.45-0.8,0.58-1.07c0.1-0.27,0.23-0.31,0.45-0.39
					c0.21-0.08,0.56-0.29,0.6-0.33l0.02,0.21c-0.06,0.06-0.27,0.14-0.33,0.16c-0.08,0.02-0.1,0.06,0,0.06
					c0.08,0,0.33-0.08,0.51-0.16c-0.06,0.21-0.25,0.41-0.35,0.53c-0.14,0.04-0.31,0.04-0.37,0c0-0.04-0.02-0.1-0.08-0.1
					s-0.1,0.04-0.08,0.1s0.1,0.08,0.08,0.19c-0.02,0.12-0.16,0.12-0.25,0.14c-0.12,0.19-0.27,0.45-0.35,0.56
					c-0.06,0.1-0.02,0.16,0.02,0.21c0.1,0.08,0.33-0.04,0.78-0.08c0.16,0,0.35-0.02,0.56-0.02c0.06-0.53,0.27-1.03,1.01-1.21
					c0.35-0.08,0.72-0.35,0.84-0.7c-1.46,0.02-1.69-0.53-1.69-1.09c0-0.62,0.51-0.58,0.51-1.03c0-0.39-1.23-0.56-1.6-0.62
					c-0.31-0.04-0.49-0.12-0.64-0.27s-0.31-0.29-0.58-0.58c0,0,0.12-0.02,0.23-0.02l0.21,0.27c0.06,0.08,0.1,0.16,0.14,0.16
					s0.02-0.08-0.04-0.16l-0.16-0.29c0.72-0.04,0.76,0.23,0.76,0.33c0,0.1-0.19,0.19-0.08,0.25c0.1,0.06,0.19,0.02,0.27-0.08
					c0.08-0.1,0.1-0.19,0.31-0.1c0,0,1.56,0.66,1.77,0.74c0.19,0.08,0.12,0.16,0.02,0.25c-0.12,0.1-0.14,0.25-0.14,0.41
					c0,0.47,0.29,0.62,0.8,0.62c0-0.08-0.02-0.16-0.02-0.23c0-0.74,1.13-1.46,1.42-1.46c0.14,0,0.31,0.1,0.33-0.35
					c0-0.33,0.08-0.56,0.02-0.95c-0.06-0.37-0.16-0.43-0.39-0.6c-0.23-0.16-0.45-0.66-0.53-0.76c0.1-0.06,0.21-0.08,0.29,0.16
					c0.06,0.21,0.14,0.35,0.25,0.39c-0.08-0.23-0.14-0.56-0.21-0.66c0.29-0.04,0.76,0.21,0.76,0.41s-0.16,0.19-0.16,0.33
					c0,0.06,0.08,0.12,0.16,0.12c0.12,0,0.21-0.08,0.21-0.14c0.12,0.06,0.21,0.19,0.21,0.49c0,0.12,0,0.23-0.02,0.35
					c0-0.02,0.02-0.04,0.02-0.04c0.06-0.08,0.14-0.14,0.27-0.14c0.1,0,0.23,0.02,0.31,0.08c0.1,0.08,0.19,0.19,0.21,0.31
					c0,0.02,0,0.04,0,0.08c0,0.06-0.02,0.12-0.06,0.19c-0.04,0.06-0.12,0.12-0.21,0.14c-0.12,0.02-0.25,0-0.37-0.08
					c-0.1-0.06-0.19-0.16-0.21-0.27c-0.02,0.41-0.06,0.78-0.04,0.95c0.02,0.23,0.02,0.33-0.04,0.37c-0.08,0.04-0.16-0.1-0.27-0.1
					c-0.1,0-0.43,0.31-0.43,0.62c0,0.33,0.35,0.74,0.33,1.17c0,0.14,0.08,0.21,0.14,0.08c0.06-0.14,0.16-0.35,0.31-0.51
					c-0.08-0.56,0.51-1.09,1.01-0.7c-0.25-0.04-0.41,0.19-0.53,0.41c0.04,0,0.08-0.02,0.14-0.02c0.02,0,0.04,0,0.08,0
					c0.19-0.23,0.74-0.21,0.88,0.35c-0.1-0.12-0.31-0.21-0.45-0.19c0.21,0.16,0.33,0.43,0.33,0.72c0,1.4-1.71,1.56-1.71,2.84
					c0,0.47,0.41,0.78,0.7,0.78c0.1,0,0.19-0.04,0.27-0.08c-0.1-0.1-0.16-0.29-0.16-0.49c0.04-1.01,1.69-0.97,1.71-1.44
					C-152.89,243.65-154.1,243.42-154.14,244.41 M-158.52,248.27c0.08,0.14,0,0.39,0.29,0.39c0.14,0,0.27-0.14,0.43-0.19
					C-158.09,248.44-158.34,248.37-158.52,248.27 M-160.02,245.19c0-0.08-0.04-0.16-0.08-0.21c-0.02-0.02-0.06-0.04-0.1-0.04
					c-0.1,0-0.16,0.12-0.16,0.25v0.02c0,0.08,0.04,0.16,0.08,0.21c0.02,0.02,0.06,0.04,0.1,0.04c0.04,0,0.08-0.04,0.1-0.06
					C-160.04,245.33-160.02,245.27-160.02,245.19 M-155.17,238.12c0.02,0.08,0.08,0.16,0.14,0.21c0.08,0.06,0.16,0.08,0.25,0.06
					c0.04,0,0.08-0.02,0.12-0.08l0,0c0.04-0.04,0.02-0.1,0.02-0.14c-0.02-0.08-0.08-0.16-0.14-0.21c-0.14-0.08-0.31-0.08-0.37,0.02
					C-155.19,238.03-155.17,238.08-155.17,238.12 M-156.2,242.8c0,0.04,0.02,0.08,0.06,0.12c0.04,0.04,0.1,0.04,0.12,0.04
					c0.08,0,0.16-0.04,0.23-0.12c0.06-0.06,0.1-0.16,0.1-0.25c0-0.04-0.02-0.08-0.06-0.12l0,0c-0.04-0.04-0.1-0.04-0.12-0.04
					c-0.08,0-0.16,0.04-0.23,0.12C-156.16,242.64-156.2,242.72-156.2,242.8 M-158.97,245.97c0.08,0.25,0.23,0.74,0.23,0.74l0.27-0.1
					c-0.08-0.02-0.16-0.1-0.25-0.19c0.06-0.02,0.16-0.02,0.23,0.02l-0.1-0.27c-0.02,0.04-0.1,0.14-0.16,0.14
					c-0.06-0.21,0.08-0.29,0.16-0.33c0.16-0.08,0.27-0.1,0.31-0.02c0.04,0.08-0.06,0.21-0.19,0.16c-0.02,0.14,0.06,0.21,0.14,0.21
					c0.06,0,0.12-0.06,0.14-0.14c0,0.23,0.08,0.39,0.29,0.45c0.08-0.21,0.02-0.35-0.14-0.51c0.08,0.04,0.19,0.02,0.23-0.02
					c0.04-0.08,0.04-0.19-0.08-0.25c-0.02,0.14-0.19,0.14-0.25,0.06c-0.04-0.08,0.02-0.19,0.16-0.27c0.16-0.1,0.31-0.04,0.39,0.1
					c-0.06,0.02-0.14,0-0.25-0.04l0.16,0.33c0-0.04,0.04-0.12,0.1-0.19c0.02,0.08,0.06,0.21,0,0.31l0.37-0.21
					c-0.12-0.02-0.23-0.1-0.27-0.16c0.08-0.04,0.16-0.02,0.23,0l-0.19-0.31c0,0.1-0.04,0.19-0.08,0.23
					c-0.08-0.14-0.06-0.29,0.1-0.39c0.14-0.08,0.25-0.1,0.31-0.02s-0.04,0.23-0.16,0.19c0,0.14,0.08,0.21,0.16,0.21
					s0.12-0.08,0.14-0.19c0.06,0.23,0.14,0.35,0.37,0.39c0.04-0.21-0.06-0.37-0.25-0.47c0.08,0.02,0.16,0.02,0.21-0.04
					c0.04-0.08,0.02-0.19-0.1-0.23c-0.02,0.14-0.19,0.16-0.23,0.08c-0.04-0.08,0.02-0.16,0.16-0.25c0.08-0.06,0.23-0.12,0.37,0.02
					c-0.04,0.06-0.16,0.08-0.23,0.08l0.16,0.23c0-0.08,0.04-0.16,0.1-0.21c0.02,0.1,0.04,0.23,0.02,0.31l0.23-0.16
					c0,0-0.35-0.37-0.51-0.58L-158.97,245.97z M-156.67,240.17c-0.1-0.12-0.25-0.19-0.35-0.1s-0.1,0.25-0.02,0.37
					c0.08,0.12,0.25,0.19,0.35,0.1C-156.59,240.46-156.59,240.3-156.67,240.17 M-156.01,241.22c-0.1-0.12-0.25-0.19-0.35-0.1
					s-0.1,0.25-0.02,0.37c0.1,0.12,0.25,0.19,0.35,0.1C-155.93,241.53-155.91,241.36-156.01,241.22"/>
			</g>
		</g>
	</g>
</g>
</svg>
