<svg xmlns="http://www.w3.org/2000/svg" width="26.025" height="26.032" viewBox="0 0 26.025 26.032"><path d="M-10630.6,2340.8a5.081,5.081,0,0,1-3.014-2.5,5.158,5.158,0,0,1-.461-1.233h-15.518a.466.466,0,0,1-.406-.461v-12.08a.462.462,0,0,1,.165-.354c.012-.01.025-.02.037-.029l12.533-9.053a.466.466,0,0,1,.544,0l12.533,9.053a.441.441,0,0,1,.129.135.454.454,0,0,1,.072.268v4.626a.465.465,0,0,1-.465.466.465.465,0,0,1-.464-.466v-3.8l-7.474,4.745,1.417,1.041a5.083,5.083,0,0,1,3.392-.129,5.074,5.074,0,0,1,3.013,2.5,5.14,5.14,0,0,1,.593,2.393,3.1,3.1,0,0,1-.575,1.948,1.753,1.753,0,0,1-1.365.687,1.579,1.579,0,0,1-1.411-.833,2.628,2.628,0,0,1-1.919.831,2.638,2.638,0,0,1-2.635-2.635,2.638,2.638,0,0,1,2.635-2.635,2.62,2.62,0,0,1,1.7.627v-.162a.466.466,0,0,1,.465-.465.466.466,0,0,1,.467.465v3.1a.7.7,0,0,0,.694.777.82.82,0,0,0,.639-.337,2.128,2.128,0,0,0,.372-1.369h0a4.218,4.218,0,0,0-.483-1.958,4.192,4.192,0,0,0-5.657-1.75,4.16,4.16,0,0,0-2.045,2.466,4.16,4.16,0,0,0,.3,3.191,4.166,4.166,0,0,0,2.467,2.045,4.155,4.155,0,0,0,3.188-.3.464.464,0,0,1,.629.194.465.465,0,0,1-.193.627,5.1,5.1,0,0,1-2.381.594A5.132,5.132,0,0,1-10630.6,2340.8Zm-.35-4.884a1.709,1.709,0,0,0,1.706,1.706,1.707,1.707,0,0,0,1.7-1.644v-.124a1.707,1.707,0,0,0-1.7-1.643A1.708,1.708,0,0,0-10630.952,2335.917Zm-3.253.221a5.107,5.107,0,0,1,.226-1.736,5.1,5.1,0,0,1,2.087-2.77l-1.488-1.093a.465.465,0,0,1-.224-.163l-3.389-2.487-3.479,2.579-.017.011-7.641,5.66Zm-14.865-.458,7.494-5.553-7.494-4.759Zm8.294-6.145,3.507-2.6a.466.466,0,0,1,.552,0l3.525,2.588,7.913-5.026-11.714-8.461-11.716,8.462Z" transform="translate(10650.001 -2315)" fill="#b53683"/></svg>