<?xml version="1.0" encoding="utf-8"?>
<!-- Generator: Adobe Illustrator 25.0.0, SVG Export Plug-In . SVG Version: 6.00 Build 0)  -->
<svg version="1.1" id="Layer_1" focusable="false" xmlns="http://www.w3.org/2000/svg" xmlns:xlink="http://www.w3.org/1999/xlink"
	 x="0px" y="0px" viewBox="0 0 15 15" style="enable-background:new 0 0 15 15;" xml:space="preserve">
<style type="text/css">
	.st0{fill:#122C49;}
</style>
<path class="st0" d="M12.1,2.9l-2-0.5C9.9,2.4,9.7,2.5,9.5,2.7l-1,2.2c-0.1,0.2,0,0.4,0.1,0.6l1.2,1C9.2,8,8,9.2,6.4,9.9l-1-1.2
	C5.3,8.6,5.1,8.5,4.9,8.6l-2.2,1c-0.2,0.1-0.3,0.3-0.3,0.6l0.5,2c0.1,0.2,0.2,0.3,0.5,0.3c5,0,9-4.1,9-9C12.4,3.2,12.3,3,12.1,2.9z"
	/>
</svg>
