<?xml version="1.0" encoding="utf-8"?>
<!-- Generator: Adobe Illustrator 25.0.1, SVG Export Plug-In . SVG Version: 6.00 Build 0)  -->
<svg version="1.1" id="Layer_1" xmlns="http://www.w3.org/2000/svg" xmlns:xlink="http://www.w3.org/1999/xlink" x="0px" y="0px"
	 viewBox="0 0 100 150" style="enable-background:new 0 0 100 150;" xml:space="preserve">
<style type="text/css">
	.st0{fill:#B63583;}
	.st1{fill:#21395B;}
	.st2{fill:#B73684;}
	.st3{fill:url(#SVGID_1_);}
	.st4{fill:url(#SVGID_2_);}
</style>
<g>
	<path class="st1" d="M86.5,68.2c-0.8-0.9-2.2-0.3-2.2,0.8v30.4c0,18.2-13.9,33.6-32.1,34.8c-20.5,1.3-37.4-15.4-36.5-35.8
		C16.5,81,30.5,66.8,47.9,65.7c8.1-0.5,15.6,1.8,21.6,6c1,0.7,2.3,0,2.3-1.2V59.8c0-1.9-1.2-3.7-2.9-4.4c-6.5-2.7-13.7-4.1-21.3-3.7
		c-6.9,0.3-13.5,2.2-19.3,5.1V35.9c0-12,9.8-21.8,21.8-21.8s21.8,9.8,21.8,21.8c0,3.5,2.8,6.3,6.3,6.3s6.3-2.8,6.3-6.3
		C84.3,17,68.9,1.6,50,1.6S15.7,17,15.7,35.9v30C7.1,74.5,1.8,86.3,1.6,99.2C1.1,126.6,23.5,149,51,148.4
		c25.9-0.5,47-21.6,47.5-47.4C98.7,88.4,94.1,77,86.5,68.2z"/>
	<path class="st1" d="M28.2,100c0,12,9.8,21.8,21.8,21.8c12,0,21.8-9.8,21.8-21.8S62,78.2,50,78.2C38,78.2,28.2,88,28.2,100z"/>
	<g>
		<path id="caret-right-solid_2_" class="st2" d="M82.2,145.9l13.7-13.7c0.6-0.6,1.6-0.6,2.1,0c0.3,0.3,0.4,0.7,0.4,1.1v13.7
			c0,0.8-0.7,1.5-1.5,1.5l0,0H83.2c-0.8,0-1.5-0.7-1.5-1.5C81.7,146.5,81.9,146.1,82.2,145.9z"/>
		
			<linearGradient id="SVGID_1_" gradientUnits="userSpaceOnUse" x1="90.2919" y1="-42.2777" x2="92.2752" y2="-44.1949" gradientTransform="matrix(1 0 0 -1 0 97.9549)">
			<stop  offset="0" style="stop-color:#FFFFFF;stop-opacity:0.7"/>
			<stop  offset="0.9888" style="stop-color:#FFFFFF;stop-opacity:0"/>
		</linearGradient>
		<polygon class="st3" points="83.9,146.6 96.7,133.9 96.7,146.6 		"/>
	</g>
</g>
<linearGradient id="SVGID_2_" gradientUnits="userSpaceOnUse" x1="38.0402" y1="88.0435" x2="45.3118" y2="95.3152">
	<stop  offset="0" style="stop-color:#FFFFFF"/>
	<stop  offset="1" style="stop-color:#FFFFFF;stop-opacity:0"/>
</linearGradient>
<path class="st4" d="M32.5,100c0,9.7,7.9,17.5,17.5,17.5c9.7,0,17.5-7.9,17.5-17.5S59.7,82.5,50,82.5C40.3,82.5,32.5,90.4,32.5,100z
	"/>
</svg>
