<?xml version="1.0" encoding="utf-8"?>
<!-- Generator: Adobe Illustrator 25.0.1, SVG Export Plug-In . SVG Version: 6.00 Build 0)  -->
<svg version="1.1" id="Layer_1" xmlns="http://www.w3.org/2000/svg" xmlns:xlink="http://www.w3.org/1999/xlink" x="0px" y="0px"
	 viewBox="0 0 209.41 153.22" style="enable-background:new 0 0 209.41 153.22;" xml:space="preserve">
<style type="text/css">
	.st0{fill:#E4E7EB;}
	.st1{fill:#152C48;}
	.st2{fill:#FFFFFF;}
	.st3{opacity:0.5;fill:#FFFFFF;}
	.st4{fill:#B63583;}
	.st5{fill:#1C1C1C;}
	.st6{fill:#F4A688;}
	.st7{fill:none;}
	.st8{fill:#EB8D70;}
	.st9{fill:#343434;}
	.st10{fill:#717171;}
	.st11{fill:#282A29;}
</style>
<g>
	<path class="st0" d="M64.67,106.75c27.06,3.58,60.36-5.49,80.52-18.66c28.39-18.55,53.83-13.06,55.92,10.78
		c2.09,23.84-27.04,39.88-27.04,39.88h-33.86c26.63-13.07,42.17-47.87,26.39-53.26c-12.8-4.37-28.9,11.81-49.44,23.83
		c-22.66,13.26-42.82,13.42-42.82,13.42c-3.35,0.14-6.57,0.17-9.67,0.1V106.75z"/>
	<g>
		<g>
			<path class="st1" d="M117.3,8.89c3.46,0.22,6.17,3.06,6.26,6.53c0.53,21.2,2.23,94.35,1.42,120.26
				c-0.09,2.75-2.29,4.95-5.03,5.04c-13.58,0.44-52.65,1.57-74.86,0.64c-4.63-0.19-8.31-3.94-8.4-8.57
				c-0.46-22.26-1.48-84.86,0.94-113.53c0.29-3.44,2.99-6.17,6.42-6.52C58.82,11.26,98.11,7.64,117.3,8.89z"/>
			<path class="st2" d="M118.04,22c0.74,17.37,3.08,75.14,2.34,96.5c-0.11,3.12-2.57,5.65-5.69,5.83
				c-12.84,0.75-45.78,2.41-64.62,0.9c-3.39-0.27-6.05-3.01-6.24-6.41c-0.95-17.72-3.7-71.51-2.98-92.64
				c0.11-3.37,2.72-6.12,6.08-6.42c13.89-1.25,49.58-4.22,65.58-3.34C115.52,16.59,117.91,19,118.04,22z"/>
			<path class="st2" d="M80.63,138.61c3.18,0,5.77-2.59,5.77-5.77c0-3.18-2.59-5.77-5.77-5.77c-3.18,0-5.77,2.59-5.77,5.77
				C74.86,136.02,77.45,138.61,80.63,138.61z M80.63,127.48c2.96,0,5.36,2.41,5.36,5.36c0,2.96-2.41,5.36-5.36,5.36
				c-2.96,0-5.36-2.41-5.36-5.36C75.27,129.88,77.67,127.48,80.63,127.48z"/>
			<path class="st3" d="M89.99,12.59L89.99,12.59c0,0.65-0.51,1.19-1.16,1.22c-3.21,0.17-12.24,0.64-16.28,0.88
				c-0.8,0.05-1.42-0.67-1.27-1.45l0.03-0.13c0.1-0.53,0.55-0.94,1.09-0.99c2.73-0.25,10.97-0.94,16.42-0.75
				C89.48,11.39,89.99,11.94,89.99,12.59z"/>
		</g>
		<g>
			<path class="st4" d="M20.05,83.68l74.48-17.79c3.02-0.72,4.99-3.62,4.56-6.69l-7.2-50.92c-0.49-3.47-3.82-5.78-7.24-5.04
				L5.11,20.64c-3.29,0.72-5.35,4-4.57,7.28L12.8,79.22C13.57,82.46,16.82,84.45,20.05,83.68z"/>
			<path class="st2" d="M88.19,13.84l6.96,43.86c0.3,1.91-0.9,3.73-2.77,4.19L21.07,79.72c-2.01,0.5-4.04-0.73-4.52-2.75L5.47,30.61
				c-0.49-2.05,0.82-4.09,2.88-4.51l75.42-15.32C85.85,10.36,87.85,11.75,88.19,13.84z"/>
			<path class="st1" d="M26.68,59.68c0.07-0.02,0.14-0.06,0.18-0.12l9.75-12.72l14.02,5.89c0.16,0.07,0.34,0,0.42-0.16L62.89,28.7
				c2.28,1.2,17.07,9,19.04,10.04c0.16,0.08,0.36,0.02,0.44-0.14c0.08-0.16,0.02-0.36-0.14-0.44C80.09,37.04,62.9,27.97,62.9,27.97
				c-0.08-0.04-0.17-0.05-0.25-0.02c-0.08,0.03-0.15,0.09-0.19,0.17L50.6,52.01l-13.97-5.87c-0.14-0.06-0.29-0.02-0.38,0.1
				l-9.74,12.7l-7.82-4.11c-0.16-0.08-0.36-0.02-0.44,0.14c-0.08,0.16-0.02,0.36,0.14,0.44l8.06,4.24
				C26.53,59.69,26.61,59.7,26.68,59.68z"/>
			<g>
				<path class="st1" d="M88.68,59.83c0.16-0.04,0.27-0.2,0.25-0.37l-6.2-41.03c-0.03-0.18-0.19-0.3-0.37-0.27
					c-0.18,0.03-0.3,0.19-0.27,0.37l6.2,41.03c0.03,0.18,0.19,0.3,0.37,0.27C88.66,59.83,88.67,59.83,88.68,59.83z"/>
				<g>
					<polygon class="st1" points="83.69,19.6 82.43,18.67 81.5,19.93 81.36,19 82.29,17.74 83.55,18.67 					"/>
				</g>
			</g>
			<g>
				<path class="st1" d="M21.01,74.01l69.78-16.67c0.18-0.04,0.28-0.22,0.24-0.39s-0.22-0.28-0.39-0.24L20.86,73.38
					c-0.18,0.04-0.28,0.22-0.24,0.39C20.66,73.94,20.84,74.05,21.01,74.01z"/>
				<g>
					<polygon class="st1" points="22.45,74.47 21.12,73.65 21.94,72.32 21.03,72.53 20.21,73.87 21.54,74.68 					"/>
				</g>
			</g>
		</g>
		<g>
			<path class="st5" d="M96.15,144.85c0.88-3.47,5.23-5.64,5.23-5.64l1.72,0.14c0.99,3.06,0.86,4.94,0.7,5.78
				c0,0.02-0.01,0.05-0.02,0.07c-0.08,0.28-0.28,0.5-0.55,0.55c-2.02,0.43-5.24,0.08-6.59-0.09c-0.3-0.04-0.52-0.31-0.52-0.63
				C96.13,144.97,96.13,144.91,96.15,144.85z"/>
			<g>
				<path class="st5" d="M78.66,33.06l-11.35-4.12l-0.87,1.83l10.91,4.11C77.35,34.88,78.86,34.74,78.66,33.06z"/>
				<path class="st6" d="M67.31,28.94c0.33,1.01-0.87,1.83-0.87,1.83l-2.06-1.46c0.11-0.29,0.18-0.56,0.22-0.8L67.31,28.94z"/>
				<path class="st2" d="M64.59,28.51c-0.04,0.24-0.11,0.51-0.22,0.8l-1.52-1.08L64.59,28.51z"/>
			</g>
			<path class="st6" d="M110.61,83.53c1.06,1.14,2.63,2.12,3.73,2.73c-1.65,2.04-3.88,4.07-6.83,6.07l-0.84,1.89l-2.71-3.24
				C103.96,90.98,108.82,88.57,110.61,83.53z"/>
			<path class="st6" d="M103.79,136.78l-0.73,3.51c-0.05,0.26-0.25,0.45-0.49,0.47c-0.29,0.03-0.71,0.04-1.13-0.02
				c-0.38-0.06-0.64-0.44-0.57-0.85l0.51-3.12H103.79z"/>
			<path class="st5" d="M80.86,144.88c0.01-0.03,0.02-0.05,0.04-0.08c0.92-1.29,3.27-3.86,7.92-4.97l2.23-0.07
				c0,0,0.99,1.72,1.01,4.92c0,0.19,0,0.38-0.01,0.58c-0.01,0.21-0.16,0.38-0.36,0.38l-10.45-0.07
				C80.91,145.57,80.72,145.18,80.86,144.88z"/>
			<path class="st6" d="M91.46,136.38c-0.02,0.17-0.33,2.69-0.45,3.67c-0.03,0.23-0.2,0.41-0.41,0.44
				c-0.38,0.05-0.99,0.09-1.53-0.02c-0.29-0.06-0.5-0.34-0.5-0.66v-3.96L91.46,136.38z"/>
			<path class="st5" d="M93.25,90.31c0,0-5.37,20.43-5.28,46.13c0,0.47,0.33,0.87,0.79,0.97c0.68,0.14,1.67,0.31,2.49,0.29
				c0.44-0.01,0.81-0.34,0.88-0.77c0.75-4.42,5.08-29.32,7.54-33.36c0,0,1.62,22.18,1.1,33.68c-0.01,0.29,0.2,0.53,0.48,0.57
				c0.43,0.05,1.12,0.09,2-0.01c0.33-0.04,0.6-0.29,0.65-0.62c0.54-3.74,3.63-26.01,3.5-42.04c-0.01-0.9-2.39-4.84-2.39-4.84H93.25z
				"/>
			<path class="st1" d="M75.67,46.32c2.36,4.39,6.28,8.87,12.65,10.07c5.88,1.11,16.45,2.48,20.69,3.01
				c1.28,0.16,2.44,0.79,3.29,1.76c3.34,3.86,10.66,14.43,2.04,25.09c-1.1-0.61-2.67-1.59-3.73-2.73c0.95-2.69,1.03-6.12-0.97-10.34
				c-0.07,0.33-0.15,0.66-0.26,0.99c-2.75,8.73-2.9,15.99-2.9,17.66c0,0.23-0.14,0.43-0.35,0.52c-3.62,1.45-10.6,0.59-12.95,0.24
				c-0.43-0.06-0.72-0.46-0.66-0.89c1.15-8.33-4.75-22.03-6.31-25.46c-0.23-0.5-0.63-0.91-1.13-1.13
				c-8.91-4.03-12.79-10.24-14.36-15.83C72.1,47.46,74.21,46.66,75.67,46.32z"/>
			<path class="st6" d="M70.74,49.28c-1.9-6.78-0.42-12.65-0.42-12.65h2.03c0,0,0.69,4.79,3.33,9.68
				C74.21,46.66,72.1,47.46,70.74,49.28z"/>
			<path class="st6" d="M71.63,37.72c0,0,3.09-4,2.09-6.09c-1-2.09-4.45-1.88-4.45-1.88l-0.48,1.63c-0.13,0.43-0.11,0.89,0.05,1.31
				l1.9,5.03H71.63z"/>
			<path class="st6" d="M102.75,51.39l0.7,7.14c0,0-4.02,1.21-6.94-0.85l2.05-6.49L102.75,51.39z"/>
			<g>
				<path class="st6" d="M98.09,43.26c-0.1,0.09-4.08,7.91-4.08,7.91l4.51,2.18l4.88-6.85C103.4,46.5,99.71,41.74,98.09,43.26z"/>
				<path class="st5" d="M101.4,46.69c0.08,0.21,0.06,0.44-0.05,0.63l-2.25,3.75c-0.03,0.06-0.07,0.11-0.12,0.15
					c-0.27,0.25-1.18,0.97-1.89-0.01c-0.6-0.84-1.17-1.61-1.78-1.92c-0.35-0.18-0.79-0.04-0.97,0.32c-0.37,0.74-1.09,2.23-1.54,3.65
					c-0.11,0.36,0.07,0.74,0.42,0.88c0.91,0.37,2.72,1.04,4.32,1.26c0.26,0.04,0.52-0.07,0.68-0.29c0.69-0.94,2.63-3.58,3.3-4.25
					c0.62-0.61,1.75-0.38,2.27-0.24c0.19,0.06,0.4,0.03,0.58-0.08c0.52-0.31,1.43-1.09,0.6-2.41c-0.21-0.33-0.1-0.77,0.22-0.98
					c0.58-0.38,1.21-1.1,0.61-2.26c-0.61-1.18-1.69-1.28-2.43-1.19c-0.33,0.04-0.66-0.13-0.78-0.44c-0.06-0.14-0.17-0.25-0.37-0.29
					c-0.39-0.08-0.64-0.43-0.57-0.82c0.13-0.66,0.03-1.53-1.03-2.11c-1.95-1.07-3.65,0.67-4.09,2.15c-0.43,1.47,1.74,2.51,3.11,2.69
					C100.63,45.01,101.18,46.11,101.4,46.69z"/>
				<path class="st6" d="M100.66,52.25c0,0,0.87-2.53,1.97-2.44c1.11,0.09,1.98,1.2,0.61,2.44
					C101.53,53.79,100.66,52.25,100.66,52.25z"/>
			</g>
		</g>
		<rect x="40.73" y="23.55" class="st7" width="77.06" height="68.06"/>
	</g>
	<g>
		<path class="st8" d="M156.99,94.84c0.02-0.01,10.77-18.84,12.23-20.61c0.24-0.3,0.62-0.45,1.01-0.4l3,0.36l3.53,7.63l-5.87-3.42
			c0.58,4.02-6.97,9.99-9.55,12.18c-0.26,0.22-0.28,0.62-0.05,0.87l1.03,1.08c-1.7,1.72-3.65,2.82-5.86,3.33L156.99,94.84z"/>
		<path class="st4" d="M161.71,91.92c0,0,0.66,0.21,0.88,0.8c0.11,0.28-0.01,0.6-0.25,0.77c-1.09,0.78-4.67,3.29-6.32,3.78
			c-0.14,0.04-0.26-0.08-0.23-0.22c0.08-0.38,0.36-1.15,1.24-2.27l-0.08,0.16c-0.1,0.2,0.12,0.41,0.32,0.3
			C158.37,94.63,160.62,93.26,161.71,91.92z"/>
		<path class="st6" d="M161.18,99.46c0.02-0.01,1.63-3.9,1.65-3.91c1.48-9.01,5.09-16.72,6.15-18.75c0.18-0.34,0.52-0.57,0.9-0.6
			l3.01-0.26l5,6.76l-6.45-2.16c1.38,3.82-4.8,11.2-6.89,13.86c-0.21,0.27-0.15,0.66,0.13,0.86l1.23,0.85
			c-1.31,2.03-3.01,3.5-5.07,4.45L161.18,99.46z"/>
		<path class="st4" d="M165.21,95.65c0,0,0.69,0.08,1.03,0.61c0.16,0.25,0.11,0.59-0.09,0.81c-0.91,0.98-3.91,4.17-5.42,4.98
			c-0.12,0.07-0.28-0.03-0.27-0.17c0.01-0.39,0.12-1.2,0.76-2.48l-0.05,0.17c-0.06,0.22,0.2,0.38,0.37,0.23
			C162.49,98.97,164.42,97.18,165.21,95.65z"/>
		<g>
			<path class="st5" d="M186.99,74.52c0,0,2.72,4.05,2.95,5.9c0.22,1.85-0.75,2.49-3.61,2.72c-8.49,0.7-12.67-1.84-12.67-1.84
				c-0.58-3.7-0.99-4.64-5.84-6.66c0,0,6.13,0.49,7.37,0.01C176.43,74.17,186.99,74.52,186.99,74.52z"/>
		</g>
		<g>
			<path class="st5" d="M177.75,51.44c0,0,1.46,0.06,1.97,0.63c0.41,0.46,1.77-0.05,2.36,0.95c0.31,0.52,0.9,0.78,1.48,0.62
				c1.45-0.39,3.84-0.6,5.21,1.61c1.04,1.68,0.42,2.77-0.43,3.42c-0.63,0.48-0.8,1.37-0.34,2.02c0.44,0.62,0.58,1.5-0.33,2.65
				c-2.04,2.56-6.76-1-6.76-1l-4.15-8L177.75,51.44z"/>
			<path class="st9" d="M179.63,73.98c0,0-3.17-3.02-4.73-5.02c-0.84-1.08-1.11-2.51-0.72-3.82c0.71-2.4,1.98-4.89,2.1-5.28
				c0.18-0.59,3.73-0.57,3.73-0.57s7,4.54,9.75,12.24l-3.09,0.96c0,0-1.83-3.07-3.63-5.02c0,0,3.13,4.13,3.24,5.82L179.63,73.98z"/>
			<path class="st6" d="M173.58,75.17l2.38-2.59l2.75,0.74c0,0,3.21,0.5,5.05,0c1.84-0.5,1.84-0.5,1.84-0.5l4.15-1.29l0.65,1.84
				c0.17,0.47,0,0.99-0.41,1.27c-0.36,0.26-0.78,0.54-1.05,0.65c-0.55,0.24-12.59,0.08-12.59,0.08L173.58,75.17z"/>
			<path class="st8" d="M178.23,54.79l1.72,4.67c-0.16,0.97-2.6,1-2.98,0.42c-0.04-0.06-0.06-0.13-0.08-0.2l-0.77-3.65
				c-0.06-0.29,0.08-0.59,0.34-0.72l0.95-0.51C177.77,54.61,178.1,54.4,178.23,54.79z"/>
			<g>
				<path class="st6" d="M174.7,52.39c0,0-0.81,1.29-0.44,3.5c0.38,2.21,1.5,2.58,2.31,2.17c0.81-0.41,1.9-1.19,2.31-3.08
					C179.3,53.1,175.8,50.77,174.7,52.39z"/>
				<path class="st5" d="M177.48,54.64c0,0-0.83-3.05-3.01-1.57l-0.26,0.71c0,0-1.74-0.8-0.88-2.35c0.85-1.55,2.75-2.08,4.52-0.71
					c1.78,1.37,2.69,2.48,2.35,3.96c-0.34,1.48-1.38,0.79-1.38,0.79s-0.04-1.13-0.54-1.41c-0.5-0.28-0.62,0.56-0.62,0.56
					L177.48,54.64z"/>
				<path class="st6" d="M177.91,54.74c0,0-0.43-1.56,0.5-1.47c0.94,0.09,0.33,1.49,0.06,2L177.91,54.74z"/>
			</g>
		</g>
		<g>
			<path class="st4" d="M181.47,76.2c-0.01,0-0.02,0-0.03,0l-10.97-0.01c-0.27,0-0.49-0.22-0.49-0.49c0-0.27,0.22-0.5,0.49-0.49
				l10.97,0.01c0.27,0,0.49,0.22,0.49,0.49C181.94,75.97,181.73,76.19,181.47,76.2z"/>
			<path class="st4" d="M160.62,66.24h9.13c0.67,0,1.29,0.39,1.57,1l4.22,8.95H164.2c-0.43,0-0.82-0.27-0.98-0.67l-3.27-8.28
				C159.76,66.76,160.11,66.24,160.62,66.24z"/>
			<path class="st2" d="M167.06,70.83c0.2,0.61,0.05,1.21-0.33,1.33c-0.38,0.12-0.85-0.28-1.04-0.89c-0.2-0.61-0.05-1.21,0.33-1.33
				C166.39,69.82,166.86,70.22,167.06,70.83z"/>
		</g>
	</g>
	<g>
		<g>
			<path class="st10" d="M151.5,123.04c0.38,0.57,1.9,13.37,2.14,18.09c0.02,0.32-0.24,0.59-0.56,0.59l0,0
				c-0.28,0-0.51-0.2-0.55-0.47l-2.78-17.8L151.5,123.04z"/>
			<path class="st10" d="M139.29,123.04c-0.38,0.57-1.9,13.37-2.14,18.09c-0.02,0.32,0.24,0.59,0.56,0.59l0,0
				c0.28,0,0.51-0.2,0.55-0.47l2.78-17.8L139.29,123.04z"/>
			<path class="st5" d="M153.8,122.04l0,0.14c0.01,1-0.86,1.83-1.94,1.85l-12.84,0.22c-1.07,0.02-1.96-0.75-2.01-1.74l-0.01-0.13
				c-0.05-1.03,0.82-1.9,1.94-1.92l12.84-0.23C152.88,120.2,153.79,121.02,153.8,122.04z"/>
		</g>
		<g>
			<path class="st5" d="M123.27,140.47c0.01-0.05,0.03-0.09,0.07-0.14c0.62-0.79,1.85-2.02,3.53-1.99c2.46,0.03,3.32,0.3,5.23,0.01
				l0.45,1.5c0.05,0.15,0.05,0.3,0.01,0.45c-0.09,0.37-0.42,0.67-0.84,0.67h-8.07C123.37,140.96,123.2,140.7,123.27,140.47z"/>
			<path class="st6" d="M131.54,136.74l0.55,1.88c0,0-1.23,0.56-2.31,0.11l-0.21-1.63L131.54,136.74z"/>
			<path class="st5" d="M110.61,135.85c0.04-0.03,0.08-0.05,0.14-0.07c0.97-0.22,2.7-0.41,4,0.66c1.9,1.57,2.4,2.31,4.07,3.29
				l-0.58,1.44c-0.06,0.15-0.15,0.27-0.27,0.35c-0.3,0.24-0.75,0.26-1.08-0.01l-6.29-5.06C110.38,136.3,110.41,135.99,110.61,135.85
				z"/>
			<path class="st5" d="M143.4,115.27c0,0-13.66,1.12-16.47,2.44c-2.8,1.32,2.29,19.81,2.29,19.81s0.76,0.37,2.46-0.16
				c0,0-1.74-13.65-0.45-16.61l14.79-2.42L143.4,115.27z"/>
			<path class="st6" d="M120.17,137.14c-0.13,0.12-1.36,2.6-1.36,2.6s-1.37-0.3-1.65-1.16l1.23-2.24L120.17,137.14z"/>
			<path class="st11" d="M151.63,115.15c0,0,0.45,1.07,0.43,2.5c-0.03,1.97-1.61,3.57-3.57,3.67l-16.15,0.74
				c-0.34,0.02-0.63,0.25-0.72,0.58c-0.38,1.47-2.23,5.98-11.3,14.97c-0.24,0.24-0.62,0.28-0.9,0.1l-1.29-0.82
				c-0.14-0.09-0.18-0.26-0.1-0.4l9.41-16.06c0.49-0.82,1.29-1.4,2.21-1.64l13.77-3.52L151.63,115.15z"/>
			<path class="st8" d="M135.71,90.07c0,0,1.73,3.06,3.49,4.54l-3.65,2.03c0,0-0.82-3.24-2.7-4.19L135.71,90.07z"/>
			<path class="st9" d="M151.92,115.27c0,0-4.36,1.06-8.52,0c0,0-5.82-7.83-8.08-9.96c0,0-3.59,5.67-11.59,6.48l-0.45-1
				c0,0,6.37-2.94,8.33-7.45c1.96-4.51,2.75-6.44,4.53-7.61c1.11-0.73,1.78-1.23,2.12-1.51c0.19-0.15,0.45-0.17,0.65-0.04
				C140.81,95.33,149.71,101.43,151.92,115.27z"/>
			<path class="st6" d="M124.21,110.27l-0.9-0.24l-2.73-0.63c-0.33-0.08-0.68-0.02-0.96,0.16l-2.35,1.48l6.49-0.01L124.21,110.27z"
				/>
			<g>
				<path class="st6" d="M130.14,87.56c0,0,0.66,3.19,1.5,4.53c0.83,1.33,1.15,2.36,2.81,1.57s2.39-2.41,2.17-4.17
					c0,0-0.33-2.72-1.14-3.36S130.14,87.56,130.14,87.56z"/>
				<path class="st5" d="M135.46,88.93l-0.19,0.13c0,0-0.35-2.13-1.22-1.93c-0.88,0.2-3.95,1.55-5.2,1.01
					c-1.21-0.52-1.55-2.06-1.04-2.92c0.03-0.05,0.1-0.07,0.16-0.04l0.14,0.07c0.1,0.05,0.21-0.05,0.17-0.15l0,0
					c-0.03-0.1,0.06-0.2,0.16-0.16c0.38,0.16,1.19,0.28,2.64-0.39c2.07-0.95,3.8-1.07,4.72,0.17c0.06,0.08,0.18,0.06,0.21-0.03
					c0.08-0.18,0.27-0.37,0.73-0.33c0.8,0.07,1.37,1.31,0.91,2.99c-0.02,0.08,0.04,0.16,0.12,0.16c0.29-0.01,0.81,0.09,0.33,1.04
					c-0.49,0.98-0.99,1.26-1.2,1.34c-0.06,0.02-0.12,0-0.15-0.05l-0.72-1.17c-0.04-0.06-0.12-0.08-0.18-0.04L135.46,88.93z"/>
				<path class="st6" d="M135.58,89.2c0,0-0.7-1.85,0.31-1.9c1.01-0.06,0.87,2,0.35,2.46L135.58,89.2z"/>
			</g>
		</g>
		<g>
			<g>
				<path class="st4" d="M126.71,112.31c-0.01,0-0.02,0-0.03,0l-13.87-0.01c-0.34,0-0.62-0.28-0.62-0.62c0-0.34,0.28-0.63,0.62-0.62
					l13.87,0.01c0.34,0,0.62,0.28,0.62,0.62C127.3,112.02,127.04,112.29,126.71,112.31z"/>
			</g>
			<g>
				<path class="st4" d="M107.44,98.72c0,0.01,0.01,0.02,0.01,0.03l5.84,12.58c0.14,0.31,0.01,0.68-0.3,0.82
					c-0.31,0.14-0.68,0.01-0.82-0.3l-5.84-12.58c-0.14-0.31-0.01-0.68,0.3-0.82C106.93,98.31,107.29,98.43,107.44,98.72z"/>
			</g>
		</g>
		<g>
			<path class="st5" d="M120.54,113c0.06,0.25,5.85,21.95,7.31,27.46c0.17,0.63-0.3,1.26-0.95,1.26l0,0c-0.45,0-0.85-0.31-0.96-0.76
				l-6.42-26.05L120.54,113z"/>
			<path class="st5" d="M117.37,113c-0.06,0.25-5.85,21.95-7.31,27.46c-0.17,0.63,0.3,1.26,0.95,1.26l0,0
				c0.45,0,0.85-0.31,0.96-0.76l6.42-26.05L117.37,113z"/>
			<path class="st5" d="M119.49,122.44c0,0.31-0.25,0.57-0.56,0.57l0,0c-0.31,0-0.56-0.26-0.56-0.57v-6.5h-0.25
				c-0.55,0-0.99-0.45-0.99-1v-2.65h3.6v2.89c0,0.42-0.33,0.75-0.74,0.75h-0.49"/>
			<path class="st9" d="M129.59,111.6h-20.12c-0.28,0-0.53,0.19-0.6,0.47l-0.28,1.1c-0.1,0.4,0.2,0.78,0.6,0.78l20.65-0.12
				c0.4,0,0.69-0.38,0.59-0.78l-0.24-0.98C130.12,111.79,129.88,111.6,129.59,111.6z"/>
		</g>
	</g>
</g>
</svg>
