<svg xmlns="http://www.w3.org/2000/svg" width="26.545" height="22.264" viewBox="0 0 26.545 22.264"><g transform="translate(-26 -449)"><path d="M9.847,22.264a.428.428,0,0,1-.428-.428V17.982H8.991A8.991,8.991,0,0,1,8.991,0h8.563a8.991,8.991,0,0,1,0,17.982H15.14l-5.019,4.182a.427.427,0,0,1-.274.1M8.991.856a8.135,8.135,0,0,0,0,16.27h.856a.428.428,0,0,1,.428.428v3.367l4.436-3.7a.428.428,0,0,1,.274-.1h2.569a8.135,8.135,0,1,0,0-16.27Z" transform="translate(26 449)" fill="#b53683"/><path d="M17.284,20.569a1.284,1.284,0,1,1,1.284-1.284,1.286,1.286,0,0,1-1.284,1.284m0-1.713a.428.428,0,1,0,.428.428.429.429,0,0,0-.428-.428" transform="translate(16.85 438.706)" fill="#b53683"/><path d="M29.284,20.569a1.284,1.284,0,1,1,1.284-1.284,1.286,1.286,0,0,1-1.284,1.284m0-1.713a.428.428,0,1,0,.428.428.429.429,0,0,0-.428-.428" transform="translate(9.988 438.706)" fill="#b53683"/><path d="M41.284,20.569a1.284,1.284,0,1,1,1.284-1.284,1.286,1.286,0,0,1-1.284,1.284m0-1.713a.428.428,0,1,0,.428.428.429.429,0,0,0-.428-.428" transform="translate(3.126 438.706)" fill="#b53683"/></g></svg>