<?xml version="1.0" encoding="utf-8"?>
<!-- Generator: Adobe Illustrator 24.3.0, SVG Export Plug-In . SVG Version: 6.00 Build 0)  -->
<svg version="1.1" id="Layer_1" xmlns="http://www.w3.org/2000/svg" xmlns:xlink="http://www.w3.org/1999/xlink" x="0px" y="0px"
	 viewBox="0 0 403.5 389.2" style="enable-background:new 0 0 403.5 389.2;" xml:space="preserve">
<style type="text/css">
	.st0{fill:#152C48;}
	.st1{fill:#F5A789;}
	.st2{fill:#F84542;}
	.st3{fill:#962626;}
	.st4{fill:#E9F8F8;}
	.st5{fill:#FFACAC;}
	.st6{fill:#EC8D70;}
	.st7{fill:#FFCAB1;}
	.st8{fill:#E7AA8E;}
	.st9{fill:#B63583;}
	.st10{fill:#E55CB4;}
	.st11{fill:#9D2E71;}
	.st12{fill:#278ECE;}
	.st13{fill:#3EA8DF;}
	.st14{opacity:0.2;fill:#303030;}
	.st15{opacity:0.3;fill:#303030;}
	.st16{opacity:0.3;}
	.st17{fill:#303030;}
</style>
<g>
	<g>
		<g>
			<path class="st0" d="M222.8,72.9c0,0,5.4-9.6,12.1-5.5c10.9,6.7,7.4,21.7,7.4,21.7l-2.5-6.7c0,0,3.3,10.6-2,17.8l0.6-7
				c0,0-4.2,10-11.7,11.1s-8.6,1.1-9.5,5.6c-0.8,4.5,5.3,7.4,3.3,7.1c-6.8-1.1-6.1-9.8-6.1-9.8l-1.1,6.3c0,0-8.6-16.7-8.1-24.5
				s4.2-13.1,4.2-13.1l-4.5,1.7C205,77.7,218.3,56.4,222.8,72.9z"/>
			<path class="st1" d="M229.4,96.1c3.6-6.5,9-13.7-3.7-20.4c-2-1.1-6.9-0.2-8.8-0.3c-1.3-0.1-1.5,1.4-2.7,1.5
				c-8.8,1.3-13.7,8.2-13.7,8.2s8,12.3-15.9,27.9c-2.8,1.8,17.2,33.1,19.1,21.5C210.3,95.3,227.2,100,229.4,96.1z"/>
			<g>
				<g>
					<path class="st2" d="M208.6,79.6c0,0,3.9-1.1,8.2,4.6c0.4,0.6,0.2,1.4-0.5,1.6c-1.9,0.5-5.4,1.2-8.5,0.1
						C202.2,84,208.6,79.6,208.6,79.6z"/>
					<path class="st3" d="M216.3,85.8C216.4,85.8,216.4,85.8,216.3,85.8c-0.7-0.6-1.7-0.9-2.7-0.9c-1.5,0-2.7,0.6-3.5,1.6
						C212.5,86.7,214.9,86.2,216.3,85.8z"/>
					<path class="st4" d="M216,85.1c0,0-3.8-3.7-7.9-4.1c0,0,3.7,1.1-0.2,1.2c0,0-1.1-0.6-0.6-1.5c0-0.1,0.7-0.6,1.1-0.9
						c0.2-0.2,0.6-0.3,0.9-0.2C210.7,79.7,214.7,80.5,216,85.1z"/>
					<path class="st4" d="M206,84.9C206,84.9,206,84.9,206,84.9c0.4,0.4,1,0.8,1.8,1.1c0.7,0.2,1.5,0.4,2.2,0.5c0,0,0,0,0,0
						s0.6-0.6-0.1-1.3C209.1,84.5,206.8,84.3,206,84.9z"/>
					<path class="st5" d="M207.8,86c1.8,0.6,3.6,0.7,5.3,0.5c-0.9-0.5-2.1-0.8-3.5-0.8c-0.7,0-1.4,0.1-2,0.2
						C207.7,85.9,207.8,85.9,207.8,86z"/>
				</g>
				<path class="st6" d="M199.9,97.8c0.9,9.1-4.2,29.3-5.4,33.9c0.2,0.2,0.3,0.4,0.5,0.6l10.3-5.4c4.7-19.5,12.3-25.2,17.7-27.6
					c-2.1-1-4.2-2-6.3-3c-12.8-6.3-16.3-11-16.3-11S203.6,90.1,199.9,97.8z"/>
				<path class="st1" d="M229.5,94.2c0,0,2.7,0.7,0.7,3.4s-8.4,2.9-6.8-0.7C224.9,93.5,229.5,94.2,229.5,94.2z"/>
				<path class="st0" d="M221.1,80.5c0,0,5.3-2.5,6.8,4.2C227.9,84.7,226.6,80.2,221.1,80.5z"/>
				<path class="st0" d="M223.3,78.8c0,0,7.4-2,6.7,4.9C230,83.7,228.8,78.5,223.3,78.8z"/>
				<path class="st0" d="M216.1,75.3c0,0,4.2,0.2,4.4,2.5C220.5,77.8,221.1,73,216.1,75.3z"/>
				<path class="st0" d="M218.5,78.6c0,0,0.6-3-4.7-1.2C213.8,77.4,217.2,76.8,218.5,78.6z"/>
				<path class="st7" d="M215.3,78.7l-0.9-0.8c0,0,0.4-1,2.8-0.1s4,0.3,4,0.3l-4.3,3.1L215.3,78.7z"/>
				<path class="st6" d="M213.1,79l1.4-1.2c0.5-0.5,1.4-0.2,1.6,0.5l0.8,2.9C216.9,81.3,215.8,79.7,213.1,79z"/>
				<path class="st8" d="M228.9,95.5c0,0,0.4,2.6-3.2,2.6c0,0,1.7-0.8,1.4-1.5s-1.3-0.6-1.3-0.6s1.8-0.1,2,0.3c0.1,0.4,0.1,1,0.1,1
					L228.9,95.5z"/>
			</g>
			<path class="st0" d="M224.3,93.6c0,0,5.6-0.7,6.1-4.6c0,0,2.1-0.6,3.9-2.4c1.7-1.6-3,9.1-3,9.1s-1.1-2-6.1,0.3L224.3,93.6z"/>
		</g>
		<path class="st9" d="M252.1,158c-4-0.9-6.7-3-8.5-5.4l-7.2,10.2l-6.7-28.2c-2-8-10.7-14.3-19.1-18.7
			c-18.8,5.6-18.2-11.5-17.9-14.9c-3.7-22,12.5-40.8,26.6-58.4l-15.8-5.4c-60.1,54.8-65.6,146-65.6,146l72.9,10.8
			c-11.3-13.6,1.5-21-5-21.7c-1.4-0.2,2-2.8,2.2-4.1c0.2-1.2-1.2-2.1-0.8-3.2c2.7-8.3,8.1-12.6,8.1-12.6
			c0.4,35.2,22.7,43.1,22.7,43.1L252.1,158z"/>
		<path class="st10" d="M197.5,125.5c-0.8-0.2-1.6,0-1.7,0.6c-0.2,0.6,0.3,1.3,1.1,1.5c0.8,0.2,1.6,0,1.7-0.6
			C198.8,126.4,198.3,125.7,197.5,125.5z M194.1,134.8c0.2-0.6-0.3-1.3-1.1-1.5c-0.8-0.2-1.6,0-1.7,0.6c-0.2,0.6,0.3,1.3,1.1,1.5
			C193.1,135.7,193.9,135.4,194.1,134.8z M193.3,144.5c-0.8,0-1.5,0.5-1.5,1.1s0.7,1.1,1.5,1.1s1.5-0.5,1.5-1.1
			S194.2,144.5,193.3,144.5z M192.3,153.5c-0.6,0.2-0.8,1-0.5,1.8c0.3,0.8,1,1.2,1.6,1c0.6-0.2,0.8-1,0.5-1.8
			C193.5,153.7,192.8,153.3,192.3,153.5z M185.4,160.9c-0.7-0.4-1.5-0.3-1.8,0.2c-0.3,0.5,0,1.3,0.7,1.7c0.7,0.4,1.5,0.3,1.8-0.2
			C186.5,162.1,186.1,161.3,185.4,160.9z"/>
		<g>
			<path class="st11" d="M184.6,171.6l-0.3-1.1c2.4-0.6,2.5-5.6,2.4-7.5l0-0.2l3-3.9l0.1-0.1c0.1,0,6.7-3.1,8.3-4.1
				c0.4-0.4-0.7-3.3-1.4-5.4c-1.3-3.6-2.9-8.1-2.7-11.7c0.2-5.9,4.4-9.3,5.7-10.2l-1.7-3.7l0.6-0.2c0,0,3-1.1,4.3-2.1
				c0.2-0.2,0.2-0.3,0.2-0.4c0-0.6-0.9-1.5-1.3-1.8l0.7-0.9c0.2,0.1,1.7,1.4,1.8,2.7c0,0.5-0.2,0.9-0.6,1.3
				c-1.1,0.9-3.1,1.7-4.1,2.1l1.6,3.5l-0.4,0.3c-0.1,0-5.3,3.3-5.6,9.6c-0.1,3.4,1.4,7.8,2.7,11.3c1.3,3.7,2.1,5.9,1,6.7
				c-1.6,1.1-7.4,3.7-8.3,4.2l-2.6,3.3C187.9,164.4,188,170.7,184.6,171.6z"/>
		</g>
		<g>
			<path class="st11" d="M245.1,157.7L230.6,185c-15-20.3-14.2-39.6-14.2-39.6c-6.7,32.6,20.9,48.8,20.9,48.8l12-32.9L245.1,157.7z"
				/>
			<path class="st11" d="M143.5,180.7c0.4,4.5,4.8-1.9,4.8-1.9s0.7-18.2,0.4-20.4C148.3,156.2,143.5,180.7,143.5,180.7z"/>
			<path class="st11" d="M204.8,171.8c-0.4-4-76.2-40.3,1.7-113.1c0,0-18,5.8-17.6,1.5c0.6-7.4,4.2-12.4,4.2-12.4
				c-12.6,13.9-37.1,53.6-30.1,86.8c7.7,36.9,30.2,37.4,30.2,37.4s-17.3-5.8-19.9-26.2C173.2,145.8,180.6,163.6,204.8,171.8z"/>
			<path class="st11" d="M197.8,121.2c1.1,0.4-3.7-3.8-4.3-6c-0.5-1.9-0.2-3.5,0.3-4.6c-1.1-2.8-1.3-6-1.2-8c-2.7,2.9-11,12.8-11,21
				c0,0,4.9-13.8,9.9-14.9C191.4,108.8,189.2,118.2,197.8,121.2z"/>
			<path class="st11" d="M213,145.4c-8.4,11.7-20.9,3.3-20.9,3.3l13.7,16.2c0,0,3.6-10.9,9.2-15.9l4.2-11.1
				C219.2,137.9,214.8,143,213,145.4z"/>
			<polygon class="st11" points="227.8,164.1 235.6,160.5 225,163 227.2,173.3 			"/>
		</g>
		<path class="st11" d="M202.3,115.5l0.7-1.4l3.8-1.7l4.7,1.7l3,4.5c0,0-8.4,0.2-10.7-0.9C201.4,116.6,202.3,115.5,202.3,115.5z"/>
		<polygon class="st10" points="199.9,116.2 206.3,112.9 208.6,121.7 216.8,119.2 216.4,112.8 206.4,111.6 		"/>
		<path class="st12" d="M204.5,116.2c0,0,18.4,21.6,39.1,9.1c0,0-8.5,11.3-18.4,9.2s-20.1-11.7-21.6-17L204.5,116.2z"/>
		<path class="st13" d="M202.4,114.6c0,0,13.7,41.6,50.5,7.8c0,0,2.6-4,2.1-15.7c0-0.6-0.7-1-1.2-0.7l-11.3,6.7
			c0,0-4.7,25.8-22.7,18.9C207.2,126.8,202.4,114.6,202.4,114.6z"/>
		<path class="st13" d="M198,114.9c0,0,3.3-2.6,5.2-1.5c1.9,1.1,3.3,3.3,3.3,3.3l-2.2,2.1C204.2,118.8,200.3,118.6,198,114.9z"/>
		<path class="st12" d="M196.2,109.6c0,0,0,3.7,3.7,5.9c0,0,2.9,1.6,1.3,1.9c-1.6,0.3-4.1-1.6-5.2-4.6
			C194.9,109.7,196.2,109.6,196.2,109.6z"/>
		<path class="st10" d="M197.8,115.6l3.4-6.3l-7.4-9l-1.1,0.6C192.7,100.8,191.7,112.6,197.8,115.6z"/>
		<g>
			<path class="st1" d="M203.5,37.3l15.8,5.4c0,0,0,0,0,0c6.5-8.1,12.7-14.6,16.3-18.3l6.8-1l2.6-3l1.9,0c0,0,1.1-0.9,0.9-1.7
				c-0.8-2.5-2.5-1.6-3.2-2.9c-1.2-2.5-2.6-5.2-3.1-6.4c-0.7-1.7-0.7-4.2-3.2-3.9c-14.2,1.7-8.4,11.1-11.9,14.4
				c-9.6,5.9-18.2,12.6-25.8,19.9C201.6,39,202.5,38.2,203.5,37.3z"/>
			<path class="st1" d="M257.1,129.8h-15.3l-3.9,5c0,0,0.3,3.1,2.8,3.6c1.1,0.3,1.7-0.5,2.1-1.4c0.5,3.4,4.3,7.7,5.6,9.1l-4.7,6.6
				c1.8,2.3,4.6,4.5,8.5,5.4l4.1-10.8C259,140.6,257.1,129.8,257.1,129.8z"/>
		</g>
		<path class="st0" d="M137.5,178.5c0,0,21.2-20.8,72.4-2l-2.2,5.7c0,0,48.7,22.3,61.1,60.5L200,270.7l6.5,20c0,0-2.7,3.9-8.1-1.9
			c-5.4-5.8-14.9-27.3-14.9-27.3l52.5-30.2c0,0-27.7-24.9-58.2-18.2c0,0-32.7,49.4-19.5,114.4c0,0,1.3,31.8-7.8,30.2
			c-9.1-1.6-3.7-30-3.7-30S117.9,264.8,137.5,178.5z"/>
		<path class="st10" d="M207,31c0,0,8.5-10.4,16.7,8.2l-7.1,10.4c0,0-7.8-13-19.3-9.3L207,31z"/>
		<path class="st10" d="M242,151.2c0,0,6.1,6.9,12.8,6.1l-5.7,15.6c0,0-9.8,0.2-13.8-13.9L242,151.2z"/>
	</g>
	<path class="st14" d="M179.3,383.9c-3.8-9.5-6.9-19.3-9.6-29.1c-2.7-9.9-4.8-19.9-6.6-30l-1.2-7.6l-0.9-7.6
		c-0.3-2.5-0.5-5.1-0.7-7.6c-0.2-2.6-0.5-5.1-0.5-7.7c-0.5-10.2,0-20.5,1.2-30.6l-0.5,7.6c-0.1,1.3-0.2,2.5-0.2,3.8l0,3.8l0,3.8
		c0,1.3,0,2.5,0,3.8l0.3,7.6c0.7,10.2,1.7,20.3,3.5,30.4c1.7,10.1,3.8,20,6.3,29.9c1.3,4.9,2.6,9.9,4.1,14.8
		C176.1,374.2,177.7,379.1,179.3,383.9z"/>
	<path class="st14" d="M182.5,364c-1.8-3.9-3.3-7.9-4.7-11.9c-1.4-4-2.6-8.2-3.7-12.3c-1.1-4.1-2-8.3-2.8-12.5
		c-0.8-4.2-1.3-8.5-1.6-12.7c0.4,2.1,0.7,4.2,1.1,6.3l0.6,3.1l0.7,3.1c0.9,4.2,1.8,8.3,3,12.4c1,4.1,2.2,8.2,3.5,12.3
		c0.6,2,1.2,4.1,1.9,6.1C181.1,360,181.8,362,182.5,364z"/>
	<ellipse class="st15" cx="199.8" cy="380.4" rx="38.1" ry="3.9"/>
	<g class="st16">
		<path class="st17" d="M271.4,226.5c2.3,3.7,4.5,7.4,6.6,11.2c2.1,3.8,4.2,7.6,6.2,11.4l0.5,1l-1,0.5c-3,1.3-5.9,2.7-8.9,4
			c-3,1.3-6,2.6-9,3.8c-6,2.5-12,4.9-18.2,7c5.7-3.2,11.6-6,17.4-8.8c2.9-1.4,5.9-2.8,8.9-4.1c3-1.4,5.9-2.6,8.9-3.9l-0.5,1.5
			c-1.9-3.9-3.8-7.8-5.7-11.7C274.9,234.5,273.1,230.5,271.4,226.5z"/>
	</g>
</g>
</svg>
