<?xml version="1.0" encoding="utf-8"?>
<!-- Generator: Adobe Illustrator 25.0.0, SVG Export Plug-In . SVG Version: 6.00 Build 0)  -->
<svg version="1.1" id="Layer_1" xmlns="http://www.w3.org/2000/svg" xmlns:xlink="http://www.w3.org/1999/xlink" x="0px" y="0px"
	 viewBox="0 0 160 125.9" style="enable-background:new 0 0 160 125.9;" xml:space="preserve">
<style type="text/css">
	.st0{fill:#1C1C1C;}
	.st1{fill:#343434;}
	.st2{fill:#B63583;}
	.st3{fill:#152C48;}
	.st4{fill:#EB8D70;}
	.st5{fill:#F4A688;}
</style>
<g>
	<g>
		<g>
			<rect x="59.7" y="78.4" class="st0" width="2.9" height="31.5"/>
			<path class="st0" d="M63.6,77.9v8.8c0,0.6-0.5,1-1.2,1h-2.5c-0.6,0-1-0.4-1-1v-8.8H63.6z"/>
		</g>
		<path class="st0" d="M48.4,110.6H74l0,0c0-1.1-0.9-1.9-1.9-1.9H50.3C49.3,108.6,48.4,109.5,48.4,110.6L48.4,110.6z"/>
		<g>
			<g>
				<path class="st1" d="M64.9,66.1c1.5,0.1,3.1,0.3,3.4,0.3c3,0.2,6.2,0.5,8.8,1.7c0.7,0.3,1.4,0.9,2.1,1.4
					c3.2,2.8,5.8,8.1,0.3,9.3c-5.5,1.3-11.5,0.7-17.2,0.6c-3.5-0.1-6.9-0.2-10.4-0.7c-2.4-0.3-5.8,0.5-7.8-0.9
					C26.7,66.7,64.9,66.1,64.9,66.1z"/>
			</g>
		</g>
		<g>
			<ellipse class="st2" cx="72.9" cy="110.8" rx="1.8" ry="1.8"/>
			<path class="st0" d="M72,110.7c0,0.5,0.4,1,1,1c0.6,0,1-0.4,1-1c0-0.5-0.4-1-1-1C72.3,109.8,72,110.2,72,110.7z"/>
		</g>
		<g>
			<ellipse class="st2" cx="50.3" cy="110.7" rx="1.8" ry="1.8"/>
			<path class="st0" d="M49.4,110.7c0,0.5,0.4,1,1,1c0.5,0,1-0.4,1-1c0-0.5-0.4-1-1-1S49.4,110.2,49.4,110.7z"/>
		</g>
		<path class="st1" d="M46.4,28.4c9.6-2.9,27.4,1.7,27.9,14.1c0,0,1,15.3-5.9,24.8c-2.3,2.5-6.2,5-11.1,2.4c-7.8-4.2-9.6-11-9.6-11
			C46.1,53.1,36.8,31.3,46.4,28.4z"/>
	</g>
	<g>
		<path class="st3" d="M81.4,104.4c0,0,8.2,5.9,6.8,9.9c0,0-9-3.9-10.1-6.9c-1.1-3.1,0.2-4.4,0.2-4.4L81.4,104.4z"/>
		<path class="st4" d="M80.2,99.4l-1.3,3.9c-0.2,0.6,0,1.3,0.5,1.6c0.3,0.2,0.6,0.3,1.1,0.4c0.7,0.2,1.4-0.2,1.7-0.8l1.6-3
			L80.2,99.4z"/>
		<path class="st2" d="M67.1,64.4c0,0,16.9,2.9,24.2,9.6s-6.7,28.1-6.7,28.1s-2.3,0-5-2.4c0,0,8.2-16.1,1.1-20.8
			c-8-5.3-17.2-6.5-17.2-6.5l3.4-7.6L67.1,64.4z"/>
		<path class="st3" d="M89.7,114.7c-0.6-1-1.8-2-3-2.6c-1.8-0.8-6.9-4.4-7.8-4.6c-0.9-0.2-2.4,0.9-2.4,0.9s-0.4,0.7,0,1.8
			c0.3,0.8,0.9,1.8,2.2,2.9c3.2,2.9,9.4,3.9,10.7,3.7C90.5,116.7,90.4,115.7,89.7,114.7z"/>
		<path class="st4" d="M75.1,105.9c0,0.5,1,2.2,1.6,3.2c0.3,0.5,0.8,0.7,1.3,0.7c0.3,0,0.7,0,1.1-0.1c0.5-0.2,0.8-0.7,0.7-1.3
			l-1.2-4L75.1,105.9z"/>
		<path class="st2" d="M50.8,59.3c0,0-3.8,10,0,13.1c3.8,3.1,12.7,6.5,14.7,12.6c2,6.1,5.4,17.9,9.9,22.1c0,0,3.2-0.3,4.4-1.6
			c0,0-2.6-17.6-4.3-22.2c-1.5-3.9-3.7-9.6-7.8-12.7c-1.2-0.9-1-2.3-0.4-3.7l1-2.5L50.8,59.3z"/>
		<path class="st4" d="M102.1,48.4c-2.3-1.6-5,0-5,0c-3.1,2.1-5.5,2.9-7.2,3c-6.3,0.4-4.3-9.7-4.2-10.1l-9.6,6.7
			c0,0,0.5,5.4,8.4,8.2c2,0.7,3.8,0.7,5.5,0.4c3.5-0.8,6-3.3,7.1-4.6c0.4-0.5,1.1-0.6,1.6-0.2c0.5,0.4,1,0.9,0.9,1.5
			c-0.2,1.1,1.1,1.4,1.2,1c0.1-0.4-0.4-2.8-0.4-2.8s2.5,2.6,3.5,3.5c1,1,2.2,0,2.2,0S104.5,50.1,102.1,48.4z"/>
		<path class="st3" d="M60.6,25.9c0,0,9.2-3.7,26.2,10.4c0,0,1.4,2.9-0.1,5.6c-1.6,2.6-16.4,15.4-18.4,22.5c0,0-8.8,2.9-17.9-3.9
			C50.3,60.4,51.1,40.7,60.6,25.9z"/>
		<path class="st4" d="M78.7,22.6l-4.5,5.5c-0.4,0.5-0.5,1.3-0.2,1.9c0.6,1.3,2.1,3.1,5.4,2.9c1-0.1,1.8-0.7,2.3-1.6l3.2-6.5
			L78.7,22.6z"/>
		<path class="st3" d="M55.3,53.8c-1.1-4.3,7.9-18.6,7.9-18.6l-2.6-9.4c0,0-23.3,15.5-17.3,27.9c0.8,1.8,2.4,4.1,3.7,5
			C52,57.1,53.2,54.9,55.3,53.8z"/>
		<g>
			<path class="st5" d="M88.5,14.6c0,0.2-1.1,12.1-1.1,12.1l-6.8-0.8L80,14.4C80,14.4,87.7,11.6,88.5,14.6z"/>
			<path class="st0" d="M81.8,16.8l-0.1,6.1c0,0.1,0,0.2,0,0.2c0.1,0.5,0.6,2,2.2,1.4c1.4-0.6,2.7-1.1,3.7-0.9
				c0.4,0.1,0.7,0.5,0.7,0.9c-0.1,1.1-0.4,3.5-0.9,5.6c-0.1,0.4-0.5,0.7-1,0.6c-1.3-0.2-5.2-2-7.3-3c-0.3-0.1-0.5-0.4-0.5-0.7
				c-0.1-1.5,0.7-4.9,0.4-6.2c-0.3-1.2-1.8-1.8-2.5-1.9c-0.2-0.1-0.4-0.2-0.5-0.4c-0.4-0.7-1-2.4,1.1-3.3c0.4-0.2,0.6-0.7,0.4-1.2
				c-0.4-0.9-0.7-2.2,0.9-3.2c1.6-1,3-0.2,3.8,0.5c0.3,0.3,0.8,0.3,1.1,0c0.2-0.1,0.4-0.2,0.8-0.1c0.4,0.2,1,0,1.1-0.5
				c0.3-0.9,1.1-1.9,2.8-1.8c3,0.2,3.7,3.4,3.2,5.5c-0.6,2-3.9,1.6-5.6,0.8c-1.3-0.6-2.8,0.3-3.4,0.8C81.9,16.3,81.8,16.6,81.8,16.8
				z"/>
			<path class="st5" d="M79,23.3c0,0,1-4-0.4-4.7c-1.4-0.7-3.3-0.1-2.6,2.5C76.8,24.2,79,23.3,79,23.3z"/>
		</g>
		<g>
			<path class="st3" d="M77.9,63C78,63,78,63,77.9,63h27.2c0.7,0,1.3-0.6,1.3-1.3s-0.6-1.3-1.3-1.3H78c-0.7,0-1.3,0.6-1.3,1.3
				C76.7,62.5,77.3,63,77.9,63z"/>
			<path class="st3" d="M129.5,38.3h-22.6c-1.6,0-3.2,1-3.8,2.5L92.6,63h28.1c1.1,0,2-0.7,2.4-1.6l8.1-20.5
				C131.6,39.7,130.8,38.3,129.5,38.3z"/>
		</g>
		<path class="st4" d="M71.8,57.2c0,0-13.7,0.7-15.5-3.8c-0.1-0.3-0.2-0.6-0.1-0.9c-2.3,0.3-5.9,2.1-9.2,6.3c5,6.2,18,2.9,21.6,2
			c0.6-0.1,1.2-0.1,1.7,0.2c1.1,0.6,2.9,1.6,4,1.8c1.6,0.3,9.9,0.6,9.7-2.8C84,59.9,80.4,58.2,71.8,57.2z"/>
	</g>
	<g>
		<g>
			<g>
				<path class="st0" d="M122.9,115.7c0.1,0,0.3,0,0.4-0.1c0.5-0.2,0.8-0.8,0.6-1.3l-21.7-48.9c-0.2-0.5-0.9-0.8-1.3-0.5
					c-0.5,0.2-0.8,0.8-0.6,1.3l21.7,48.9C122,115.5,122.4,115.7,122.9,115.7z"/>
				<path class="st0" d="M98.4,115.7c0.4,0,0.8-0.2,1-0.6l21.7-48.9c0.2-0.5,0-1.1-0.6-1.3c-0.5-0.2-1.2,0-1.3,0.5l-21.7,48.9
					c-0.2,0.5,0,1.1,0.6,1.3C98.2,115.7,98.3,115.7,98.4,115.7z"/>
				<path class="st0" d="M55.7,115.7c0.1,0,0.3,0,0.4-0.1c0.5-0.2,0.8-0.8,0.6-1.3L34.9,65.5C34.7,65,34,64.7,33.5,65
					c-0.5,0.2-0.8,0.8-0.6,1.3l21.7,48.9C54.9,115.5,55.3,115.7,55.7,115.7z"/>
				<path class="st0" d="M31.2,115.7c0.4,0,0.8-0.2,1-0.6l21.7-48.9c0.2-0.5,0-1.1-0.6-1.3c-0.5-0.2-1.2,0-1.3,0.5l-21.7,48.9
					c-0.2,0.5,0,1.1,0.6,1.3C31,115.7,31.1,115.7,31.2,115.7z"/>
			</g>
			<path class="st0" d="M28.7,63.9c-0.1-0.3,0-0.7,0.2-0.9c0.2-0.3,0.5-0.4,0.8-0.4h98.7c0.4,0,0.8,0.2,1,0.6
				c0.2,0.4,0.2,0.8,0.1,1.3l-1.1,2.6c-0.3,0.6-0.8,1-1.3,1H30.4c-0.6,0-1.1-0.4-1.2-1.1L28.7,63.9z"/>
		</g>
	</g>
</g>
</svg>
